<svg width="670" height="644" viewBox="0 0 670 644" fill="none" xmlns="http://www.w3.org/2000/svg">
<path d="M425.97 285.976C502.351 278.597 518.073 239.247 495.578 202.362C455.183 136.119 365.95 110.042 275.908 139.995C162.594 177.689 87.6359 292.325 108.479 396.043C129.32 499.762 238.073 553.286 351.387 515.593C400.567 499.229 442.522 468.374 472.552 430.206C484.674 414.8 488.873 367.141 432.709 369.606C372.822 372.235 364.529 291.913 425.97 285.976ZM406.523 196.056C412.045 190.017 419.679 186.551 427.491 186.551C435.302 186.551 442.93 190.017 448.458 196.056C453.979 202.108 457.145 210.467 457.145 219.021C457.145 227.574 453.979 235.925 448.458 241.978C442.93 248.023 435.302 251.49 427.491 251.49C419.679 251.49 412.045 248.024 406.523 241.978C401.002 235.925 397.836 227.574 397.836 219.021C397.836 210.467 401.002 202.108 406.523 196.056ZM155.981 302.621C160.443 287.921 174.934 279.966 188.353 284.844C201.779 289.73 209.051 305.597 204.595 320.29C200.134 334.989 185.635 342.944 172.222 338.072C158.798 333.18 151.526 317.314 155.981 302.621ZM204.958 431.538C195.744 442.188 180.384 442.656 170.657 432.576C160.923 422.488 160.502 405.677 169.716 395.027C178.923 384.37 194.277 383.902 204.01 393.99C213.736 404.071 214.164 420.881 204.958 431.538ZM253.861 254.999C241.778 264.518 224.93 261.505 216.237 248.275C207.543 235.039 210.295 216.6 222.377 207.08V207.073C234.466 197.562 251.308 200.574 260.001 213.804C268.695 227.033 265.945 245.48 253.861 254.999ZM300.673 199.003C298.863 181.997 309.984 166.62 325.516 164.645C341.041 162.671 355.092 174.849 356.895 191.847C358.705 208.846 347.577 224.229 332.051 226.203C316.52 228.186 302.476 216.001 300.673 199.003ZM386.951 431.258C386.951 441.626 383.114 451.743 376.421 459.079C369.728 466.406 360.475 470.608 351.005 470.608C341.541 470.608 332.282 466.406 325.595 459.079C318.903 451.743 315.066 441.626 315.066 431.258C315.066 420.889 318.903 410.751 325.595 403.422C332.282 396.1 341.541 391.899 351.005 391.899C360.475 391.899 369.728 396.1 376.421 403.422C383.114 410.75 386.951 420.888 386.951 431.258Z" fill="#BDA05A"/>
<path d="M445.005 144.573C445.005 144.573 465.626 122.67 470.074 113.106C474.543 103.521 474.133 65.2505 469.47 55.6902C464.807 46.1299 464.362 34.5126 436.531 22.9249C408.712 11.3401 402.607 20.229 394.188 24.3353C385.746 28.4528 366.526 58.551 365.331 69.4843C364.141 80.427 369.707 113.228 369.707 113.228C369.707 113.228 397.774 117.296 409.234 122.067C420.69 126.83 445.005 144.573 445.005 144.573Z" fill="#BDA05A"/>
<path d="M124.967 108.038L207.338 110.814C207.338 110.814 222.488 132.792 229.055 149.218C264.726 121.964 302.452 123.824 302.452 123.824L276.848 73.1887C257.709 35.3398 215.781 19.8994 182.761 38.5221L116.965 75.6465C110.849 79.1067 107.889 86.9101 109.79 94.5852C111.681 102.252 117.948 107.811 124.967 108.038Z" fill="#BDA05A"/>
<path d="M538.36 161.877L488.909 172.546C488.909 172.546 516.348 204.28 524.177 253.239C538.996 248.254 563.271 247.149 563.271 247.149L622.374 317.316C627.404 323.279 635.241 325.149 641.353 321.795C647.457 318.445 650.278 310.762 648.174 303.174L625.532 221.464C614.174 180.458 575.319 153.894 538.36 161.877Z" fill="#BDA05A"/>
<path d="M52.0263 325.144C34.1032 321.746 17.4244 337.213 14.8216 345.214L1.12053 387.197C-1.19596 394.289 0.136898 402.238 4.58479 407.868C9.02454 413.497 15.8576 415.878 22.3158 414.04L96.8231 392.915C89.3544 367.493 96.8231 331.909 96.8231 331.909L52.0263 325.144Z" fill="#BDA05A"/>
<path d="M348.89 522.721C348.89 522.721 319.474 536.512 295.945 532.056L292.27 618.548C291.956 626.045 295.368 633.306 301.128 637.405C306.892 641.513 314.057 641.794 319.765 638.121L353.497 616.378C359.918 612.236 370.07 591.253 363.587 571.736L348.89 522.721Z" fill="#BDA05A"/>
<path d="M155.033 412.056C155.797 428.602 169.835 441.402 186.391 440.631C202.936 439.873 215.734 425.831 214.967 409.278C214.203 392.725 200.164 379.926 183.616 380.697C167.064 381.461 154.265 395.497 155.033 412.056Z" fill="#282C34"/>
<path d="M150.035 317.148C150.851 334.798 165.824 348.451 183.483 347.629C201.132 346.821 214.783 331.842 213.965 314.186C213.149 296.529 198.175 282.877 180.523 283.699C162.869 284.514 149.216 299.486 150.035 317.148Z" fill="#C3E108"/>
<path d="M202.037 228.241C202.904 246.994 218.813 261.5 237.576 260.627C256.327 259.768 270.832 243.853 269.963 225.094C269.096 206.333 253.186 191.828 234.431 192.702C215.673 193.567 201.167 209.475 202.037 228.241Z" fill="#41E108"/>
<path d="M293.039 198.334C293.957 218.189 310.802 233.549 330.669 232.624C350.523 231.715 365.881 214.864 364.961 195.001C364.043 175.137 347.197 159.779 327.339 160.704C307.477 161.62 292.118 178.464 293.039 198.334Z" fill="#FB8261"/>
<path d="M389.044 224.52C390.063 246.581 408.78 263.648 430.854 262.62C452.914 261.61 469.979 242.886 468.956 220.817C467.937 198.746 449.218 181.681 427.154 182.708C405.086 183.726 388.02 202.442 389.044 224.52Z" fill="#61DAFB"/>
</svg>
