<svg width="157" height="75" viewBox="0 0 157 75" fill="none" xmlns="http://www.w3.org/2000/svg">
<path d="M17.3945 74.4043C17.0189 74.4841 16.8001 74.378 16.738 74.0859C16.6936 73.8772 16.7922 73.7254 17.0337 73.6304C17.1918 73.5532 17.3499 73.476 17.5079 73.3988C17.7077 73.3127 17.9284 73.2221 18.1699 73.1272C19.9478 72.0514 21.4702 69.5686 22.7371 65.6788C18.4119 66.4673 14.8083 66.0338 11.9265 64.3781C8.84216 62.591 6.8476 59.5689 5.94277 55.312C4.88713 50.3457 5.65318 44.8176 8.24093 38.7278C10.6581 33.0669 13.9883 28.5205 18.2315 25.0886C17.0781 25.2029 16.1675 25.3311 15.4997 25.473C13.8721 25.819 12.2426 26.3616 10.6114 27.1009C9.54663 27.6326 8.55337 28.1926 7.63159 28.7812C6.7098 29.3697 5.88479 30.003 5.15656 30.6813C3.03758 32.6147 2.16438 34.4579 2.53696 36.2107C2.58131 36.4194 2.63766 36.5819 2.70601 36.6983L2.79915 37.1365C2.92335 37.7207 2.79764 38.0528 2.42203 38.1326C1.92122 38.2391 1.47464 37.9851 1.0823 37.3705C0.588751 36.6903 0.28875 36.0998 0.1823 35.5989C-0.341083 33.1366 1.46721 30.7675 5.60718 28.4917C8.65842 26.8399 11.7908 25.6725 15.0044 24.9894C15.5052 24.883 16.0983 24.8005 16.7838 24.742C17.4604 24.6418 18.2041 24.5492 19.0148 24.4641C19.9188 23.7921 20.8153 23.1872 21.7042 22.6493C22.626 22.0608 23.5655 21.5557 24.5228 21.1342C24.4226 20.4576 24.306 19.8062 24.1729 19.1802C24.0398 18.5542 23.9157 17.9699 23.8003 17.4274C23.756 17.2187 23.7028 16.9683 23.6407 16.6762C23.5786 16.384 23.4823 16.0337 23.3518 15.6252C23.2214 15.2168 23.1251 14.8665 23.063 14.5743C22.9921 14.2405 22.9388 13.99 22.9034 13.8231C22.8324 13.4892 22.9012 13.3001 23.1099 13.2558C23.1934 13.238 23.299 13.3246 23.4269 13.5156C24.018 14.6549 24.5265 16.2262 24.9523 18.2294C25.0321 18.605 25.1164 19.0015 25.2051 19.4188C25.2938 19.8362 25.3661 20.2788 25.4219 20.7468C26.1794 20.4113 26.9248 20.122 27.6583 19.8788C28.3918 19.6357 29.1133 19.4387 29.8228 19.2879C33.5788 18.4895 36.7087 18.8493 39.2124 20.3673C40.5015 21.0965 41.6099 22.1041 42.5375 23.39C43.4651 24.6759 44.1241 26.237 44.5144 28.0733L44.5676 28.3237C44.7184 29.0332 44.5017 29.45 43.9174 29.5742C43.6253 29.6363 43.2231 29.591 42.7107 29.4381C40.6855 28.7345 38.9715 28.161 37.5687 27.7176C36.2076 27.2654 35.1785 26.9389 34.4815 26.7381C31.4672 25.8957 28.6237 25.3442 25.9511 25.0835C26.28 28.067 26.476 31.1442 26.5393 34.3149C26.5937 37.444 26.566 40.6996 26.4561 44.0817C26.2654 47.699 25.9797 51.0749 25.599 54.2092C25.2601 57.3346 24.7636 60.2318 24.1095 62.9008C24.3688 62.8893 24.6237 62.8569 24.8741 62.8037C25.1662 62.7416 25.4583 62.6795 25.7505 62.6174C28.0876 62.1207 30.3209 61.3406 32.4504 60.2773C34.6216 59.2051 36.7142 57.8661 38.7284 56.2603C40.8082 54.5532 42.5858 52.7577 44.061 50.8738C45.5362 48.99 46.6749 46.9595 47.4772 44.7825C47.7046 44.2107 47.86 43.9159 47.9435 43.8982L47.9834 44.086C48.0189 44.2529 48.0335 44.4243 48.0273 44.6001C48.0539 44.7253 48.0388 44.8594 47.9819 45.0023C46.4484 49.6903 43.1915 54.0684 38.2112 58.1368C33.4698 61.8927 28.5413 64.3579 23.4258 65.5325C21.7421 70.9503 19.7316 73.9075 17.3945 74.4043ZM41.6072 26.4012C41.8994 26.3391 42.0011 26.0994 41.9124 25.6821C41.8237 25.2647 41.5964 24.8114 41.2307 24.3221C39.7464 22.6747 37.6502 21.6371 34.9422 21.2095C32.5857 20.7944 30.1972 20.8441 27.7766 21.3586C27.401 21.4384 27.0298 21.5391 26.663 21.6607C26.2874 21.7405 25.9163 21.8412 25.5495 21.9628C25.5699 22.2638 25.5991 22.6066 25.6372 22.9911C25.7171 23.3667 25.776 23.7467 25.8141 24.1312C28.2994 24.1264 30.7829 24.3182 33.2646 24.7067C35.7791 25.0446 38.271 25.5837 40.7402 26.3238C41.1095 26.4198 41.3986 26.4456 41.6072 26.4012ZM24.9604 24.1164C24.9312 23.7736 24.8855 23.4562 24.8234 23.164C24.7524 22.8302 24.7068 22.5127 24.6864 22.2117C23.9201 22.5055 23.1626 22.8409 22.414 23.2182C21.6983 23.5448 21.0167 23.9295 20.3693 24.3725C21.2306 24.3203 22.0293 24.2814 22.7654 24.2558C23.5344 24.1796 24.266 24.1331 24.9604 24.1164ZM23.4702 62.9713C24.7721 57.8091 25.529 51.5196 25.7409 44.1028C25.8685 40.8042 25.8798 37.574 25.7748 34.412C25.6609 31.2084 25.4307 28.0731 25.0841 25.0061C24.1544 24.942 23.2337 24.9196 22.3218 24.9389C21.401 24.9166 20.4429 24.9239 19.4475 24.961C17.4574 26.4745 15.7007 28.2656 14.1775 30.3341C12.6543 32.4027 11.4107 34.7608 10.4468 37.4084C8.42661 42.6796 7.94432 47.7984 8.99996 52.7648C9.79834 56.5208 11.4671 59.2413 14.0062 60.9262C16.5808 62.7781 19.7355 63.4598 23.4702 62.9713ZM51.8842 53.9219C50.2565 54.2679 49.2209 53.3975 48.7774 51.3108C48.2363 48.765 48.6417 45.9526 49.9938 42.8735C48.9801 41.3878 48.278 39.7268 47.8877 37.8905C47.5063 36.0959 47.5284 34.4555 47.954 32.9692C48.7723 30.0472 50.204 28.3688 52.249 27.9342C54.8365 27.3842 56.8091 29.2767 58.1668 33.6119C60.2712 33.2518 61.5452 34.1151 61.9888 36.2018C62.3525 37.9129 62.2631 38.8261 61.7205 38.9415C61.5536 38.977 61.4435 38.8695 61.3903 38.6191C61.3725 38.5356 61.3548 38.4521 61.337 38.3687C61.361 38.2763 61.3806 38.1631 61.3957 38.0291C61.3602 37.8621 61.3336 37.7369 61.3159 37.6535C61.331 37.5194 61.3341 37.4315 61.3252 37.3897C61.1833 36.722 60.8593 36.2238 60.3533 35.8952C59.7966 35.5337 59.2261 35.415 58.6419 35.5392C59.2233 40.7372 58.8216 44.9011 57.4367 48.0308L59.3773 47.6183C58.9057 48.0675 58.4613 48.3364 58.0439 48.4251C57.9187 48.4517 57.81 48.453 57.7176 48.429C57.5835 48.4139 57.4539 48.4197 57.3287 48.4463C57.4956 48.4108 56.9117 49.2547 55.5768 50.9778C54.2419 52.701 53.011 53.6824 51.8842 53.9219ZM50.536 42.0385C52.3544 38.0752 54.573 35.379 57.1918 33.95C55.5942 30.5382 54.065 28.9876 52.6043 29.2981C51.2688 29.582 50.3171 31.1583 49.7491 34.0271C49.551 34.9416 49.4704 35.8965 49.5075 36.8919C49.5357 37.8455 49.6563 38.8232 49.8692 39.8248C50.0377 40.6178 50.26 41.3557 50.536 42.0385ZM55.3669 48.1435C56.1733 47.0125 56.8144 45.0006 57.29 42.1078C57.7896 39.1227 57.9019 36.9833 57.6269 35.6895C56.7354 36.0099 55.4774 37.1715 53.853 39.1743C52.2614 41.1265 51.3337 42.6105 51.0698 43.6263C52.6204 46.6118 54.0528 48.1175 55.3669 48.1435ZM51.6728 52.004C52.8413 51.7556 54.0114 50.5908 55.183 48.5098C53.7703 48.6356 52.2931 47.2266 50.7513 44.2828C49.862 46.8709 49.5548 48.8119 49.8298 50.1056C50.1403 51.5663 50.7546 52.1991 51.6728 52.004ZM65.8002 51.88C65.4246 51.9598 65.1792 51.7285 65.0638 51.1859L65.0372 51.0607C65.08 50.441 65.0917 49.6751 65.0723 48.7632C65.0947 47.8424 65.1069 46.7712 65.1089 45.5494C65.1109 44.3276 65.1135 42.8004 65.1165 40.9677C65.1106 39.0933 65.1306 36.9298 65.1764 34.4774C65.1169 34.4028 64.9935 34.2327 64.8062 33.9672C64.6518 33.6511 64.417 33.2648 64.1019 32.8083C63.7779 32.3101 63.5267 31.9491 63.3483 31.7253C63.1698 31.5016 63.0806 31.3897 63.0806 31.3897C63.0185 31.0975 63.3156 30.7508 63.9719 30.3496C65.89 29.1131 67.1413 28.4328 67.7255 28.3086C68.3515 28.1755 68.7045 28.2968 68.7843 28.6724C68.716 28.5561 68.2195 31.4533 67.2949 37.364L67.4146 37.9274C67.663 39.096 67.5994 39.7202 67.2238 39.8C67.182 39.8089 67.1061 39.7596 66.996 39.6522C66.8839 40.7665 66.763 41.8391 66.6331 42.8699C66.5361 43.8502 66.46 44.826 66.4048 45.7974C67.0036 44.0998 67.6366 42.4603 68.3037 40.8791C69.0126 39.2889 69.7601 37.7778 70.5462 36.3458C72.9045 32.0496 75.1061 29.6841 77.1511 29.2495C78.111 29.0454 78.6708 29.319 78.8305 30.0702C78.8837 30.3207 78.8876 30.647 78.8423 31.0492C78.7683 32.548 78.6698 34.4446 78.5468 36.739C78.4566 38.9827 78.3167 41.6079 78.127 44.6143C80.1661 42.3052 81.6361 39.9863 82.5369 37.6574C82.6924 37.3627 82.8118 37.2064 82.8953 37.1887C83.0205 37.1621 83.1008 37.2322 83.1363 37.3992C83.1541 37.4826 83.1225 37.642 83.0417 37.8773C81.8973 41.5229 80.2145 44.585 77.9933 47.0637C77.8796 47.3495 77.6349 47.5324 77.2593 47.6122C76.9672 47.6743 76.7856 47.5385 76.7147 47.2046C76.6969 47.1211 76.6588 46.7366 76.6003 46.0511C76.5747 45.315 76.5541 44.2944 76.5384 42.9891C76.5519 42.0266 76.549 41.0894 76.5296 40.1775C76.5103 39.2656 76.4865 38.3328 76.4582 37.3792C76.4451 36.2915 76.3663 35.305 76.2218 34.4197C76.1101 33.4838 75.9953 32.6358 75.8773 31.8757C75.0479 32.4882 74.1926 33.3897 73.3116 34.5803C72.4634 35.7202 71.5432 37.1371 70.551 38.8311C68.731 41.966 67.5078 44.6251 66.8814 46.8084C66.5366 48.0594 66.3557 49.3628 66.3385 50.7187C66.3135 51.4219 66.1341 51.809 65.8002 51.88ZM65.1927 32.7073L65.317 30.5217C65.1438 30.733 64.7917 31.026 64.2607 31.4006C64.4391 31.6243 64.5967 31.8526 64.7334 32.0852C64.9118 32.309 65.0649 32.5164 65.1927 32.7073ZM92.2007 46.4647C90.114 46.9082 88.8001 45.8571 88.259 43.3113C87.8687 41.475 87.8443 39.1029 88.1858 36.195C87.9036 35.6879 87.5094 35.2701 87.0033 34.9415C86.4884 34.5711 85.866 34.3108 85.1362 34.1606C84.5404 34.0255 83.9282 33.9157 83.2996 33.8313C82.7127 33.7379 82.1005 33.6281 81.463 33.5019C80.8672 33.3668 80.5028 32.9863 80.3697 32.3603C80.2278 31.6925 80.4357 31.2339 80.9933 30.9845L82.6836 30.6253C84.8955 30.1551 87.1585 29.4124 89.4726 28.3971L89.5086 28.2585L91.6976 18.2405C91.8087 17.7371 91.9349 17.0996 92.0762 16.328C92.2176 15.5564 92.3993 14.6672 92.6215 13.6603C92.7957 12.8381 93.5297 12.2896 94.8235 12.0146C95.6999 11.8283 96.1824 11.9438 96.2712 12.3611C96.2978 12.4863 95.8983 14.4033 95.0726 18.112C94.2319 21.9548 93.7458 23.9774 93.6143 24.1798C93.5486 24.281 93.4336 24.4581 93.2693 24.7111C93.1378 24.9136 92.9691 25.1457 92.763 25.4076C92.6582 25.7352 92.5142 26.2893 92.3311 27.0697C92.9128 26.728 93.9016 26.147 95.2976 25.3269C96.7265 24.4561 98.5625 23.3461 100.806 21.9969C100.964 21.9197 101.105 21.8678 101.231 21.8412C101.347 21.7728 101.426 21.7342 101.468 21.7254C101.635 21.6899 101.727 21.7139 101.745 21.7973C101.895 22.5068 98.6572 24.6128 92.0299 28.1152C91.5412 29.9203 91.1289 31.4692 90.793 32.7619C90.4482 34.0129 90.2052 35.0242 90.0639 35.7958C89.8052 37.2466 89.6628 38.6291 89.6368 39.9432C89.6437 41.2068 89.7713 42.4228 90.0197 43.5914C90.3124 44.9686 90.9179 45.5596 91.836 45.3645C92.9628 45.1249 94.2759 44.0171 95.7751 42.0409C96.5575 41.0021 97.1384 40.2462 97.5176 39.773C97.888 39.2581 98.0732 39.0006 98.0732 39.0006C98.1984 38.974 98.2743 39.0233 98.3009 39.1485C98.3275 39.2737 98.3048 39.4748 98.2329 39.7518C97.778 40.8954 96.94 42.1858 95.7188 43.6231C94.2916 45.3223 93.1189 46.2695 92.2007 46.4647ZM88.2499 35.2654C88.3647 34.3686 88.4958 33.4465 88.6434 32.4991C88.8327 31.5428 89.0385 30.5613 89.2606 29.5544C88.2705 30.0266 87.2551 30.4823 86.2143 30.9217C85.2153 31.3521 84.2119 31.7617 83.204 32.1504C85.6137 32.8159 87.2957 33.8543 88.2499 35.2654ZM112.586 41.4773C111.459 41.7168 110.459 41.3188 109.584 40.2833C108.88 39.4299 108.394 38.3771 108.128 37.1251C107.995 36.4991 107.89 35.8016 107.814 35.0327C107.771 34.2131 107.756 33.3221 107.769 32.3596C106.382 38.7612 104.29 42.2592 101.494 42.8536C99.7829 43.2173 98.6923 42.2932 98.2221 40.0813C97.4681 36.5338 98.3986 32.4975 101.014 27.9723C103.652 23.3547 106.683 20.6822 110.105 19.9548C111.733 19.6088 112.698 20.1453 112.999 21.5643C113.372 23.3171 112.576 25.3184 110.611 27.568C110.04 30.8301 110.091 34.0471 110.765 37.2189C111.271 39.5977 112.045 40.6763 113.089 40.4545C114.466 40.1618 116.411 37.0003 118.924 30.97C119.104 30.5829 119.256 30.376 119.381 30.3494C119.506 30.3228 119.587 30.3929 119.622 30.5599C119.667 30.7685 119.627 30.995 119.505 31.2391C116.937 37.6299 114.631 41.0426 112.586 41.4773ZM101.332 40.8597C103.961 40.3008 105.886 36.8383 107.106 30.4721C106.79 30.6266 106.495 30.7766 106.221 30.9221C105.979 31.0171 105.754 31.0867 105.545 31.1311C105.378 31.1666 105.282 31.1217 105.255 30.9965C105.211 30.7879 105.458 30.5171 105.998 30.1842C106.18 30.0147 106.421 29.8109 106.719 29.573C107.009 29.2934 107.335 28.984 107.699 28.6449C107.632 27.9177 107.875 26.9064 108.429 25.611C108.973 24.2739 109.6 23.5299 110.31 23.3791C110.56 23.3259 110.725 23.4871 110.805 23.8627C110.867 24.1548 110.86 24.6361 110.785 25.3065C111.257 24.2464 111.401 23.2781 111.214 22.4017C111.01 21.4418 110.47 21.055 109.594 21.2413C107.507 21.6849 105.208 24.3109 102.697 29.1194C100.195 33.9696 99.1785 37.5007 99.6487 39.7126C99.8527 40.6725 100.414 41.0549 101.332 40.8597ZM131.441 23.3367C130.899 23.452 130.561 23.1967 130.428 22.5707C130.375 22.3203 130.38 21.7303 130.444 20.8006C130.55 19.8621 130.541 19.1007 130.417 18.5164C130.017 16.6384 129.067 15.859 127.564 16.1784C126.813 16.3381 125.915 16.8342 124.871 17.6669C123.877 18.5324 123.338 18.9741 123.255 18.9918C123.088 19.0273 122.991 18.9824 122.965 18.8572C122.84 18.2729 123.539 17.5574 125.06 16.7106C126.223 16.0272 127.243 15.5923 128.12 15.406C130.373 14.927 131.788 16.0438 132.365 18.7565C132.525 19.5078 132.552 20.3526 132.446 21.2911C132.319 22.5395 131.984 23.2214 131.441 23.3367ZM124.861 39.7842C121.981 40.3963 120.196 39.0747 119.504 35.8195C118.812 32.5642 119.166 28.9992 120.567 25.1246C122.205 20.7199 124.526 18.1982 127.531 17.5595C127.99 17.462 128.237 17.4966 128.272 17.6636C128.299 17.7888 127.948 18.1905 127.22 18.8687C125.441 20.5554 124.029 22.8402 122.985 25.7231C121.85 28.7995 121.513 31.4229 121.975 33.593C122.693 36.9735 124.325 38.3932 126.871 37.8521C128.457 37.515 130.077 36.5164 131.731 34.8563C132.45 34.1363 133.102 33.4088 133.688 32.6737C134.306 31.888 134.831 31.0783 135.265 30.2447C135.42 29.9499 135.604 29.5837 135.817 29.146C136.029 28.7083 136.244 28.1827 136.463 27.5691C136.705 26.8633 136.931 26.4882 137.14 26.4438C137.14 26.4438 137.19 26.4767 137.292 26.5424C137.318 26.6676 137.206 27.0623 136.954 27.7264C136.475 28.9623 135.846 30.2084 135.066 31.4646C134.278 32.6792 133.313 33.8874 132.173 35.0895C129.677 37.7137 127.24 39.2786 124.861 39.7842ZM146.732 34.8736C144.646 35.3171 143.332 34.266 142.791 31.7202C142.4 29.8839 142.376 27.5118 142.718 24.6039C142.435 24.0969 142.041 23.679 141.535 23.3504C141.02 22.98 140.398 22.7197 139.668 22.5695C139.072 22.4344 138.46 22.3247 137.831 22.2402C137.244 22.1468 136.632 22.037 135.995 21.9108C135.399 21.7757 135.035 21.3952 134.901 20.7692C134.76 20.1014 134.967 19.6429 135.525 19.3935L137.215 19.0342C139.427 18.564 141.69 17.8213 144.004 16.806L144.04 16.6675L146.229 6.64944C146.34 6.146 146.467 5.5085 146.608 4.73692C146.749 3.96534 146.931 3.07612 147.153 2.06926C147.327 1.24707 148.061 0.69848 149.355 0.423482C150.232 0.237193 150.714 0.35272 150.803 0.770063C150.829 0.895265 150.43 2.81222 149.604 6.52092C148.764 10.3637 148.278 12.3863 148.146 12.5887C148.08 12.6899 147.965 12.867 147.801 13.1201C147.67 13.3225 147.501 13.5546 147.295 13.8165C147.19 14.1442 147.046 14.6982 146.863 15.4787C147.445 15.1369 148.433 14.556 149.829 13.7358C151.258 12.865 153.094 11.7551 155.337 10.4059C155.495 10.3286 155.637 10.2767 155.762 10.2501C155.879 10.1818 155.958 10.1432 155.999 10.1343C156.166 10.0988 156.259 10.1228 156.276 10.2063C156.427 10.9157 153.189 13.0217 146.562 16.5241C146.073 18.3292 145.661 19.8781 145.325 21.1708C144.98 22.4219 144.737 23.4332 144.596 24.2047C144.337 25.6556 144.195 27.038 144.169 28.3522C144.175 29.6157 144.303 30.8317 144.551 32.0003C144.844 33.3775 145.45 33.9685 146.368 33.7734C147.495 33.5339 148.808 32.426 150.307 30.4498C151.089 29.4111 151.67 28.6551 152.049 28.1819C152.42 27.667 152.605 27.4095 152.605 27.4095C152.73 27.3829 152.806 27.4322 152.833 27.5574C152.859 27.6826 152.837 27.8837 152.765 28.1608C152.31 29.3043 151.472 30.5947 150.251 32.032C148.823 33.7313 147.651 34.6784 146.732 34.8736ZM142.782 23.6743C142.896 22.7775 143.028 21.8554 143.175 20.908C143.364 19.9518 143.57 18.9702 143.792 17.9633C142.802 18.4355 141.787 18.8913 140.746 19.3306C139.747 19.761 138.744 20.1706 137.736 20.5593C140.145 21.2249 141.827 22.2632 142.782 23.6743Z" fill="#61DAFB"/>
</svg>
