<svg width="237" height="24" viewBox="0 0 237 24" fill="none" xmlns="http://www.w3.org/2000/svg">
<path d="M11.0221 23L6.92613 23.16C6.30746 23.16 5.99813 23.032 5.99813 22.776C5.99813 22.5413 6.38213 22.36 7.15013 22.232C8.75013 21.9333 9.55013 21.1013 9.55013 19.736V5.176C9.55013 4.49333 9.42213 4.07733 9.16613 3.928C8.91013 3.75733 8.43013 3.672 7.72613 3.672H5.10213C4.54746 3.672 4.02479 3.77867 3.53413 3.992C3.04346 4.20533 2.71279 4.472 2.54213 4.792C2.37146 5.13333 2.14746 5.44267 1.87013 5.72C1.61413 5.99733 1.37946 6.136 1.16613 6.136C1.01679 6.136 0.942125 6.008 0.942125 5.752C0.942125 5.56 0.995458 5.336 1.10213 5.08C1.57146 4.12 1.90213 2.936 2.09413 1.528C2.15813 1.03733 2.33946 0.792 2.63813 0.792C2.80879 0.792 3.07546 1.13333 3.43813 1.816C3.67279 2.24267 4.41946 2.456 5.67813 2.456H17.8701C18.6808 2.456 19.2995 2.30667 19.7261 2.008C19.8968 1.90133 20.0888 1.74133 20.3021 1.528C20.5368 1.31467 20.7288 1.15466 20.8781 1.048C21.0275 0.919999 21.1768 0.855999 21.3261 0.855999C21.4755 0.855999 21.5501 1.10133 21.5501 1.592L21.5181 1.88C21.3475 2.584 21.2195 3.20267 21.1341 3.736C21.0488 4.248 21.0061 4.68533 21.0061 5.048V5.432C21.0061 5.64533 20.9528 5.86933 20.8461 6.104C20.7608 6.33867 20.6435 6.456 20.4941 6.456C20.2595 6.456 20.0568 6.01867 19.8861 5.144C19.7368 4.16267 18.6808 3.672 16.7181 3.672C15.7368 3.672 14.9048 3.68267 14.2221 3.704C13.5395 3.72533 13.0061 3.75733 12.6221 3.8C12.2808 3.82133 12.1101 4.28 12.1101 5.176V19.736C12.1101 21.1227 12.9528 21.9547 14.6381 22.232C15.3421 22.36 15.6941 22.5413 15.6941 22.776C15.6941 23.032 15.3848 23.16 14.7661 23.16L11.0221 23ZM36.2356 16.376C36.2356 17.6133 35.9476 18.776 35.3716 19.864C34.817 20.9307 33.9956 21.7947 32.9076 22.456C31.841 23.1173 30.5396 23.448 29.0036 23.448C27.809 23.448 26.721 23.1707 25.7396 22.616C24.7796 22.0613 24.0223 21.304 23.4676 20.344C22.913 19.3627 22.6356 18.2533 22.6356 17.016C22.6356 16.0987 22.817 15.2133 23.1796 14.36C23.5423 13.4853 24.0436 12.7067 24.6836 12.024C25.345 11.32 26.0916 10.7653 26.9236 10.36C27.7556 9.95467 28.641 9.752 29.5796 9.752C30.8383 9.752 31.969 10.0507 32.9716 10.648C33.9743 11.224 34.7636 12.0133 35.3396 13.016C35.937 13.9973 36.2356 15.1173 36.2356 16.376ZM25.2596 16.28C25.2596 17.368 25.4516 18.392 25.8356 19.352C26.241 20.2907 26.7743 21.048 27.4356 21.624C28.1183 22.2 28.865 22.488 29.6756 22.488C30.7423 22.488 31.553 22.264 32.1076 21.816C32.6836 21.3467 33.0783 20.7067 33.2916 19.896C33.505 19.064 33.6116 18.104 33.6116 17.016C33.6116 15.9067 33.409 14.8827 33.0036 13.944C32.6196 12.984 32.0863 12.216 31.4036 11.64C30.7423 11.0427 29.9743 10.744 29.0996 10.744C26.5396 10.744 25.2596 12.5893 25.2596 16.28ZM41.3594 22.936L38.7674 23.096C38.3407 23.096 38.1274 22.9893 38.1274 22.776C38.1274 22.648 38.2127 22.5413 38.3834 22.456C38.554 22.3493 38.7354 22.264 38.9274 22.2C39.1194 22.136 39.2367 22.104 39.2794 22.104C39.322 22.104 39.4287 22.0613 39.5994 21.976C39.77 21.8907 39.8767 21.816 39.9194 21.752C40.1327 21.5387 40.2394 21.2933 40.2394 21.016V14.136C40.2394 13.4747 40.154 12.952 39.9834 12.568C39.8127 12.184 39.482 11.9387 38.9914 11.832C38.8207 11.7893 38.7354 11.6507 38.7354 11.416C38.7354 11.1813 38.81 11.0533 38.9594 11.032C39.45 10.9253 39.9407 10.744 40.4314 10.488C40.9434 10.232 41.466 9.92267 41.9994 9.56L42.4794 9.272H42.5114C42.5967 9.272 42.6714 9.336 42.7354 9.464L42.5754 11.512C42.5754 11.7253 42.5967 11.8533 42.6394 11.896C44.154 10.4667 45.8394 9.752 47.6954 9.752C49.21 9.752 50.202 10.392 50.6714 11.672C50.778 11.9067 50.8954 12.024 51.0234 12.024C51.13 12.024 51.354 11.8213 51.6954 11.416C52.0367 11.032 52.634 10.6587 53.4874 10.296C54.3407 9.93333 55.258 9.752 56.2394 9.752C56.8794 9.752 57.434 9.95467 57.9034 10.36C58.394 10.7653 58.7674 11.3093 59.0234 11.992C59.2794 12.6533 59.4074 13.3893 59.4074 14.2V21.016C59.4074 21.4427 59.5354 21.72 59.7914 21.848C60.0687 21.976 60.4314 22.1147 60.8794 22.264C61.306 22.4347 61.5194 22.6053 61.5194 22.776C61.5194 22.9893 61.306 23.096 60.8794 23.096L58.3514 22.936L55.6954 23.096C55.2687 23.096 55.0554 22.9893 55.0554 22.776C55.0554 22.584 55.3007 22.4027 55.7914 22.232C55.834 22.232 55.8767 22.2213 55.9194 22.2C56.6447 21.9653 57.05 21.6773 57.1354 21.336C57.1567 21.2933 57.1674 21.24 57.1674 21.176C57.1674 21.112 57.1674 21.0587 57.1674 21.016V14.296C57.1674 13.5067 56.9114 12.8027 56.3994 12.184C55.8874 11.5653 55.29 11.256 54.6074 11.256C53.4767 11.256 52.5807 11.512 51.9194 12.024C51.258 12.536 50.9274 13.336 50.9274 14.424V21.016C50.9274 21.2507 50.9594 21.4 51.0234 21.464L51.1514 21.656C51.194 21.7413 51.2474 21.7947 51.3114 21.816C51.418 21.8373 51.482 21.8693 51.5034 21.912C51.546 21.9547 51.6207 21.9867 51.7274 22.008C51.834 22.0293 51.898 22.0613 51.9194 22.104C52.09 22.1893 52.2394 22.232 52.3674 22.232C52.858 22.4027 53.1034 22.584 53.1034 22.776C53.1034 22.9893 52.89 23.096 52.4634 23.096L49.8394 22.936L47.1834 23.096C46.7567 23.096 46.5434 22.9893 46.5434 22.776C46.5434 22.584 46.842 22.392 47.4394 22.2C48.0367 22.008 48.3994 21.8053 48.5274 21.592C48.634 21.3787 48.6874 21.1867 48.6874 21.016V14.296C48.6874 13.5067 48.4314 12.8027 47.9194 12.184C47.4074 11.5653 46.81 11.256 46.1274 11.256C44.9967 11.256 44.1007 11.512 43.4394 12.024C42.7994 12.5147 42.4794 13.3147 42.4794 14.424V21.016C42.4794 21.4213 42.5967 21.6987 42.8314 21.848C43.0874 21.976 43.258 22.0507 43.3434 22.072C44.1754 22.2853 44.5914 22.5307 44.5914 22.808C44.5914 23 44.378 23.096 43.9514 23.096L41.3594 22.936ZM76.9856 16.376C76.9856 17.6133 76.6976 18.776 76.1216 19.864C75.567 20.9307 74.7456 21.7947 73.6576 22.456C72.591 23.1173 71.2896 23.448 69.7536 23.448C68.559 23.448 67.471 23.1707 66.4896 22.616C65.5296 22.0613 64.7723 21.304 64.2176 20.344C63.663 19.3627 63.3856 18.2533 63.3856 17.016C63.3856 16.0987 63.567 15.2133 63.9296 14.36C64.2923 13.4853 64.7936 12.7067 65.4336 12.024C66.095 11.32 66.8416 10.7653 67.6736 10.36C68.5056 9.95467 69.391 9.752 70.3296 9.752C71.5883 9.752 72.719 10.0507 73.7216 10.648C74.7243 11.224 75.5136 12.0133 76.0896 13.016C76.687 13.9973 76.9856 15.1173 76.9856 16.376ZM66.0096 16.28C66.0096 17.368 66.2016 18.392 66.5856 19.352C66.991 20.2907 67.5243 21.048 68.1856 21.624C68.8683 22.2 69.615 22.488 70.4256 22.488C71.4923 22.488 72.303 22.264 72.8576 21.816C73.4336 21.3467 73.8283 20.7067 74.0416 19.896C74.255 19.064 74.3616 18.104 74.3616 17.016C74.3616 15.9067 74.159 14.8827 73.7536 13.944C73.3696 12.984 72.8363 12.216 72.1536 11.64C71.4923 11.0427 70.7243 10.744 69.8496 10.744C67.2896 10.744 66.0096 12.5893 66.0096 16.28ZM93.4374 22.84C93.4374 23.0533 93.224 23.16 92.7974 23.16L86.9734 23C86.4827 23 86.2374 22.904 86.2374 22.712C86.2374 22.456 86.472 22.2533 86.9414 22.104C87.4107 21.9547 87.6454 21.7627 87.6454 21.528C87.6454 21.4 87.5707 21.2507 87.4214 21.08L83.3894 16.44C83.3467 16.3973 83.304 16.376 83.2614 16.376C83.1334 16.376 83.0694 16.5253 83.0694 16.824C83.048 16.9733 83.0374 17.208 83.0374 17.528C83.0374 17.8267 83.0374 18.2213 83.0374 18.712C83.0374 19.0107 83.0267 19.2987 83.0054 19.576C83.0054 19.8533 83.0054 20.1093 83.0054 20.344C83.0054 20.8347 83.0694 21.24 83.1974 21.56C83.3467 21.8587 83.6774 22.0827 84.1894 22.232C84.68 22.4027 84.9254 22.584 84.9254 22.776C84.9254 22.9893 84.68 23.096 84.1894 23.096C84.1894 23.096 83.9974 23.0747 83.6134 23.032C83.2507 23.0107 82.696 22.9787 81.9494 22.936C81.9494 22.936 81.736 22.9573 81.3094 23C80.904 23.0213 80.2854 23.0533 79.4534 23.096C78.9627 23.096 78.7174 22.9893 78.7174 22.776C78.7174 22.584 78.9094 22.424 79.2934 22.296C79.6774 22.168 80.0294 22.0293 80.3494 21.88C80.6694 21.7307 80.8294 21.4107 80.8294 20.92V4.888C80.8294 4.14133 80.712 3.59733 80.4774 3.256C80.264 2.89333 79.8907 2.65867 79.3574 2.552C79.1867 2.50933 79.1014 2.37067 79.1014 2.136C79.1014 1.90133 79.176 1.77333 79.3254 1.752C79.6454 1.66667 80.1147 1.51733 80.7334 1.304C81.3734 1.09067 82.1627 0.813332 83.1014 0.471998H83.1334L83.1654 0.439999C83.2934 0.439999 83.3574 0.503998 83.3574 0.631998C83.3574 0.717332 83.3467 0.823999 83.3254 0.952C83.3254 1.05867 83.3147 1.19733 83.2934 1.368C83.208 1.96533 83.144 2.57333 83.1014 3.192C83.08 3.78933 83.0694 4.39733 83.0694 5.016V15.608C83.0694 15.7573 83.112 15.832 83.1974 15.832C83.4747 15.832 83.8694 15.608 84.3814 15.16C85.3414 14.3067 86.12 13.5813 86.7174 12.984C87.336 12.3867 87.7734 11.9067 88.0294 11.544C88.0507 11.5227 88.0614 11.4907 88.0614 11.448C88.0614 11.2133 87.784 11.032 87.2294 10.904C86.9734 10.7973 86.8454 10.712 86.8454 10.648C86.8454 10.3493 87.08 10.2 87.5494 10.2H89.1174C89.5654 10.2 90.1734 10.136 90.9414 10.008C91.7094 9.88 92.1254 9.816 92.1894 9.816C92.36 9.816 92.4454 9.88 92.4454 10.008C92.4454 10.1573 92.3707 10.3067 92.2214 10.456C92.0934 10.584 91.9547 10.6693 91.8054 10.712C91.5067 10.776 91.1867 10.872 90.8454 11C90.5254 11.128 90.1947 11.2987 89.8534 11.512C89.512 11.7253 88.9787 12.1307 88.2534 12.728C87.528 13.3253 86.6 14.1147 85.4694 15.096C85.2347 15.288 85.2027 15.4693 85.3734 15.64C85.8854 16.2373 86.4507 16.8987 87.0694 17.624C87.7094 18.328 88.3067 18.968 88.8614 19.544C89.416 20.12 89.8214 20.5253 90.0774 20.76C90.8454 21.5067 91.72 22.0187 92.7014 22.296C93.192 22.4667 93.4374 22.648 93.4374 22.84ZM98.5174 4.984C98.496 5.432 98.336 5.80533 98.0374 6.104C97.7387 6.40267 97.3547 6.56267 96.8854 6.584C96.416 6.56267 96.032 6.40267 95.7334 6.104C95.4347 5.80533 95.2854 5.42133 95.2854 4.952C95.2854 4.48267 95.4347 4.09867 95.7334 3.8C96.032 3.50133 96.416 3.352 96.8854 3.352C97.3547 3.352 97.7387 3.50133 98.0374 3.8C98.336 4.09867 98.496 4.49333 98.5174 4.984ZM97.1094 22.936L94.5174 23.096C94.0907 23.096 93.8774 22.9893 93.8774 22.776C93.8774 22.584 94.176 22.392 94.7734 22.2C95.392 22.008 95.744 21.8053 95.8294 21.592C95.936 21.3787 95.9894 21.1867 95.9894 21.016V14.072C95.9894 12.7493 95.488 11.9707 94.4854 11.736C94.3147 11.6933 94.2294 11.5547 94.2294 11.32C94.2294 11.0853 94.304 10.9573 94.4534 10.936C95.4774 10.68 96.5654 10.1787 97.7174 9.432C98.0587 9.21867 98.2507 9.112 98.2934 9.112C98.4427 9.112 98.5174 9.16533 98.5174 9.272C98.3254 11.2133 98.2294 12.6533 98.2294 13.592V21.016C98.2294 21.4427 98.3574 21.72 98.6134 21.848C98.8907 21.976 99.2534 22.1147 99.7014 22.264C100.128 22.4347 100.341 22.6053 100.341 22.776C100.341 22.9893 100.128 23.096 99.7014 23.096L97.1094 22.936ZM102.873 9.368H102.809C102.425 9.368 102.233 9.25067 102.233 9.016C102.233 8.824 102.382 8.696 102.681 8.632C103.513 8.46133 104.228 8.09867 104.825 7.544C105.444 6.968 105.753 6.168 105.753 5.144C105.753 4.86667 105.625 4.568 105.369 4.248C105.113 3.90667 104.793 3.72533 104.409 3.704C104.004 3.66133 103.662 3.52267 103.385 3.288C103.129 3.05333 103.001 2.73333 103.001 2.328C103.001 1.944 103.172 1.61333 103.513 1.336C103.876 1.05866 104.366 0.919998 104.985 0.919998C105.604 0.919998 106.158 1.21866 106.649 1.816C107.161 2.392 107.417 3.128 107.417 4.024C107.417 5.00533 107.172 5.90133 106.681 6.712C106.19 7.50133 105.593 8.13067 104.889 8.6C104.185 9.06933 103.513 9.32533 102.873 9.368ZM118.017 19.608C118.017 22.168 116.481 23.448 113.409 23.448C112.619 23.448 111.883 23.3093 111.201 23.032C110.518 22.776 110.123 22.5307 110.017 22.296C109.761 21.7627 109.622 21.112 109.601 20.344C109.601 20.152 109.771 20.056 110.113 20.056C110.433 20.056 110.603 20.1307 110.625 20.28C110.71 20.6427 110.902 21.0053 111.201 21.368C111.521 21.7307 111.894 22.0293 112.321 22.264C112.769 22.4773 113.227 22.584 113.697 22.584C114.379 22.584 114.902 22.3813 115.265 21.976C115.649 21.5707 115.841 21.0693 115.841 20.472C115.841 19.8747 115.649 19.3733 115.265 18.968C114.881 18.5413 114.241 18.008 113.345 17.368C112.427 16.728 111.691 16.1093 111.137 15.512C110.603 14.8933 110.337 14.1467 110.337 13.272C110.337 12.6747 110.497 12.1093 110.817 11.576C111.137 11.0427 111.595 10.6053 112.193 10.264C112.79 9.92267 113.515 9.752 114.369 9.752C115.649 9.752 116.534 9.99733 117.025 10.488C117.387 10.9573 117.569 11.7893 117.569 12.984C117.569 13.0693 117.494 13.112 117.345 13.112C117.195 13.112 116.982 13.0373 116.705 12.888C116.427 12.7173 116.289 12.568 116.289 12.44C116.267 11.9707 116.054 11.544 115.649 11.16C115.243 10.776 114.763 10.584 114.209 10.584C113.633 10.584 113.163 10.776 112.801 11.16C112.438 11.544 112.257 11.992 112.257 12.504C112.257 13.016 112.438 13.4853 112.801 13.912C113.163 14.3387 113.483 14.6373 113.761 14.808C113.889 14.8933 114.049 15.0107 114.241 15.16C114.454 15.288 114.699 15.4373 114.977 15.608C115.339 15.8213 115.638 16.0133 115.873 16.184C116.129 16.3547 116.374 16.5573 116.609 16.792C116.843 17.0053 117.099 17.3147 117.377 17.72C117.803 18.3387 118.017 18.968 118.017 19.608ZM132.528 22.936L128.368 23.16C127.749 23.16 127.44 23.032 127.44 22.776C127.44 22.5413 127.824 22.3493 128.592 22.2C129.36 22.072 129.925 21.8373 130.288 21.496C130.651 21.1333 130.832 20.568 130.832 19.8V6.296C130.832 5.272 130.704 4.51466 130.448 4.024C130.192 3.53333 129.691 3.224 128.944 3.096C128.197 2.968 127.824 2.75467 127.824 2.456C127.824 2.22133 128.133 2.104 128.752 2.104L131.888 2.136L135.44 1.944C137.061 1.944 138.48 2.17867 139.696 2.648C140.933 3.096 141.904 3.74667 142.608 4.6C143.312 5.432 143.664 6.424 143.664 7.576C143.664 8.96267 143.376 10.2107 142.8 11.32C142.245 12.4293 141.424 13.304 140.336 13.944C139.269 14.5627 137.947 14.872 136.368 14.872C135.941 14.872 135.6 14.808 135.344 14.68C135.067 14.552 134.928 14.4133 134.928 14.264C134.928 14.1787 134.981 14.104 135.088 14.04C135.216 13.9547 135.333 13.912 135.44 13.912L135.92 13.976L136.912 14.072C139.493 14.072 140.784 12.1627 140.784 8.344C140.784 6.46667 140.304 5.08 139.344 4.184C138.384 3.288 137.083 2.84 135.44 2.84C134.075 2.84 133.392 3.288 133.392 4.184V19.448C133.392 21.048 134.107 21.976 135.536 22.232C136.24 22.36 136.592 22.5413 136.592 22.776C136.592 23.032 136.283 23.16 135.664 23.16C135.365 23.16 135.067 23.1493 134.768 23.128C134.469 23.1067 134.181 23.0747 133.904 23.032C133.371 22.968 132.912 22.936 132.528 22.936ZM159.048 16.376C159.048 17.6133 158.76 18.776 158.184 19.864C157.629 20.9307 156.808 21.7947 155.72 22.456C154.653 23.1173 153.352 23.448 151.816 23.448C150.621 23.448 149.533 23.1707 148.552 22.616C147.592 22.0613 146.835 21.304 146.28 20.344C145.725 19.3627 145.448 18.2533 145.448 17.016C145.448 16.0987 145.629 15.2133 145.992 14.36C146.355 13.4853 146.856 12.7067 147.496 12.024C148.157 11.32 148.904 10.7653 149.736 10.36C150.568 9.95467 151.453 9.752 152.392 9.752C153.651 9.752 154.781 10.0507 155.784 10.648C156.787 11.224 157.576 12.0133 158.152 13.016C158.749 13.9973 159.048 15.1173 159.048 16.376ZM148.072 16.28C148.072 17.368 148.264 18.392 148.648 19.352C149.053 20.2907 149.587 21.048 150.248 21.624C150.931 22.2 151.677 22.488 152.488 22.488C153.555 22.488 154.365 22.264 154.92 21.816C155.496 21.3467 155.891 20.7067 156.104 19.896C156.317 19.064 156.424 18.104 156.424 17.016C156.424 15.9067 156.221 14.8827 155.816 13.944C155.432 12.984 154.899 12.216 154.216 11.64C153.555 11.0427 152.787 10.744 151.912 10.744C149.352 10.744 148.072 12.5893 148.072 16.28ZM164.332 22.936L161.74 23.096C161.313 23.096 161.1 22.9893 161.1 22.776C161.1 22.584 161.292 22.424 161.676 22.296C162.06 22.168 162.316 22.0827 162.444 22.04C162.572 21.976 162.711 21.8587 162.86 21.688C162.988 21.5173 163.052 21.2933 163.052 21.016V14.136C163.052 12.792 162.615 12.024 161.74 11.832C161.569 11.7893 161.484 11.6507 161.484 11.416C161.484 11.1813 161.559 11.0533 161.708 11.032C162.497 10.8827 163.095 10.6693 163.5 10.392C163.863 10.1573 164.161 9.96533 164.396 9.816C164.652 9.66667 164.833 9.54933 164.94 9.464C165.175 9.336 165.292 9.26133 165.292 9.24H165.388C165.452 9.24 165.495 9.31467 165.516 9.464C165.516 9.74133 165.516 10.0187 165.516 10.296C165.516 10.5733 165.505 10.8507 165.484 11.128C165.463 11.6613 165.463 11.928 165.484 11.928C165.484 11.928 165.537 11.8747 165.644 11.768C165.943 11.384 166.135 11.1707 166.22 11.128C167.223 10.2107 168.204 9.752 169.164 9.752C169.612 9.752 169.975 9.848 170.252 10.04C170.551 10.232 170.7 10.488 170.7 10.808C170.7 11.128 170.561 11.48 170.284 11.864C170.028 12.248 169.783 12.44 169.548 12.44C169.313 12.44 168.972 12.344 168.524 12.152C168.076 11.96 167.745 11.864 167.532 11.864C166.913 11.864 166.38 12.0667 165.932 12.472C165.505 12.8773 165.292 13.5707 165.292 14.552V20.856C165.313 21.4107 165.889 21.8693 167.02 22.232C167.511 22.4027 167.756 22.584 167.756 22.776C167.756 22.9893 167.543 23.096 167.116 23.096L164.332 22.936ZM180.139 22.136C179.798 22.456 179.318 22.7547 178.699 23.032C178.102 23.3093 177.505 23.448 176.907 23.448C175.862 23.448 175.041 23.1387 174.443 22.52C173.867 21.88 173.579 20.92 173.579 19.64V12.216C173.579 12.024 173.505 11.896 173.355 11.832C173.206 11.768 172.875 11.736 172.363 11.736C172.299 11.736 172.214 11.6507 172.107 11.48C172.022 11.3093 171.979 11.1813 171.979 11.096C171.979 11.0107 172.033 10.936 172.139 10.872C172.63 10.7227 173.131 10.4133 173.643 9.944C174.155 9.47467 174.571 9.03733 174.891 8.632C175.211 8.22667 175.403 8.024 175.467 8.024C175.766 8.024 175.915 8.13067 175.915 8.344L175.851 9.752C175.851 10.0507 176.107 10.2 176.619 10.2H180.267C180.481 10.2 180.587 10.456 180.587 10.968C180.587 11.48 180.481 11.736 180.267 11.736H177.099C176.523 11.736 176.161 11.7787 176.011 11.864C175.883 11.9493 175.819 12.2053 175.819 12.632V18.68C175.819 19.768 176.022 20.5467 176.427 21.016C176.833 21.464 177.334 21.688 177.931 21.688C178.998 21.688 179.798 21.4853 180.331 21.08C180.353 21.0587 180.385 21.048 180.427 21.048C180.577 21.048 180.651 21.1867 180.651 21.464C180.651 21.6347 180.481 21.8587 180.139 22.136ZM184.986 22.936L182.33 23.096C181.903 23.096 181.69 22.9893 181.69 22.776C181.69 22.584 181.935 22.4027 182.426 22.232C183.343 21.9547 183.802 21.4853 183.802 20.824V11.8C183.461 11.8 183.151 11.8 182.874 11.8C182.618 11.7787 182.373 11.7573 182.138 11.736C182.074 11.7147 181.978 11.64 181.85 11.512C181.743 11.384 181.69 11.2773 181.69 11.192C181.69 11.128 181.765 11.0533 181.914 10.968C182.085 10.9253 182.319 10.84 182.618 10.712C182.938 10.5627 183.333 10.3707 183.802 10.136C183.802 8.38667 184.026 6.85067 184.474 5.528C184.943 4.20533 185.551 3.192 186.298 2.488C187.749 1.10133 189.263 0.407999 190.842 0.407999C193.189 0.407999 194.362 1.048 194.362 2.328C194.362 2.66933 194.255 2.968 194.042 3.224C193.829 3.48 193.605 3.608 193.37 3.608C193.135 3.608 192.901 3.512 192.666 3.32C192.431 3.128 192.207 2.904 191.994 2.648C191.781 2.41333 191.45 2.2 191.002 2.008C190.554 1.816 190.053 1.72 189.498 1.72C188.453 1.72 187.621 2.22133 187.002 3.224C186.405 4.20533 186.106 5.73067 186.106 7.8V9.496C186.106 9.96533 186.373 10.2 186.906 10.2H190.682C190.767 10.2 190.81 10.3173 190.81 10.552C190.81 10.808 190.767 11.0747 190.682 11.352C190.597 11.608 190.501 11.736 190.394 11.736H187.386C186.853 11.736 186.511 11.7787 186.362 11.864C186.191 11.9707 186.106 12.1093 186.106 12.28V20.824C186.127 21.4853 186.586 21.9547 187.482 22.232C187.973 22.4027 188.218 22.584 188.218 22.776C188.218 22.9893 188.005 23.096 187.578 23.096L184.986 22.936ZM205.392 16.376C205.392 17.6133 205.104 18.776 204.528 19.864C203.973 20.9307 203.152 21.7947 202.064 22.456C200.997 23.1173 199.696 23.448 198.16 23.448C196.965 23.448 195.877 23.1707 194.896 22.616C193.936 22.0613 193.179 21.304 192.624 20.344C192.069 19.3627 191.792 18.2533 191.792 17.016C191.792 16.0987 191.973 15.2133 192.336 14.36C192.699 13.4853 193.2 12.7067 193.84 12.024C194.501 11.32 195.248 10.7653 196.08 10.36C196.912 9.95467 197.797 9.752 198.736 9.752C199.995 9.752 201.125 10.0507 202.128 10.648C203.131 11.224 203.92 12.0133 204.496 13.016C205.093 13.9973 205.392 15.1173 205.392 16.376ZM194.416 16.28C194.416 17.368 194.608 18.392 194.992 19.352C195.397 20.2907 195.931 21.048 196.592 21.624C197.275 22.2 198.021 22.488 198.832 22.488C199.899 22.488 200.709 22.264 201.264 21.816C201.84 21.3467 202.235 20.7067 202.448 19.896C202.661 19.064 202.768 18.104 202.768 17.016C202.768 15.9067 202.565 14.8827 202.16 13.944C201.776 12.984 201.243 12.216 200.56 11.64C199.899 11.0427 199.131 10.744 198.256 10.744C195.696 10.744 194.416 12.5893 194.416 16.28ZM210.356 22.936L207.764 23.096C207.337 23.096 207.124 22.9893 207.124 22.776C207.124 22.584 207.422 22.392 208.02 22.2C208.638 22.008 208.99 21.8053 209.076 21.592C209.182 21.3787 209.236 21.1867 209.236 21.016V4.888C209.236 3.544 208.745 2.76533 207.764 2.552C207.593 2.50933 207.508 2.37067 207.508 2.136C207.508 1.90133 207.582 1.77333 207.732 1.752C208.286 1.624 209.524 1.19733 211.444 0.471998H211.476L211.508 0.439999C211.636 0.439999 211.7 0.514666 211.7 0.664L211.636 1.24C211.593 1.64533 211.55 2.168 211.508 2.808C211.486 3.42666 211.476 4.16267 211.476 5.016V21.016C211.476 21.4427 211.604 21.72 211.86 21.848C212.137 21.976 212.5 22.1147 212.948 22.264C213.374 22.4347 213.588 22.6053 213.588 22.776C213.588 22.9893 213.374 23.096 212.948 23.096L210.356 22.936ZM219.642 4.984C219.621 5.432 219.461 5.80533 219.162 6.104C218.864 6.40267 218.48 6.56267 218.01 6.584C217.541 6.56267 217.157 6.40267 216.858 6.104C216.56 5.80533 216.41 5.42133 216.41 4.952C216.41 4.48267 216.56 4.09867 216.858 3.8C217.157 3.50133 217.541 3.352 218.01 3.352C218.48 3.352 218.864 3.50133 219.162 3.8C219.461 4.09867 219.621 4.49333 219.642 4.984ZM218.234 22.936L215.642 23.096C215.216 23.096 215.002 22.9893 215.002 22.776C215.002 22.584 215.301 22.392 215.898 22.2C216.517 22.008 216.869 21.8053 216.954 21.592C217.061 21.3787 217.114 21.1867 217.114 21.016V14.072C217.114 12.7493 216.613 11.9707 215.61 11.736C215.44 11.6933 215.354 11.5547 215.354 11.32C215.354 11.0853 215.429 10.9573 215.578 10.936C216.602 10.68 217.69 10.1787 218.842 9.432C219.184 9.21867 219.376 9.112 219.418 9.112C219.568 9.112 219.642 9.16533 219.642 9.272C219.45 11.2133 219.354 12.6533 219.354 13.592V21.016C219.354 21.4427 219.482 21.72 219.738 21.848C220.016 21.976 220.378 22.1147 220.826 22.264C221.253 22.4347 221.466 22.6053 221.466 22.776C221.466 22.9893 221.253 23.096 220.826 23.096L218.234 22.936ZM236.798 16.376C236.798 17.6133 236.51 18.776 235.934 19.864C235.379 20.9307 234.558 21.7947 233.47 22.456C232.403 23.1173 231.102 23.448 229.566 23.448C228.371 23.448 227.283 23.1707 226.302 22.616C225.342 22.0613 224.585 21.304 224.03 20.344C223.475 19.3627 223.198 18.2533 223.198 17.016C223.198 16.0987 223.379 15.2133 223.742 14.36C224.105 13.4853 224.606 12.7067 225.246 12.024C225.907 11.32 226.654 10.7653 227.486 10.36C228.318 9.95467 229.203 9.752 230.142 9.752C231.401 9.752 232.531 10.0507 233.534 10.648C234.537 11.224 235.326 12.0133 235.902 13.016C236.499 13.9973 236.798 15.1173 236.798 16.376ZM225.822 16.28C225.822 17.368 226.014 18.392 226.398 19.352C226.803 20.2907 227.337 21.048 227.998 21.624C228.681 22.2 229.427 22.488 230.238 22.488C231.305 22.488 232.115 22.264 232.67 21.816C233.246 21.3467 233.641 20.7067 233.854 19.896C234.067 19.064 234.174 18.104 234.174 17.016C234.174 15.9067 233.971 14.8827 233.566 13.944C233.182 12.984 232.649 12.216 231.966 11.64C231.305 11.0427 230.537 10.744 229.662 10.744C227.102 10.744 225.822 12.5893 225.822 16.28Z" fill="#FB8261"/>
</svg>
