<svg xmlns="http://www.w3.org/2000/svg" width="300" viewBox="0 0 300 247.5" height="247.5" version="1.0"><path fill="#282C34" d="M 238.734375 19.050781 L 228.875 19.050781 L 228.875 14.226562 C 228.875 11.453125 226.617188 9.195312 223.84375 9.195312 L 17 9.195312 C 14.175781 9.195312 11.964844 11.453125 11.964844 14.226562 L 11.964844 142.121094 C 11.964844 144.890625 14.226562 147.148438 17 147.148438 L 130.28125 147.148438 L 130.28125 186.566406 L 108.507812 186.566406 L 101.113281 216.125 L 130.28125 216.125 L 130.28125 225.980469 L 76.054688 225.980469 C 73.28125 225.980469 71.125 223.773438 71.125 221.054688 C 71.125 218.433594 73.332031 216.125 76.105469 216.125 L 88.890625 216.125 C 90.019531 216.125 91.046875 215.253906 91.304688 214.226562 L 98.238281 186.566406 L 17 186.566406 C 8.78125 186.566406 2.105469 179.894531 2.105469 171.835938 L 2.105469 14.074219 C 2.105469 5.914062 8.679688 -0.65625 17 -0.65625 L 223.84375 -0.65625 C 232.058594 -0.65625 238.734375 6.015625 238.734375 14.074219 Z M 120.421875 176.710938 C 125.863281 176.710938 130.28125 172.296875 130.28125 166.855469 C 130.28125 161.417969 125.863281 157.003906 120.421875 157.003906 C 114.976562 157.003906 110.5625 161.417969 110.5625 166.855469 C 110.5625 172.296875 114.976562 176.710938 120.421875 176.710938 Z M 120.421875 176.710938" fill-rule="evenodd"/><path fill="#282C34" d="M 278.175781 68.320312 L 268.316406 68.320312 L 268.316406 48.613281 L 150 48.613281 L 150 206.273438 L 189.4375 206.273438 L 189.4375 235.832031 L 154.980469 235.832031 C 146.765625 235.832031 140.140625 229.265625 140.140625 221 L 140.140625 43.738281 C 140.140625 35.523438 146.714844 28.90625 154.980469 28.90625 L 263.332031 28.90625 C 271.550781 28.90625 278.175781 35.472656 278.175781 43.738281 Z M 278.175781 68.320312" fill-rule="evenodd"/><path fill="#282C34" d="M 214.136719 78.171875 L 283.050781 78.171875 C 291.269531 78.171875 297.894531 84.742188 297.894531 93.003906 L 297.894531 230.855469 C 297.894531 239.066406 291.320312 245.6875 283.050781 245.6875 L 214.136719 245.6875 C 205.921875 245.6875 199.296875 239.117188 199.296875 230.855469 L 199.296875 93.003906 C 199.296875 84.792969 205.871094 78.171875 214.136719 78.171875 Z M 209.15625 206.273438 L 288.035156 206.273438 L 288.035156 97.878906 L 209.15625 97.878906 Z M 248.59375 235.832031 C 254.039062 235.832031 258.453125 231.417969 258.453125 225.980469 C 258.453125 220.539062 254.039062 216.125 248.59375 216.125 C 243.152344 216.125 238.734375 220.539062 238.734375 225.980469 C 238.734375 231.417969 243.152344 235.832031 248.59375 235.832031 Z M 248.59375 235.832031" fill-rule="evenodd"/></svg>