<svg xmlns="http://www.w3.org/2000/svg" width="247.5" viewBox="0 0 247.5 247.5" height="247.5" version="1.0"><defs><clipPath id="a"><path d="M 0 0 L 247 0 L 247 247 L 0 247 Z M 0 0"/></clipPath></defs><path fill="#282C34" d="M 126.648438 148.402344 L 56.558594 148.402344 C 56.003906 148.402344 55.453125 148.457031 54.90625 148.566406 C 54.363281 148.675781 53.835938 148.835938 53.320312 149.050781 C 52.808594 149.261719 52.320312 149.523438 51.859375 149.832031 C 51.398438 150.140625 50.972656 150.492188 50.578125 150.882812 C 50.1875 151.277344 49.835938 151.703125 49.527344 152.164062 C 49.21875 152.625 48.957031 153.113281 48.746094 153.628906 C 48.53125 154.140625 48.371094 154.667969 48.261719 155.214844 C 48.152344 155.757812 48.097656 156.308594 48.097656 156.863281 L 48.097656 176.199219 C 48.097656 176.753906 48.152344 177.304688 48.261719 177.847656 C 48.371094 178.394531 48.53125 178.921875 48.746094 179.433594 C 48.957031 179.949219 49.21875 180.433594 49.527344 180.894531 C 49.835938 181.359375 50.1875 181.785156 50.578125 182.175781 C 50.972656 182.570312 51.398438 182.921875 51.859375 183.230469 C 52.320312 183.539062 52.808594 183.800781 53.320312 184.011719 C 53.835938 184.222656 54.363281 184.386719 54.90625 184.492188 C 55.453125 184.601562 56.003906 184.65625 56.558594 184.65625 L 126.648438 184.65625 C 127.207031 184.65625 127.753906 184.601562 128.300781 184.492188 C 128.84375 184.386719 129.375 184.222656 129.886719 184.011719 C 130.398438 183.800781 130.886719 183.539062 131.347656 183.230469 C 131.808594 182.921875 132.238281 182.570312 132.628906 182.175781 C 133.023438 181.785156 133.371094 181.359375 133.679688 180.894531 C 133.988281 180.433594 134.25 179.949219 134.464844 179.433594 C 134.675781 178.921875 134.835938 178.394531 134.945312 177.847656 C 135.054688 177.304688 135.109375 176.753906 135.109375 176.199219 L 135.109375 156.863281 C 135.109375 156.308594 135.054688 155.757812 134.945312 155.214844 C 134.835938 154.667969 134.675781 154.140625 134.464844 153.628906 C 134.25 153.113281 133.988281 152.625 133.679688 152.164062 C 133.371094 151.703125 133.023438 151.277344 132.628906 150.882812 C 132.238281 150.492188 131.808594 150.140625 131.347656 149.832031 C 130.886719 149.523438 130.398438 149.261719 129.886719 149.050781 C 129.375 148.835938 128.84375 148.675781 128.300781 148.566406 C 127.753906 148.457031 127.207031 148.402344 126.648438 148.402344 Z M 127.859375 176.199219 C 127.859375 176.359375 127.828125 176.511719 127.765625 176.660156 C 127.707031 176.808594 127.617188 176.941406 127.503906 177.054688 C 127.390625 177.167969 127.261719 177.253906 127.113281 177.316406 C 126.964844 177.375 126.8125 177.40625 126.648438 177.40625 L 56.558594 177.40625 C 56.398438 177.40625 56.242188 177.375 56.09375 177.316406 C 55.945312 177.253906 55.816406 177.167969 55.703125 177.054688 C 55.589844 176.941406 55.503906 176.808594 55.441406 176.660156 C 55.378906 176.511719 55.347656 176.359375 55.347656 176.199219 L 55.347656 156.863281 C 55.347656 156.703125 55.378906 156.546875 55.441406 156.398438 C 55.503906 156.253906 55.589844 156.121094 55.703125 156.007812 C 55.816406 155.894531 55.945312 155.808594 56.09375 155.746094 C 56.242188 155.683594 56.398438 155.652344 56.558594 155.652344 L 126.648438 155.652344 C 126.8125 155.652344 126.964844 155.683594 127.113281 155.746094 C 127.261719 155.808594 127.390625 155.894531 127.503906 156.007812 C 127.617188 156.121094 127.707031 156.253906 127.765625 156.398438 C 127.828125 156.546875 127.859375 156.703125 127.859375 156.863281 Z M 127.859375 176.199219"/><path fill="#282C34" d="M 56.558594 136.316406 L 75.894531 136.316406 C 76.449219 136.316406 77 136.261719 77.542969 136.152344 C 78.085938 136.046875 78.617188 135.882812 79.128906 135.671875 C 79.640625 135.460938 80.128906 135.199219 80.589844 134.890625 C 81.050781 134.582031 81.480469 134.230469 81.871094 133.835938 C 82.265625 133.445312 82.617188 133.019531 82.925781 132.554688 C 83.234375 132.09375 83.492188 131.609375 83.707031 131.09375 C 83.917969 130.582031 84.082031 130.054688 84.1875 129.507812 C 84.296875 128.964844 84.351562 128.414062 84.351562 127.859375 L 84.351562 104.898438 C 84.351562 104.34375 84.296875 103.792969 84.1875 103.246094 C 84.082031 102.703125 83.917969 102.175781 83.707031 101.660156 C 83.492188 101.148438 83.234375 100.660156 82.925781 100.199219 C 82.617188 99.738281 82.265625 99.3125 81.871094 98.917969 C 81.480469 98.527344 81.050781 98.175781 80.589844 97.867188 C 80.128906 97.558594 79.640625 97.296875 79.128906 97.085938 C 78.617188 96.871094 78.085938 96.710938 77.542969 96.601562 C 77 96.492188 76.449219 96.4375 75.894531 96.4375 L 56.558594 96.4375 C 56.003906 96.4375 55.453125 96.492188 54.90625 96.601562 C 54.363281 96.710938 53.835938 96.871094 53.320312 97.085938 C 52.808594 97.296875 52.320312 97.558594 51.859375 97.867188 C 51.398438 98.175781 50.972656 98.527344 50.578125 98.917969 C 50.1875 99.3125 49.835938 99.738281 49.527344 100.199219 C 49.21875 100.660156 48.957031 101.148438 48.746094 101.660156 C 48.53125 102.175781 48.371094 102.703125 48.261719 103.246094 C 48.152344 103.792969 48.097656 104.34375 48.097656 104.898438 L 48.097656 127.859375 C 48.097656 128.414062 48.152344 128.964844 48.261719 129.507812 C 48.371094 130.054688 48.53125 130.582031 48.746094 131.09375 C 48.957031 131.609375 49.21875 132.09375 49.527344 132.554688 C 49.835938 133.019531 50.1875 133.445312 50.578125 133.835938 C 50.972656 134.230469 51.398438 134.582031 51.859375 134.890625 C 52.320312 135.199219 52.808594 135.460938 53.320312 135.671875 C 53.835938 135.882812 54.363281 136.046875 54.90625 136.152344 C 55.453125 136.261719 56.003906 136.316406 56.558594 136.316406 Z M 55.347656 104.898438 C 55.347656 104.738281 55.378906 104.582031 55.441406 104.433594 C 55.503906 104.285156 55.589844 104.15625 55.703125 104.042969 C 55.816406 103.929688 55.945312 103.84375 56.09375 103.78125 C 56.242188 103.71875 56.398438 103.6875 56.558594 103.6875 L 75.894531 103.6875 C 76.054688 103.6875 76.207031 103.71875 76.355469 103.78125 C 76.503906 103.84375 76.636719 103.929688 76.75 104.042969 C 76.863281 104.15625 76.949219 104.285156 77.011719 104.433594 C 77.070312 104.582031 77.101562 104.738281 77.101562 104.898438 L 77.101562 127.859375 C 77.101562 128.019531 77.070312 128.171875 77.011719 128.320312 C 76.949219 128.46875 76.863281 128.601562 76.75 128.714844 C 76.636719 128.828125 76.503906 128.914062 76.355469 128.976562 C 76.207031 129.035156 76.054688 129.066406 75.894531 129.066406 L 56.558594 129.066406 C 56.398438 129.066406 56.242188 129.035156 56.09375 128.976562 C 55.945312 128.914062 55.816406 128.828125 55.703125 128.714844 C 55.589844 128.601562 55.503906 128.46875 55.441406 128.320312 C 55.378906 128.171875 55.347656 128.019531 55.347656 127.859375 Z M 55.347656 104.898438"/><path fill="#282C34" d="M 126.648438 96.4375 L 107.3125 96.4375 C 106.757812 96.4375 106.210938 96.492188 105.664062 96.601562 C 105.121094 96.710938 104.589844 96.871094 104.078125 97.085938 C 103.566406 97.296875 103.078125 97.558594 102.617188 97.867188 C 102.15625 98.175781 101.726562 98.527344 101.335938 98.917969 C 100.941406 99.3125 100.59375 99.738281 100.285156 100.199219 C 99.976562 100.660156 99.714844 101.148438 99.5 101.660156 C 99.289062 102.175781 99.128906 102.703125 99.019531 103.246094 C 98.910156 103.792969 98.855469 104.34375 98.855469 104.898438 L 98.855469 127.859375 C 98.855469 128.414062 98.910156 128.964844 99.019531 129.507812 C 99.128906 130.054688 99.289062 130.582031 99.5 131.09375 C 99.714844 131.609375 99.976562 132.09375 100.285156 132.554688 C 100.59375 133.019531 100.941406 133.445312 101.335938 133.835938 C 101.726562 134.230469 102.15625 134.582031 102.617188 134.890625 C 103.078125 135.199219 103.566406 135.460938 104.078125 135.671875 C 104.589844 135.882812 105.121094 136.046875 105.664062 136.152344 C 106.210938 136.261719 106.757812 136.316406 107.3125 136.316406 L 126.648438 136.316406 C 127.207031 136.316406 127.753906 136.261719 128.300781 136.152344 C 128.84375 136.046875 129.375 135.882812 129.886719 135.671875 C 130.398438 135.460938 130.886719 135.199219 131.347656 134.890625 C 131.808594 134.582031 132.238281 134.230469 132.628906 133.835938 C 133.023438 133.445312 133.371094 133.019531 133.679688 132.554688 C 133.988281 132.09375 134.25 131.609375 134.464844 131.09375 C 134.675781 130.582031 134.835938 130.054688 134.945312 129.507812 C 135.054688 128.964844 135.109375 128.414062 135.109375 127.859375 L 135.109375 104.898438 C 135.109375 104.34375 135.054688 103.792969 134.945312 103.246094 C 134.835938 102.703125 134.675781 102.175781 134.464844 101.660156 C 134.25 101.148438 133.988281 100.660156 133.679688 100.199219 C 133.371094 99.738281 133.023438 99.3125 132.628906 98.917969 C 132.238281 98.527344 131.808594 98.175781 131.347656 97.867188 C 130.886719 97.558594 130.398438 97.296875 129.886719 97.085938 C 129.375 96.871094 128.84375 96.710938 128.300781 96.601562 C 127.753906 96.492188 127.207031 96.4375 126.648438 96.4375 Z M 127.859375 127.859375 C 127.859375 128.019531 127.828125 128.171875 127.765625 128.320312 C 127.707031 128.46875 127.617188 128.601562 127.503906 128.714844 C 127.390625 128.828125 127.261719 128.914062 127.113281 128.976562 C 126.964844 129.035156 126.8125 129.066406 126.648438 129.066406 L 107.3125 129.066406 C 107.152344 129.066406 107 129.035156 106.851562 128.976562 C 106.703125 128.914062 106.574219 128.828125 106.460938 128.714844 C 106.347656 128.601562 106.257812 128.46875 106.199219 128.320312 C 106.136719 128.171875 106.105469 128.019531 106.105469 127.859375 L 106.105469 104.898438 C 106.105469 104.738281 106.136719 104.582031 106.199219 104.433594 C 106.257812 104.285156 106.347656 104.15625 106.460938 104.042969 C 106.574219 103.929688 106.703125 103.84375 106.851562 103.78125 C 107 103.71875 107.152344 103.6875 107.3125 103.6875 L 126.648438 103.6875 C 126.8125 103.6875 126.964844 103.71875 127.113281 103.78125 C 127.261719 103.84375 127.390625 103.929688 127.503906 104.042969 C 127.617188 104.15625 127.707031 104.285156 127.765625 104.433594 C 127.828125 104.582031 127.859375 104.738281 127.859375 104.898438 Z M 127.859375 127.859375"/><path fill="#282C34" d="M 56.558594 84.351562 L 177.40625 84.351562 C 177.960938 84.351562 178.511719 84.296875 179.058594 84.1875 C 179.601562 84.078125 180.128906 83.917969 180.644531 83.707031 C 181.15625 83.492188 181.644531 83.234375 182.105469 82.925781 C 182.566406 82.617188 182.992188 82.265625 183.386719 81.871094 C 183.777344 81.480469 184.128906 81.050781 184.4375 80.589844 C 184.746094 80.128906 185.007812 79.640625 185.21875 79.128906 C 185.433594 78.617188 185.59375 78.085938 185.703125 77.542969 C 185.8125 77 185.867188 76.449219 185.867188 75.894531 L 185.867188 46.890625 C 185.867188 46.335938 185.8125 45.785156 185.703125 45.238281 C 185.59375 44.695312 185.433594 44.167969 185.21875 43.652344 C 185.007812 43.140625 184.746094 42.652344 184.4375 42.191406 C 184.128906 41.730469 183.777344 41.304688 183.386719 40.910156 C 182.992188 40.519531 182.566406 40.167969 182.105469 39.859375 C 181.644531 39.550781 181.15625 39.289062 180.644531 39.078125 C 180.128906 38.863281 179.601562 38.703125 179.058594 38.59375 C 178.511719 38.484375 177.960938 38.429688 177.40625 38.429688 L 56.558594 38.429688 C 56.003906 38.429688 55.453125 38.484375 54.90625 38.59375 C 54.363281 38.703125 53.835938 38.863281 53.320312 39.078125 C 52.808594 39.289062 52.320312 39.550781 51.859375 39.859375 C 51.398438 40.167969 50.972656 40.519531 50.578125 40.910156 C 50.1875 41.304688 49.835938 41.730469 49.527344 42.191406 C 49.21875 42.652344 48.957031 43.140625 48.746094 43.652344 C 48.53125 44.167969 48.371094 44.695312 48.261719 45.238281 C 48.152344 45.785156 48.097656 46.335938 48.097656 46.890625 L 48.097656 75.894531 C 48.097656 76.449219 48.152344 77 48.261719 77.542969 C 48.371094 78.085938 48.53125 78.617188 48.746094 79.128906 C 48.957031 79.640625 49.21875 80.128906 49.527344 80.589844 C 49.835938 81.050781 50.1875 81.480469 50.578125 81.871094 C 50.972656 82.265625 51.398438 82.617188 51.859375 82.925781 C 52.320312 83.234375 52.808594 83.492188 53.320312 83.707031 C 53.835938 83.917969 54.363281 84.078125 54.90625 84.1875 C 55.453125 84.296875 56.003906 84.351562 56.558594 84.351562 Z M 55.347656 46.890625 C 55.347656 46.730469 55.378906 46.574219 55.441406 46.425781 C 55.503906 46.277344 55.589844 46.148438 55.703125 46.035156 C 55.816406 45.921875 55.945312 45.835938 56.09375 45.773438 C 56.242188 45.710938 56.398438 45.679688 56.558594 45.679688 L 177.40625 45.679688 C 177.566406 45.679688 177.722656 45.710938 177.871094 45.773438 C 178.019531 45.835938 178.148438 45.921875 178.261719 46.035156 C 178.375 46.148438 178.460938 46.277344 178.523438 46.425781 C 178.585938 46.574219 178.617188 46.730469 178.617188 46.890625 L 178.617188 75.894531 C 178.617188 76.054688 178.585938 76.207031 178.523438 76.355469 C 178.460938 76.503906 178.375 76.636719 178.261719 76.75 C 178.148438 76.863281 178.019531 76.949219 177.871094 77.011719 C 177.722656 77.070312 177.566406 77.101562 177.40625 77.101562 L 56.558594 77.101562 C 56.398438 77.101562 56.242188 77.070312 56.09375 77.011719 C 55.945312 76.949219 55.816406 76.863281 55.703125 76.75 C 55.589844 76.636719 55.503906 76.503906 55.441406 76.355469 C 55.378906 76.207031 55.347656 76.054688 55.347656 75.894531 Z M 55.347656 46.890625"/><g clip-path="url(#a)"><path fill="#282C34" d="M 239.039062 96.4375 L 205.445312 96.4375 L 205.445312 8.460938 C 205.445312 7.902344 205.390625 7.355469 205.28125 6.808594 C 205.171875 6.265625 205.011719 5.738281 204.796875 5.222656 C 204.585938 4.710938 204.324219 4.222656 204.015625 3.761719 C 203.707031 3.300781 203.355469 2.875 202.964844 2.480469 C 202.570312 2.089844 202.144531 1.738281 201.683594 1.429688 C 201.222656 1.121094 200.734375 0.859375 200.21875 0.648438 C 199.707031 0.433594 199.179688 0.273438 198.632812 0.164062 C 198.089844 0.0546875 197.539062 0 196.984375 0 L 37.464844 0 C 36.90625 0 36.359375 0.0546875 35.8125 0.164062 C 35.269531 0.273438 34.742188 0.433594 34.226562 0.648438 C 33.714844 0.859375 33.226562 1.121094 32.765625 1.429688 C 32.304688 1.738281 31.878906 2.089844 31.484375 2.480469 C 31.09375 2.875 30.742188 3.300781 30.433594 3.761719 C 30.125 4.222656 29.863281 4.710938 29.652344 5.222656 C 29.4375 5.738281 29.277344 6.265625 29.167969 6.808594 C 29.058594 7.355469 29.003906 7.902344 29.003906 8.460938 L 29.003906 196.742188 L 8.460938 196.742188 C 7.902344 196.742188 7.355469 196.796875 6.808594 196.90625 C 6.265625 197.015625 5.738281 197.175781 5.222656 197.390625 C 4.710938 197.601562 4.222656 197.863281 3.761719 198.171875 C 3.300781 198.480469 2.875 198.832031 2.480469 199.222656 C 2.089844 199.617188 1.738281 200.042969 1.429688 200.503906 C 1.121094 200.964844 0.859375 201.453125 0.648438 201.96875 C 0.433594 202.480469 0.273438 203.007812 0.164062 203.554688 C 0.0546875 204.097656 0 204.648438 0 205.203125 L 0 229.371094 C 0 229.964844 0.03125 230.558594 0.0898438 231.148438 C 0.148438 231.738281 0.234375 232.324219 0.351562 232.90625 C 0.46875 233.488281 0.613281 234.066406 0.785156 234.632812 C 0.957031 235.199219 1.15625 235.757812 1.386719 236.308594 C 1.613281 236.855469 1.867188 237.390625 2.144531 237.914062 C 2.425781 238.4375 2.730469 238.945312 3.0625 239.4375 C 3.390625 239.933594 3.742188 240.410156 4.121094 240.867188 C 4.496094 241.324219 4.894531 241.765625 5.316406 242.183594 C 5.734375 242.605469 6.175781 243.003906 6.632812 243.378906 C 7.089844 243.757812 7.566406 244.109375 8.0625 244.4375 C 8.554688 244.769531 9.0625 245.074219 9.585938 245.355469 C 10.109375 245.632812 10.644531 245.886719 11.195312 246.113281 C 11.742188 246.34375 12.300781 246.542969 12.867188 246.714844 C 13.433594 246.886719 14.011719 247.03125 14.59375 247.148438 C 15.175781 247.265625 15.761719 247.351562 16.351562 247.410156 C 16.941406 247.46875 17.535156 247.5 18.128906 247.5 L 187.316406 247.5 C 187.910156 247.5 188.503906 247.46875 189.09375 247.410156 C 189.683594 247.351562 190.269531 247.265625 190.851562 247.148438 C 191.433594 247.03125 192.007812 246.886719 192.578125 246.714844 C 193.144531 246.542969 193.703125 246.34375 194.25 246.113281 C 194.800781 245.886719 195.335938 245.632812 195.859375 245.355469 C 196.382812 245.074219 196.890625 244.769531 197.382812 244.4375 C 197.875 244.109375 198.351562 243.757812 198.8125 243.378906 C 199.269531 243.003906 199.710938 242.605469 200.128906 242.183594 C 200.550781 241.765625 200.945312 241.324219 201.324219 240.867188 C 201.699219 240.410156 202.054688 239.933594 202.382812 239.4375 C 202.714844 238.945312 203.019531 238.4375 203.296875 237.914062 C 203.578125 237.390625 203.832031 236.855469 204.058594 236.308594 C 204.285156 235.757812 204.488281 235.199219 204.660156 234.632812 C 204.832031 234.066406 204.976562 233.488281 205.09375 232.90625 C 205.210938 232.324219 205.296875 231.738281 205.355469 231.148438 C 205.414062 230.558594 205.445312 229.964844 205.445312 229.371094 L 205.445312 166.53125 L 239.039062 166.53125 C 239.597656 166.53125 240.144531 166.476562 240.691406 166.367188 C 241.234375 166.257812 241.761719 166.097656 242.277344 165.882812 C 242.789062 165.671875 243.277344 165.410156 243.738281 165.101562 C 244.199219 164.792969 244.625 164.441406 245.019531 164.050781 C 245.410156 163.65625 245.761719 163.230469 246.070312 162.769531 C 246.378906 162.308594 246.640625 161.820312 246.851562 161.308594 C 247.066406 160.792969 247.226562 160.265625 247.335938 159.722656 C 247.445312 159.175781 247.5 158.625 247.5 158.070312 L 247.5 104.898438 C 247.5 104.34375 247.445312 103.792969 247.335938 103.246094 C 247.226562 102.703125 247.066406 102.175781 246.851562 101.660156 C 246.640625 101.148438 246.378906 100.660156 246.070312 100.199219 C 245.761719 99.738281 245.410156 99.3125 245.019531 98.917969 C 244.625 98.527344 244.199219 98.175781 243.738281 97.867188 C 243.277344 97.558594 242.789062 97.296875 242.277344 97.085938 C 241.761719 96.871094 241.234375 96.710938 240.691406 96.601562 C 240.144531 96.492188 239.597656 96.4375 239.039062 96.4375 Z M 37.464844 7.25 L 196.984375 7.25 C 197.144531 7.25 197.300781 7.28125 197.449219 7.34375 C 197.59375 7.402344 197.726562 7.492188 197.839844 7.605469 C 197.953125 7.71875 198.039062 7.847656 198.101562 7.996094 C 198.164062 8.144531 198.191406 8.300781 198.191406 8.460938 L 198.191406 19.335938 L 36.253906 19.335938 L 36.253906 8.460938 C 36.253906 8.300781 36.285156 8.144531 36.347656 7.996094 C 36.40625 7.847656 36.496094 7.71875 36.609375 7.605469 C 36.722656 7.492188 36.851562 7.402344 37 7.34375 C 37.148438 7.28125 37.304688 7.25 37.464844 7.25 Z M 18.128906 240.25 C 17.414062 240.25 16.707031 240.179688 16.007812 240.039062 C 15.304688 239.898438 14.625 239.691406 13.964844 239.417969 C 13.308594 239.144531 12.679688 238.808594 12.085938 238.414062 C 11.492188 238.015625 10.945312 237.566406 10.4375 237.0625 C 9.933594 236.554688 9.484375 236.007812 9.085938 235.414062 C 8.691406 234.820312 8.355469 234.191406 8.082031 233.535156 C 7.808594 232.875 7.601562 232.195312 7.460938 231.492188 C 7.320312 230.792969 7.25 230.085938 7.25 229.371094 L 7.25 205.203125 C 7.25 205.042969 7.28125 204.886719 7.34375 204.738281 C 7.40625 204.59375 7.492188 204.460938 7.605469 204.347656 C 7.71875 204.234375 7.847656 204.148438 7.996094 204.085938 C 8.144531 204.023438 8.300781 203.992188 8.460938 203.992188 L 167.980469 203.992188 C 168.140625 203.992188 168.296875 204.023438 168.445312 204.085938 C 168.589844 204.148438 168.722656 204.234375 168.835938 204.347656 C 168.949219 204.460938 169.035156 204.59375 169.097656 204.738281 C 169.160156 204.886719 169.1875 205.042969 169.1875 205.203125 L 169.1875 229.371094 C 169.1875 231.335938 169.496094 233.246094 170.121094 235.109375 C 170.742188 236.96875 171.644531 238.683594 172.824219 240.25 Z M 198.191406 229.371094 C 198.191406 230.085938 198.125 230.792969 197.984375 231.496094 C 197.84375 232.195312 197.640625 232.875 197.367188 233.535156 C 197.09375 234.195312 196.757812 234.820312 196.359375 235.414062 C 195.964844 236.007812 195.511719 236.558594 195.007812 237.0625 C 194.503906 237.566406 193.953125 238.019531 193.359375 238.414062 C 192.765625 238.8125 192.140625 239.148438 191.480469 239.421875 C 190.820312 239.695312 190.140625 239.902344 189.4375 240.039062 C 188.738281 240.179688 188.03125 240.25 187.316406 240.25 C 186.601562 240.25 185.894531 240.179688 185.195312 240.039062 C 184.496094 239.902344 183.8125 239.695312 183.15625 239.421875 C 182.496094 239.148438 181.867188 238.8125 181.273438 238.414062 C 180.679688 238.019531 180.132812 237.566406 179.625 237.0625 C 179.121094 236.558594 178.671875 236.007812 178.273438 235.414062 C 177.875 234.820312 177.542969 234.195312 177.269531 233.535156 C 176.996094 232.875 176.789062 232.195312 176.648438 231.496094 C 176.511719 230.792969 176.441406 230.085938 176.441406 229.371094 L 176.441406 205.203125 C 176.441406 204.648438 176.386719 204.097656 176.277344 203.554688 C 176.167969 203.007812 176.007812 202.480469 175.792969 201.96875 C 175.582031 201.453125 175.320312 200.964844 175.011719 200.503906 C 174.703125 200.042969 174.351562 199.617188 173.960938 199.222656 C 173.566406 198.832031 173.140625 198.480469 172.679688 198.171875 C 172.21875 197.863281 171.730469 197.601562 171.214844 197.390625 C 170.703125 197.175781 170.175781 197.015625 169.628906 196.90625 C 169.085938 196.796875 168.535156 196.742188 167.980469 196.742188 L 36.253906 196.742188 L 36.253906 26.585938 L 198.191406 26.585938 L 198.191406 96.4375 L 156.863281 96.4375 C 156.308594 96.4375 155.757812 96.492188 155.214844 96.601562 C 154.667969 96.710938 154.140625 96.871094 153.628906 97.085938 C 153.113281 97.296875 152.625 97.558594 152.164062 97.867188 C 151.703125 98.175781 151.277344 98.527344 150.882812 98.917969 C 150.492188 99.3125 150.140625 99.738281 149.832031 100.199219 C 149.523438 100.660156 149.261719 101.148438 149.050781 101.660156 C 148.835938 102.175781 148.675781 102.703125 148.566406 103.246094 C 148.457031 103.792969 148.402344 104.34375 148.402344 104.898438 L 148.402344 175.40625 C 148.402344 176.441406 148.550781 177.457031 148.847656 178.453125 C 149.148438 179.445312 149.585938 180.375 150.160156 181.234375 C 150.734375 182.097656 151.425781 182.859375 152.226562 183.519531 C 153.027344 184.175781 153.90625 184.703125 154.867188 185.101562 C 155.824219 185.496094 156.820312 185.746094 157.851562 185.84375 C 158.886719 185.945312 159.910156 185.894531 160.925781 185.6875 C 161.945312 185.484375 162.910156 185.136719 163.824219 184.644531 C 164.734375 184.152344 165.558594 183.539062 166.289062 182.800781 L 182.558594 166.53125 L 198.191406 166.53125 Z M 240.25 158.070312 C 240.25 158.230469 240.21875 158.386719 240.15625 158.535156 C 240.09375 158.683594 240.007812 158.8125 239.894531 158.925781 C 239.78125 159.039062 239.652344 159.125 239.503906 159.1875 C 239.355469 159.25 239.199219 159.28125 239.039062 159.28125 L 166.53125 159.28125 C 166.050781 159.28125 165.585938 159.371094 165.144531 159.554688 C 164.699219 159.738281 164.308594 160 163.96875 160.339844 C 163.628906 160.679688 163.363281 161.074219 163.179688 161.519531 C 162.996094 161.960938 162.90625 162.425781 162.90625 162.90625 C 162.90625 163.386719 162.996094 163.847656 163.179688 164.292969 C 163.363281 164.738281 163.628906 165.128906 163.96875 165.46875 C 164.308594 165.808594 164.699219 166.070312 165.144531 166.253906 C 165.585938 166.4375 166.050781 166.53125 166.53125 166.53125 L 172.277344 166.53125 L 161.136719 177.671875 C 160.675781 178.132812 160.128906 178.425781 159.492188 178.554688 C 158.855469 178.679688 158.238281 178.621094 157.636719 178.371094 C 157.039062 178.125 156.558594 177.730469 156.195312 177.191406 C 155.835938 176.648438 155.652344 176.054688 155.652344 175.40625 L 155.652344 104.898438 C 155.652344 104.738281 155.683594 104.582031 155.746094 104.433594 C 155.808594 104.285156 155.894531 104.15625 156.007812 104.042969 C 156.121094 103.929688 156.253906 103.84375 156.398438 103.78125 C 156.546875 103.71875 156.703125 103.6875 156.863281 103.6875 L 239.039062 103.6875 C 239.199219 103.6875 239.355469 103.71875 239.503906 103.78125 C 239.652344 103.84375 239.78125 103.929688 239.894531 104.042969 C 240.007812 104.15625 240.09375 104.285156 240.15625 104.433594 C 240.21875 104.582031 240.25 104.738281 240.25 104.898438 Z M 240.25 158.070312"/></g><path fill="#282C34" d="M 224.539062 139.945312 L 171.363281 139.945312 C 170.882812 139.945312 170.421875 140.035156 169.976562 140.21875 C 169.53125 140.402344 169.140625 140.664062 168.800781 141.003906 C 168.460938 141.34375 168.199219 141.738281 168.015625 142.183594 C 167.832031 142.625 167.738281 143.089844 167.738281 143.570312 C 167.738281 144.050781 167.832031 144.511719 168.015625 144.957031 C 168.199219 145.402344 168.460938 145.792969 168.800781 146.132812 C 169.140625 146.472656 169.53125 146.734375 169.976562 146.917969 C 170.421875 147.101562 170.882812 147.195312 171.363281 147.195312 L 224.539062 147.195312 C 225.019531 147.195312 225.480469 147.101562 225.925781 146.917969 C 226.371094 146.734375 226.761719 146.472656 227.101562 146.132812 C 227.441406 145.792969 227.703125 145.402344 227.886719 144.957031 C 228.070312 144.511719 228.164062 144.050781 228.164062 143.570312 C 228.164062 143.089844 228.070312 142.625 227.886719 142.183594 C 227.703125 141.738281 227.441406 141.34375 227.101562 141.003906 C 226.761719 140.664062 226.371094 140.402344 225.925781 140.21875 C 225.480469 140.035156 225.019531 139.945312 224.539062 139.945312 Z M 224.539062 139.945312"/><path fill="#282C34" d="M 171.363281 123.023438 L 173.867188 123.023438 C 174.347656 123.023438 174.8125 122.933594 175.257812 122.75 C 175.699219 122.566406 176.09375 122.304688 176.433594 121.964844 C 176.773438 121.625 177.035156 121.230469 177.21875 120.785156 C 177.402344 120.34375 177.496094 119.878906 177.496094 119.398438 C 177.496094 118.917969 177.402344 118.457031 177.21875 118.011719 C 177.035156 117.566406 176.773438 117.175781 176.433594 116.835938 C 176.09375 116.496094 175.699219 116.234375 175.257812 116.050781 C 174.8125 115.867188 174.347656 115.773438 173.867188 115.773438 L 171.363281 115.773438 C 170.882812 115.773438 170.421875 115.867188 169.976562 116.050781 C 169.53125 116.234375 169.140625 116.496094 168.800781 116.835938 C 168.460938 117.175781 168.199219 117.566406 168.015625 118.011719 C 167.832031 118.457031 167.738281 118.917969 167.738281 119.398438 C 167.738281 119.878906 167.832031 120.34375 168.015625 120.785156 C 168.199219 121.230469 168.460938 121.625 168.800781 121.964844 C 169.140625 122.304688 169.53125 122.566406 169.976562 122.75 C 170.421875 122.933594 170.882812 123.023438 171.363281 123.023438 Z M 171.363281 123.023438"/><path fill="#282C34" d="M 224.539062 115.773438 L 189.492188 115.773438 C 189.011719 115.773438 188.550781 115.867188 188.105469 116.050781 C 187.660156 116.234375 187.269531 116.496094 186.929688 116.835938 C 186.589844 117.175781 186.328125 117.566406 186.144531 118.011719 C 185.957031 118.457031 185.867188 118.917969 185.867188 119.398438 C 185.867188 119.878906 185.957031 120.34375 186.144531 120.785156 C 186.328125 121.230469 186.589844 121.625 186.929688 121.964844 C 187.269531 122.304688 187.660156 122.566406 188.105469 122.75 C 188.550781 122.933594 189.011719 123.023438 189.492188 123.023438 L 224.539062 123.023438 C 225.019531 123.023438 225.480469 122.933594 225.925781 122.75 C 226.371094 122.566406 226.761719 122.304688 227.101562 121.964844 C 227.441406 121.625 227.703125 121.230469 227.886719 120.785156 C 228.070312 120.34375 228.164062 119.878906 228.164062 119.398438 C 228.164062 118.917969 228.070312 118.457031 227.886719 118.011719 C 227.703125 117.566406 227.441406 117.175781 227.101562 116.835938 C 226.761719 116.496094 226.371094 116.234375 225.925781 116.050781 C 225.480469 115.867188 225.019531 115.773438 224.539062 115.773438 Z M 224.539062 115.773438"/></svg>