<svg xmlns="http://www.w3.org/2000/svg" width="247.5" viewBox="0 0 247.5 247.5" height="247.5" version="1.0"><defs><clipPath id="a"><path d="M 42 16 L 206 16 L 206 247 L 42 247 Z M 42 16"/></clipPath><clipPath id="b"><path d="M 213 27 L 247 27 L 247 186 L 213 186 Z M 213 27"/></clipPath></defs><path fill="#282C34" d="M 33.828125 212.738281 L 33.828125 54.726562 L 0.394531 62.148438 Z M 33.828125 212.738281"/><path fill="#282C34" d="M 88.253906 -0.0351562 L 86.535156 7.703125 L 123.09375 7.703125 Z M 88.253906 -0.0351562"/><path fill="#282C34" d="M 126.253906 89.0625 L 164.792969 50.523438 C 165.941406 49.378906 166.570312 47.859375 166.570312 46.246094 C 166.570312 44.628906 165.941406 43.105469 164.792969 41.964844 L 162.289062 39.453125 C 160 37.164062 156.011719 37.164062 153.722656 39.453125 L 113.9375 79.242188 C 113.128906 80.046875 112.042969 80.492188 110.910156 80.492188 L 106.625 80.492188 C 105.488281 80.492188 104.398438 80.042969 103.59375 79.242188 L 96.285156 71.929688 L 86.988281 71.929688 L 104.117188 89.058594 L 126.253906 89.058594 Z M 126.253906 89.0625"/><path fill="#282C34" d="M 132.679688 48.382812 L 117.691406 33.398438 L 108.394531 33.398438 L 128.03125 53.03125 Z M 132.679688 48.382812"/><g clip-path="url(#a)"><path fill="#282C34" d="M 42.390625 247.5 L 205.109375 247.5 L 205.109375 16.273438 L 42.390625 16.273438 Z M 187.976562 196.113281 L 59.519531 196.113281 L 59.519531 187.546875 L 187.976562 187.546875 Z M 170.847656 170.425781 L 170.847656 178.988281 L 76.648438 178.988281 L 76.648438 170.425781 Z M 76.648438 161.855469 L 76.648438 153.292969 L 170.851562 153.292969 L 170.851562 161.855469 Z M 72.691406 66.015625 C 73.351562 64.414062 74.914062 63.375 76.648438 63.375 L 98.058594 63.375 C 99.191406 63.375 100.285156 63.824219 101.085938 64.625 L 108.394531 71.933594 L 109.125 71.933594 L 121.972656 59.085938 L 95.027344 32.140625 C 93.800781 30.917969 93.433594 29.074219 94.097656 27.472656 C 94.761719 25.875 96.324219 24.835938 98.058594 24.835938 L 119.46875 24.835938 C 120.605469 24.835938 121.695312 25.285156 122.5 26.085938 L 138.742188 42.328125 L 147.664062 33.398438 C 153.199219 27.875 162.820312 27.878906 168.34375 33.398438 L 170.851562 35.90625 C 173.613281 38.671875 175.132812 42.335938 175.132812 46.246094 C 175.132812 50.152344 173.613281 53.820312 170.851562 56.585938 L 131.0625 96.375 C 130.257812 97.179688 129.171875 97.625 128.03125 97.625 L 102.339844 97.625 C 101.199219 97.625 100.113281 97.175781 99.308594 96.375 L 73.617188 70.683594 C 72.394531 69.453125 72.027344 67.613281 72.691406 66.015625 Z M 59.519531 110.476562 C 59.519531 108.109375 61.433594 106.195312 63.800781 106.195312 L 183.699219 106.195312 C 186.066406 106.195312 187.980469 108.109375 187.980469 110.476562 L 187.980469 136.167969 C 187.980469 138.535156 186.066406 140.449219 183.699219 140.449219 L 63.800781 140.449219 C 61.433594 140.449219 59.519531 138.535156 59.519531 136.167969 Z M 59.519531 110.476562"/></g><g clip-path="url(#b)"><path fill="#282C34" d="M 213.671875 27.8125 L 213.671875 185.808594 L 247.101562 35.230469 Z M 213.671875 27.8125"/></g><path fill="#282C34" d="M 68.082031 114.757812 L 179.417969 114.757812 L 179.417969 131.886719 L 68.082031 131.886719 Z M 68.082031 114.757812"/></svg>