<?xml version="1.0" standalone="no"?>
<!DOCTYPE svg PUBLIC "-//W3C//DTD SVG 20010904//EN"
 "http://www.w3.org/TR/2001/REC-SVG-20010904/DTD/svg10.dtd">
<svg version="1.0" xmlns="http://www.w3.org/2000/svg"
 width="1280.000000pt" height="1280.000000pt" viewBox="0 0 1280.000000 1280.000000"
 preserveAspectRatio="xMidYMid meet">
<metadata>
Created by potrace 1.15, written by Peter Selinger 2001-2017
</metadata>
<g transform="translate(0.000000,1280.000000) scale(0.100000,-0.100000)"
fill="#282c34" stroke="none">
<path d="M6025 11649 c-22 -4 -64 -8 -93 -8 -29 -1 -83 -5 -120 -11 -37 -5
-119 -17 -182 -25 -167 -23 -580 -111 -680 -145 -14 -5 -65 -21 -115 -36 -49
-14 -94 -30 -100 -35 -5 -5 243 -10 580 -10 520 -1 582 -3 525 -15 -50 -10
-203 -13 -645 -14 -451 0 -591 -3 -630 -14 -61 -16 -226 -88 -219 -96 3 -3
168 -7 367 -10 l362 -5 -397 -3 -396 -2 -74 -34 c-217 -101 -446 -220 -470
-243 -10 -10 39 -13 242 -13 139 0 251 -2 249 -4 -9 -9 -255 -36 -432 -48
-177 -11 -179 -12 -238 -47 -32 -19 -59 -38 -59 -43 0 -4 249 -8 554 -8 l555
0 118 45 118 44 -250 1 -250 0 31 19 c18 11 35 24 38 30 5 8 104 11 309 11
295 0 305 1 410 27 59 15 107 30 107 35 0 4 -71 9 -157 11 -148 2 -144 3 54 5
164 2 231 6 300 21 194 42 460 73 798 92 352 20 716 -9 1120 -91 91 -18 138
-20 554 -20 250 0 451 -3 447 -7 -4 -4 -186 -10 -404 -13 l-397 -5 108 -29
108 -29 347 6 c298 5 835 37 849 51 7 6 -83 55 -270 147 l-182 89 -660 2 -660
3 622 5 c342 3 624 8 627 11 4 3 -49 28 -116 55 l-123 49 -780 5 c-667 4 -770
7 -708 18 52 9 244 12 709 12 369 0 634 4 628 9 -8 8 -128 47 -214 71 -19 5
-73 20 -120 34 -102 29 -287 69 -425 91 -55 8 -125 19 -155 24 -30 5 -107 14
-170 21 -63 6 -151 15 -195 20 -96 12 -693 11 -750 -1z m1155 -102 c-28 -6
-372 -11 -895 -12 -738 -2 -827 -1 -675 10 223 15 1638 18 1570 2z m-833 -173
c-3 -3 -12 -4 -19 -1 -8 3 -5 6 6 6 11 1 17 -2 13 -5z m1 -151 c-159 -2 -417
-2 -575 0 -159 1 -29 2 287 2 316 0 446 -1 288 -2z"/>
<path d="M7986 10856 c17 -8 71 -28 120 -45 l89 -31 555 2 554 3 -65 43 -65
42 -610 0 c-523 -1 -605 -3 -578 -14z"/>
<path d="M3426 10743 l-39 -28 529 -3 c522 -2 530 -2 584 19 30 12 59 26 65
31 5 4 -241 8 -546 8 l-554 0 -39 -27z"/>
<path d="M8279 10740 l64 -30 536 0 536 0 -45 30 -45 30 -555 -1 -555 0 64
-29z"/>
<path d="M3360 10693 c-8 -3 -44 -27 -80 -54 -36 -26 -86 -62 -112 -81 -25
-18 -103 -82 -173 -143 l-127 -110 423 -3 423 -2 51 31 c177 112 217 136 275
166 36 18 83 44 105 58 22 14 86 48 143 77 56 28 102 55 102 59 0 10 -1005 11
-1030 2z"/>
<path d="M8525 10621 c212 -111 313 -168 436 -247 l116 -74 424 2 424 3 -135
116 c-74 63 -183 150 -241 192 l-106 77 -524 0 -524 -1 130 -68z"/>
<path d="M2751 10194 c-17 -14 -31 -30 -31 -35 0 -6 155 -9 403 -7 l403 3 31
25 c18 14 32 28 32 33 1 4 -181 7 -403 7 l-404 0 -31 -26z"/>
<path d="M9200 10211 c0 -5 6 -11 14 -14 19 -7 260 -201 319 -257 l49 -45 -84
-6 c-186 -14 -345 -80 -483 -203 l-40 -35 709 -1 c390 0 707 -3 704 -6 -21
-20 -188 -27 -786 -33 l-664 -6 -35 -47 -35 -48 319 5 318 5 -340 -51 c-187
-28 -345 -56 -352 -62 -11 -11 -63 -196 -63 -224 0 -9 174 -13 823 -16 815 -3
824 -3 1076 -30 139 -15 255 -26 256 -25 4 4 -112 187 -155 246 l-35 47 -720
5 c-396 3 -715 6 -710 8 6 1 170 25 365 52 l355 50 306 0 c168 0 309 3 312 6
7 7 -5 24 -107 149 -38 47 -72 85 -77 85 -4 0 -9 6 -11 14 -5 22 -163 198
-296 329 l-119 117 -406 0 c-232 0 -407 -4 -407 -9z m498 -218 c-10 -2 -26 -2
-35 0 -10 3 -2 5 17 5 19 0 27 -2 18 -5z"/>
<path d="M2606 10050 l-71 -70 385 0 385 0 77 63 c42 34 77 65 77 70 1 4 -175
7 -390 7 l-391 0 -72 -70z"/>
<path d="M2471 9903 l-60 -68 37 -7 c20 -4 182 -7 359 -7 l322 -1 37 33 37 32
-334 5 -334 5 338 3 338 2 35 26 c19 15 34 30 34 35 0 5 -165 9 -374 9 l-374
0 -61 -67z"/>
<path d="M2328 9738 c-81 -97 -101 -127 -87 -132 18 -5 527 -36 595 -36 40 0
55 5 72 23 12 13 22 26 22 30 0 4 -33 7 -72 8 -40 0 -91 4 -113 8 -30 7 -9 9
85 10 69 1 130 5 135 9 6 4 37 36 70 70 l59 62 -361 0 -361 0 -44 -52z"/>
<path d="M2104 9445 c-9 -14 -15 -27 -13 -29 2 -2 47 -8 99 -13 l95 -10 -111
-1 -111 -2 -66 -100 c-37 -55 -67 -104 -67 -110 0 -6 110 -10 314 -10 l315 0
93 120 c51 66 95 125 96 130 2 6 -9 10 -25 10 -15 0 -143 9 -283 20 -327 25
-316 26 -336 -5z"/>
<path d="M1845 9047 c-19 -35 -35 -67 -35 -70 0 -4 24 -7 53 -8 28 0 102 -6
162 -13 l110 -14 -171 -1 c-188 -1 -178 2 -217 -69 -10 -17 -15 -37 -12 -42 4
-6 121 -10 317 -10 171 0 309 -3 305 -6 -17 -17 -223 -34 -429 -34 l-227 0
-16 -29 -15 -30 38 -4 37 -4 -41 -1 c-36 -2 -42 -6 -57 -37 -9 -20 -17 -37
-17 -38 0 -1 251 -1 557 1 306 2 555 1 552 -2 -13 -13 -216 -36 -414 -46 -295
-15 -628 -46 -693 -64 -48 -13 -81 -37 -82 -59 0 -5 -11 -32 -24 -60 -14 -29
-34 -78 -45 -109 l-19 -58 288 0 288 0 11 30 c12 37 17 37 35 2 l15 -29 173
-7 c270 -10 300 -23 57 -25 -113 0 -208 -4 -211 -7 -3 -3 2 -29 12 -57 l18
-52 704 -5 703 -5 -697 -3 c-384 -1 -698 -5 -698 -9 1 -23 33 -100 47 -110 9
-7 12 -13 6 -13 -7 0 -4 -19 8 -52 10 -29 19 -54 19 -55 0 -2 222 -4 493 -4
540 -2 518 -9 -93 -29 -206 -7 -376 -14 -378 -15 -1 -1 2 -15 8 -31 l10 -29
748 3 c411 2 749 6 751 8 6 5 -60 205 -72 221 -7 10 -135 13 -556 16 l-546 2
548 3 c301 1 547 5 547 10 0 4 -16 52 -34 107 l-34 100 -249 7 c-371 11 -398
25 -50 27 l287 1 -13 33 -13 32 -625 5 -624 5 624 3 c537 2 622 4 618 16 -3 8
-11 33 -17 55 l-11 41 -567 2 -567 3 563 2 563 3 -7 23 c-14 46 -14 47 -263
50 l-236 2 241 3 242 2 -13 38 c-8 21 -10 41 -5 46 5 5 30 10 57 12 26 2 143
11 258 20 231 17 275 25 320 59 51 38 84 172 55 226 -10 18 -24 19 -243 20
-231 2 -232 2 -142 14 50 7 150 14 223 14 74 1 132 5 132 10 0 12 -46 44 -88
61 -23 9 -56 11 -110 7 -578 -47 -1499 -76 -1517 -47 -3 5 8 30 24 54 17 25
31 47 31 50 0 3 -142 6 -315 6 l-314 0 -36 -63z m1445 -93 c-111 -16 -524 -16
-650 0 -87 12 -60 13 320 13 376 0 407 -1 330 -13z m299 -138 c-2 -3 -58 -12
-124 -20 -89 -12 -209 -16 -474 -16 -195 0 -352 3 -348 6 21 21 201 32 561 33
214 0 387 -1 385 -3z m-1306 -103 c-18 -2 -48 -2 -65 0 -18 2 -4 4 32 4 36 0
50 -2 33 -4z m1127 -79 c-107 -25 -583 -66 -567 -48 4 5 40 19 80 30 64 19 96
22 287 22 118 0 208 -2 200 -4z m-980 -118 c8 -2 -57 -3 -145 -3 -140 1 -148
2 -60 6 94 6 171 4 205 -3z m-607 -83 c-45 -2 -122 -2 -170 0 -48 1 -11 3 82
3 94 0 133 -2 88 -3z"/>
<path d="M8740 9035 c0 -41 5 -106 12 -145 l12 -70 256 -2 255 -3 -253 -2
-253 -3 7 -36 c6 -34 22 -80 70 -205 l17 -46 390 -6 c215 -4 485 -7 601 -8
116 0 229 -3 251 -7 38 -7 35 -8 -55 -25 -251 -45 -282 -47 -717 -47 l-421 0
51 -95 52 -95 788 0 787 0 0 38 c0 20 -3 47 -6 59 l-6 23 -412 3 -411 2 413 3
412 2 0 30 0 30 -202 1 -203 1 115 30 c84 21 137 29 199 29 l84 -1 -6 60 c-7
79 10 79 47 1 l28 -58 162 -7 c210 -8 416 -10 422 -3 3 3 -3 26 -15 51 l-20
46 -258 2 -258 3 253 2 c138 2 252 7 252 11 0 5 -13 36 -30 70 l-30 62 -47 1
-48 1 38 8 c20 4 39 9 42 12 3 2 -35 76 -84 164 l-88 159 -599 6 c-330 4 -651
12 -714 18 -63 6 -287 11 -497 11 l-383 0 0 -75z m1253 -302 c-34 -2 -93 -2
-130 0 -37 2 -9 3 62 3 72 0 102 -1 68 -3z m775 0 c-26 -2 -71 -2 -100 0 -29
2 -8 3 47 3 55 0 79 -1 53 -3z m-865 -150 c-51 -2 -135 -2 -185 0 -51 1 -10 3
92 3 102 0 143 -2 93 -3z"/>
<path d="M4960 9035 c-19 -9 -45 -26 -57 -37 -29 -27 -63 -117 -63 -165 0 -43
39 -114 78 -141 51 -36 126 -44 537 -53 220 -5 483 -13 585 -18 285 -14 1006
-16 1155 -3 329 29 430 43 472 63 46 22 78 59 88 102 l7 27 -1053 3 -1054 2
1058 3 1057 2 0 38 c-1 49 -30 112 -68 144 -48 40 -94 52 -181 44 -183 -15
-547 -36 -796 -47 -303 -12 -956 0 -1320 25 -401 28 -407 28 -445 11z"/>
<path d="M5530 8575 c0 -2 5 -16 12 -30 l11 -25 764 0 c419 0 763 2 763 4 0 3
-4 16 -10 30 l-10 26 -765 0 c-421 0 -765 -2 -765 -5z"/>
<path d="M5560 8501 c0 -5 4 -21 10 -35 l10 -26 758 0 c417 0 761 3 765 6 3 4
0 19 -9 35 l-15 29 -759 0 c-465 0 -760 -4 -760 -9z"/>
<path d="M5590 8422 c0 -5 14 -46 30 -92 17 -46 30 -85 30 -87 0 -1 344 -3
763 -3 l764 0 -32 93 -33 92 -761 3 c-418 1 -761 -2 -761 -6z"/>
<path d="M10680 8418 c0 -7 7 -21 14 -30 12 -16 39 -18 300 -18 157 0 286 2
286 5 0 2 -5 16 -12 30 l-11 25 -289 0 c-224 0 -288 -3 -288 -12z"/>
<path d="M10717 8353 c-2 -5 6 -32 19 -60 l24 -53 286 0 c269 0 286 1 279 18
-4 9 -11 30 -16 45 -17 59 -8 57 -310 57 -153 0 -280 -3 -282 -7z"/>
<path d="M1898 8199 c-10 -5 -18 -17 -18 -24 0 -13 -33 -15 -207 -15 -115 0
-217 -3 -228 -6 -14 -4 -26 -25 -43 -77 -12 -40 -22 -75 -22 -79 0 -5 126 -8
279 -8 l279 0 10 28 c5 15 13 35 17 45 6 15 -1 17 -71 19 l-79 2 80 5 c80 6
80 6 97 41 31 68 29 75 -27 77 -27 2 -58 -2 -67 -8z"/>
<path d="M5671 8198 c0 -7 8 -33 18 -58 l19 -45 303 -5 304 -5 -302 -3 -302
-2 30 -82 c17 -46 36 -99 43 -118 l13 -35 756 -3 756 -2 -9 27 c-4 16 -16 52
-26 81 l-17 52 -536 2 -536 3 530 5 c464 4 530 7 528 20 -6 30 -47 155 -56
168 -14 18 -1517 18 -1516 0z"/>
<path d="M9040 8206 c0 -3 26 -47 58 -98 l58 -93 179 -5 180 -6 -172 -2 c-95
-1 -173 -4 -173 -6 0 -2 19 -37 43 -78 l44 -73 655 -3 655 -2 7 37 c3 21 6 57
6 81 l0 42 -217 2 -218 2 220 6 c121 3 221 7 223 8 1 1 1 44 0 95 l-3 92 -772
3 c-425 1 -773 0 -773 -2z"/>
<path d="M10780 8198 c0 -7 16 -51 34 -98 l34 -85 273 -3 c150 -1 276 1 281 6
6 6 -40 154 -57 183 -4 5 -124 9 -286 9 -217 0 -279 -3 -279 -12z"/>
<path d="M10885 7909 c17 -50 38 -95 46 -100 8 -5 9 -9 2 -9 -7 0 -9 -9 -4
-27 l7 -28 230 -6 c126 -3 251 -11 278 -18 27 -6 51 -10 53 -8 2 3 -2 22 -9
44 l-12 40 -86 6 c-47 4 -114 12 -150 19 l-65 13 143 3 c99 2 142 6 142 14 0
6 -10 42 -22 80 l-22 68 -281 0 -282 0 32 -91z"/>
<path d="M1345 7898 c-8 -28 -15 -53 -15 -55 0 -2 125 -3 278 -3 l278 0 11 33
c6 17 14 42 18 55 l6 22 -280 0 -280 0 -16 -52z"/>
<path d="M1316 7792 c-6 -10 -36 -127 -36 -141 0 -8 80 -11 274 -11 l274 0 6
23 c9 33 8 35 -16 40 l-23 4 23 2 c16 1 27 11 38 36 7 19 14 39 14 45 0 12
-546 15 -554 2z"/>
<path d="M5823 7770 l11 -30 753 0 c414 0 753 3 753 8 0 4 -3 17 -6 30 l-6 22
-758 0 -758 0 11 -30z"/>
<path d="M9295 7770 l16 -30 623 0 c560 0 624 2 630 16 18 46 47 44 -639 44
l-646 0 16 -30z"/>
<path d="M2304 7678 c3 -13 6 -26 6 -30 0 -8 1510 -11 1510 -4 0 3 -4 16 -10
30 l-10 26 -751 0 -751 0 6 -22z"/>
<path d="M5850 7695 c0 -2 5 -16 12 -30 l11 -25 753 0 753 0 -10 30 -11 30
-754 0 c-415 0 -754 -2 -754 -5z"/>
<path d="M9346 7670 l15 -30 594 0 593 0 4 30 5 30 -613 0 -612 0 14 -30z"/>
<path d="M10950 7696 c0 -3 4 -16 10 -30 l10 -26 275 0 c151 0 275 2 275 4 0
3 -4 16 -10 30 l-10 26 -275 0 c-151 0 -275 -2 -275 -4z"/>
<path d="M1260 7574 c-6 -14 -10 -27 -10 -30 0 -2 123 -4 274 -4 l274 0 11 30
10 30 -275 0 -274 0 -10 -26z"/>
<path d="M2330 7595 c0 -2 5 -16 12 -30 l11 -25 749 0 c411 0 748 3 748 8 0 4
-3 17 -6 30 l-6 22 -754 0 c-415 0 -754 -2 -754 -5z"/>
<path d="M5890 7589 c0 -6 5 -19 10 -30 10 -19 29 -19 760 -19 413 0 750 2
750 4 0 3 -4 16 -10 30 l-10 26 -750 0 c-524 0 -750 -3 -750 -11z"/>
<path d="M9387 7580 c3 -10 11 -24 18 -30 8 -7 195 -9 571 -8 l559 3 3 28 3
27 -579 0 c-572 0 -580 0 -575 -20z"/>
<path d="M10984 7584 c3 -9 6 -22 6 -30 0 -11 29 -14 163 -15 173 0 181 -9 27
-28 -52 -6 -112 -14 -133 -17 l-38 -6 7 -46 c13 -88 -9 -82 290 -82 291 0 289
0 264 60 l-12 30 -147 1 -146 0 110 29 c173 45 173 45 159 98 l-6 22 -275 0
c-247 0 -275 -2 -269 -16z"/>
<path d="M1223 7419 c-23 -60 -27 -59 266 -59 l268 0 11 25 c7 14 12 35 12 45
0 19 -9 20 -273 20 l-273 0 -11 -31z"/>
<path d="M2390 7430 c0 -12 7 -32 16 -45 l16 -25 744 0 c731 0 744 0 744 20 0
10 -5 31 -12 45 l-11 25 -749 0 c-746 0 -748 0 -748 -20z"/>
<path d="M5948 7423 c2 -16 11 -36 20 -45 14 -17 63 -18 759 -18 818 0 761 -5
728 60 l-16 30 -748 0 -748 0 5 -27z"/>
<path d="M9450 7426 c0 -13 8 -33 18 -45 16 -19 29 -21 162 -24 l145 -3 -149
-2 c-117 -2 -147 -5 -143 -15 3 -7 13 -42 23 -78 9 -35 19 -66 20 -68 2 -2 34
-5 71 -7 149 -9 213 -16 213 -25 0 -5 -60 -9 -135 -9 -146 0 -141 2 -129 -59
l7 -31 437 0 438 0 11 44 c20 79 28 74 -138 68 -105 -3 -150 -1 -155 7 -5 8
35 11 152 11 137 0 161 2 166 16 17 45 30 44 -401 47 l-408 2 412 3 412 2 7
38 c4 20 10 44 15 53 4 8 10 34 12 57 l5 42 -534 0 -534 0 0 -24z"/>
<path d="M1210 7336 c0 -7 -3 -28 -6 -45 l-6 -31 270 0 270 0 6 28 c4 15 9 35
12 45 5 16 -12 17 -270 17 -228 0 -276 -2 -276 -14z"/>
<path d="M2438 7305 l16 -45 748 0 c411 0 748 1 748 3 0 1 -7 20 -14 42 l-14
40 -751 3 -750 2 17 -45z"/>
<path d="M5980 7345 c0 -11 51 -140 60 -151 7 -7 44 -12 102 -13 90 -2 227
-17 237 -26 2 -3 -70 -5 -162 -5 l-166 0 17 -45 16 -45 456 0 c339 0 479 -4
548 -14 52 -8 96 -17 99 -20 4 -3 -240 -6 -540 -6 -301 0 -547 -2 -547 -5 0
-2 5 -16 12 -30 l11 -25 739 0 c705 0 738 1 738 18 0 33 -24 52 -79 62 -74 14
-76 20 -7 20 63 0 61 -3 35 68 l-9 22 -334 0 c-303 0 -477 10 -498 29 -4 3
174 6 395 5 221 0 407 1 414 3 8 3 9 12 1 34 l-10 29 -666 2 -667 3 663 2
c444 2 662 7 662 13 0 6 -7 26 -14 45 l-15 35 -745 0 c-411 0 -746 -2 -746 -5z"/>
<path d="M11043 7323 c3 -16 13 -75 23 -133 9 -58 18 -111 20 -117 3 -10 66
-13 272 -13 l269 0 -4 33 c-3 17 -7 39 -10 47 -4 8 -5 18 -5 23 1 4 -5 46 -13
93 -8 48 -15 88 -15 90 0 2 -122 4 -271 4 l-271 0 5 -27z"/>
<path d="M1196 7238 c-6 -22 -26 -145 -26 -162 0 -14 13 -16 88 -16 83 0 290
-24 300 -35 3 -3 -85 -5 -196 -5 l-202 0 0 -30 0 -30 267 2 267 3 13 85 c19
132 27 120 -79 121 -51 0 -102 4 -113 9 -13 5 22 9 96 9 116 1 117 1 121 26 3
13 3 27 0 30 -3 3 -124 5 -269 5 -202 0 -264 -3 -267 -12z"/>
<path d="M2465 7228 c4 -13 11 -27 17 -33 14 -16 1479 -15 1485 1 2 7 0 22 -7
33 -11 21 -12 21 -756 21 l-745 0 6 -22z"/>
<path d="M2500 7148 c0 -9 7 -32 15 -52 l15 -36 740 0 c407 0 740 3 740 6 0 4
-5 24 -12 45 l-11 39 -676 0 c-372 0 -706 3 -743 7 -57 5 -68 3 -68 -9z"/>
<path d="M2561 6968 c10 -28 22 -54 26 -57 5 -3 9 -18 11 -33 1 -15 10 -44 19
-65 9 -21 17 -40 17 -43 1 -3 19 -53 40 -112 l39 -107 46 -6 c87 -12 102 -23
32 -24 -61 -1 -63 -2 -56 -23 3 -13 9 -33 12 -45 l5 -23 262 -2 261 -3 -252
-2 c-241 -3 -253 -4 -253 -22 0 -33 28 -52 66 -45 21 4 34 2 34 -4 0 -6 -17
-12 -37 -14 -21 -2 -37 -7 -36 -13 1 -5 23 -66 48 -135 26 -69 50 -136 55
-150 4 -14 22 -63 40 -110 17 -47 49 -137 71 -201 21 -64 45 -129 54 -145 8
-16 15 -35 15 -41 0 -10 58 -14 253 -15 l252 -2 -245 -6 c-155 -3 -244 -9
-243 -15 1 -5 16 -48 33 -95 18 -47 34 -93 37 -102 3 -11 20 -19 52 -24 79
-12 92 -23 27 -23 -64 -1 -64 -2 -36 -75 l9 -26 318 6 c309 6 322 5 468 -19
83 -14 231 -38 330 -52 99 -15 181 -28 182 -29 2 -2 -90 -13 -205 -26 -192
-22 -467 -30 -1004 -30 -34 0 -35 7 8 -112 l28 -78 714 0 c676 0 714 1 707 18
-3 9 -25 73 -48 141 -31 92 -47 125 -62 130 -11 4 -94 19 -185 32 l-165 24
173 3 173 2 -7 23 c-4 12 -10 32 -15 45 l-9 22 -439 0 c-416 0 -570 8 -611 31
-8 5 222 9 512 9 l526 0 -64 188 c-35 103 -64 195 -64 205 0 9 -9 36 -20 60
-11 23 -57 155 -103 292 -204 609 -241 720 -247 725 -3 3 -6 14 -8 25 -1 11
-9 38 -16 60 l-14 40 -414 6 c-314 4 -468 11 -643 28 -126 12 -231 24 -234 27
-2 2 282 4 631 4 l636 0 -7 28 -7 27 -746 3 -746 2 19 -52z m1189 -422 c168
-2 321 -9 340 -14 53 -15 -739 -15 -851 0 -49 6 -89 14 -89 17 0 4 66 5 148 4
81 -2 284 -5 452 -7z m-407 -123 c-13 -2 -33 -2 -45 0 -13 2 -3 4 22 4 25 0
35 -2 23 -4z m837 -94 l75 -13 -80 -8 c-360 -32 -700 -44 -951 -31 l-139 7
245 32 c231 31 260 32 510 30 166 -2 293 -8 340 -17z"/>
<path d="M9564 6998 c3 -13 6 -26 6 -30 0 -5 186 -8 414 -8 l414 0 6 23 c3 12
6 25 6 30 0 4 -192 7 -426 7 l-426 0 6 -22z"/>
<path d="M11098 6976 l4 -45 56 -13 57 -13 -53 -3 -52 -3 6 -77 c3 -42 9 -147
13 -232 l6 -155 267 -3 267 -2 0 87 c-1 86 -25 413 -32 419 -2 2 -32 -1 -67
-8 -54 -9 -79 -8 -160 8 l-95 19 163 3 c144 2 163 4 158 18 -3 9 -6 22 -6 30
0 12 -43 14 -268 14 l-267 0 3 -44z m542 -446 c10 -7 -24 -9 -105 -9 -79 1
-108 4 -85 9 52 11 173 11 190 0z"/>
<path d="M1157 6943 c-3 -4 -6 -42 -8 -83 l-4 -75 105 -6 105 -5 -106 -2
c-112 -2 -119 -5 -119 -53 0 -18 8 -19 118 -19 66 0 181 -3 258 -7 135 -8 137
-8 64 -14 -41 -4 -157 -7 -257 -8 l-183 -1 0 -56 c0 -47 3 -57 20 -61 11 -3
20 -12 20 -19 0 -8 -9 -14 -20 -14 -17 0 -20 -7 -20 -45 l0 -45 265 0 265 0 0
45 0 45 -126 0 c-119 0 -264 16 -264 29 0 3 82 5 182 3 101 -1 189 1 196 6 8
6 15 40 18 98 2 49 8 122 12 162 5 40 6 75 3 77 -2 3 -51 5 -107 5 -86 0 -261
21 -386 46 -14 3 -28 2 -31 -3z"/>
<path d="M6153 6878 c2 -13 19 -61 36 -108 72 -191 70 -181 41 -258 -11 -29
-20 -59 -20 -67 0 -13 96 -15 785 -15 449 0 785 4 785 9 0 9 -94 290 -109 326
-5 11 -15 40 -22 65 -7 25 -17 51 -22 58 -7 9 -168 12 -744 12 l-735 0 5 -22z"/>
<path d="M9586 6823 c9 -97 10 -306 0 -355 l-7 -38 163 -3 163 -3 -162 -2
-163 -2 0 -30 0 -30 304 0 304 0 6 27 c5 17 3 29 -6 34 -10 7 -9 9 4 9 16 0
71 127 127 295 11 33 29 83 40 112 10 28 16 54 13 57 -3 3 -183 6 -400 6
l-394 0 8 -77z"/>
<path d="M1130 6385 l0 -35 253 0 c138 0 258 4 265 9 8 4 12 19 10 32 l-3 24
-262 3 -263 2 0 -35z"/>
<path d="M6195 6408 c-47 -130 -47 -128 23 -130 l57 -1 -64 -6 -65 -6 -60
-185 c-34 -102 -69 -201 -79 -222 -9 -20 -17 -42 -17 -50 0 -8 -20 -73 -44
-146 l-45 -132 215 0 c118 0 214 2 214 4 0 10 93 275 107 306 9 19 19 51 23
70 6 41 33 48 38 10 2 -14 7 -34 11 -45 5 -11 16 -36 25 -56 13 -30 88 -234
101 -276 3 -8 26 -14 62 -15 l58 -2 -52 -3 c-29 -2 -53 -7 -53 -10 0 -3 17
-52 38 -109 l37 -104 499 0 c275 0 497 -3 494 -6 -3 -3 -46 -12 -94 -20 -67
-10 -189 -14 -486 -14 l-397 0 11 -32 c18 -53 25 -57 106 -61 l77 -3 -77 -2
c-43 -1 -78 -5 -78 -9 0 -5 6 -20 14 -35 8 -15 17 -40 21 -57 4 -17 14 -35 23
-41 10 -5 12 -10 5 -10 -13 0 -12 -5 39 -137 l20 -53 709 0 c390 0 709 4 709
8 0 5 -7 29 -16 55 l-16 47 -471 2 -472 3 460 2 c252 2 463 7 467 11 5 5 -2
37 -14 73 l-23 64 -695 5 c-437 3 -658 8 -595 13 55 4 170 19 255 34 148 26
173 27 578 30 326 3 422 7 422 16 0 7 -24 84 -53 172 l-54 160 -314 5 -314 5
311 3 312 2 -64 193 c-35 105 -71 212 -79 237 -9 25 -37 105 -62 178 l-45 132
-306 2 -307 3 304 2 303 3 -6 23 c-3 12 -6 25 -6 30 0 4 -292 7 -649 7 -423 0
-652 3 -656 10 -4 7 213 10 644 10 l649 0 -11 30 -11 30 -794 0 c-625 0 -794
-3 -797 -12z"/>
<path d="M11138 6390 l-5 -30 269 0 268 0 0 30 0 30 -264 0 -264 0 -4 -30z"/>
<path d="M9570 6326 c0 -8 -3 -21 -6 -30 -6 -14 24 -16 294 -16 l300 0 11 30
10 30 -305 0 c-256 0 -304 -2 -304 -14z"/>
<path d="M11132 6313 l3 -28 268 -3 267 -2 0 30 0 30 -271 0 -270 0 3 -27z"/>
<path d="M9557 6243 c-3 -16 -3 -31 0 -35 2 -5 131 -8 287 -8 l283 0 11 25 c7
14 12 30 12 35 0 6 -114 10 -294 10 l-294 0 -5 -27z"/>
<path d="M11137 6263 c-13 -12 -7 -51 9 -57 24 -9 497 -7 512 3 8 4 12 19 10
32 l-3 24 -261 3 c-143 1 -263 -1 -267 -5z"/>
<path d="M1130 6143 c0 -43 5 -107 10 -143 5 -36 11 -94 14 -130 10 -138 41
-355 67 -472 l11 -48 61 -1 62 -1 -53 -13 c-30 -7 -56 -15 -58 -18 -3 -3 0
-34 7 -71 l11 -66 279 0 279 0 -10 23 c-5 12 -11 39 -15 60 -3 20 -11 37 -18
37 -7 0 -86 -9 -177 -20 -154 -19 -300 -26 -288 -15 8 8 330 75 393 82 33 3
63 10 66 16 4 5 0 30 -8 56 -13 44 -54 277 -68 389 -4 28 -8 53 -8 54 -1 1
-114 5 -252 8 l-250 6 254 2 c207 2 252 4 248 15 -3 8 -8 61 -11 118 -4 57 -9
128 -12 157 l-5 52 -265 0 -264 0 0 -77z"/>
<path d="M9535 6138 c-4 -18 -11 -37 -15 -43 -5 -5 -11 -32 -14 -60 -4 -27
-34 -144 -67 -260 -33 -115 -62 -217 -63 -225 -2 -8 -18 -60 -36 -115 -51
-160 -52 -164 -45 -175 3 -5 25 -11 48 -12 40 -1 39 -2 -12 -7 l-54 -6 -19
-59 c-11 -32 -16 -61 -13 -64 3 -4 81 7 173 23 92 17 209 31 260 33 l93 3 20
46 c11 25 18 47 17 48 -2 1 -39 7 -83 12 l-80 10 82 2 c53 1 85 5 90 14 16 25
83 230 77 238 -3 5 -1 9 4 9 6 0 19 28 30 63 41 127 151 437 163 459 7 13 16
40 19 61 l7 37 -288 0 -287 0 -7 -32z m295 -598 c-19 -5 -121 -12 -225 -16
-170 -6 -192 -5 -204 10 -12 15 5 16 225 15 151 -1 226 -4 204 -9z"/>
<path d="M11126 6154 c-3 -9 -6 -49 -6 -89 0 -40 -7 -133 -15 -207 -16 -138
-19 -157 -35 -247 -6 -30 -10 -56 -10 -58 0 -2 87 -3 193 -4 242 0 224 -18
-27 -28 l-170 -6 -23 -95 c-12 -52 -22 -101 -23 -107 0 -10 61 -13 274 -13
l273 0 6 38 c3 20 17 102 31 182 14 79 22 148 18 152 -4 4 -97 9 -207 11
l-200 2 207 3 206 2 6 28 c3 15 10 74 16 132 5 58 15 149 21 202 6 53 8 101 4
107 -4 7 -93 11 -270 11 -230 0 -264 -2 -269 -16z"/>
<path d="M5895 5508 c-13 -35 -65 -198 -65 -203 0 -5 420 -8 420 -2 0 1 16 47
34 102 19 55 32 103 30 107 -3 5 -97 8 -210 8 -155 0 -206 -3 -209 -12z"/>
<path d="M5801 5229 c-21 -61 -29 -59 194 -59 l205 0 15 36 c8 20 15 40 15 45
0 5 -94 9 -209 9 l-209 0 -11 -31z"/>
<path d="M10982 5201 c-6 -17 -7 -33 -3 -35 5 -3 127 -6 271 -6 l264 -1 13 26
c11 20 11 26 1 29 -7 3 -131 7 -274 11 l-262 6 -10 -30z"/>
<path d="M5845 5121 l-80 -6 -47 -135 c-26 -74 -47 -141 -47 -147 -1 -9 46
-13 187 -16 l187 -2 -192 -3 -191 -2 -35 -104 c-29 -88 -33 -106 -20 -110 22
-9 376 -7 389 2 15 9 44 79 36 86 -3 3 -64 6 -136 7 -147 1 -140 7 41 35 l120
18 43 124 c23 67 43 128 44 135 2 7 6 19 9 27 4 8 13 34 21 58 l15 42 -132 -2
c-73 -1 -168 -4 -212 -7z"/>
<path d="M10960 5108 c-20 -51 -48 -153 -44 -160 3 -4 49 -9 102 -9 l97 -1
-107 -12 c-58 -6 -108 -13 -110 -16 -2 -3 -15 -40 -30 -83 -19 -56 -23 -79
-15 -83 7 -2 133 -3 281 -2 l269 3 24 70 c26 78 63 205 70 248 l5 27 -108 0
c-60 0 -179 9 -264 20 -85 11 -156 20 -158 20 -1 0 -7 -10 -12 -22z"/>
<path d="M1540 5075 c-129 -18 -236 -34 -236 -34 -1 -1 3 -21 9 -46 l10 -45
279 0 c190 0 278 3 278 11 0 6 -5 19 -10 30 -10 17 -22 19 -137 19 -69 0 -124
2 -122 4 2 3 56 12 118 20 63 9 116 17 117 19 1 1 0 14 -3 30 -7 34 -1 34
-303 -8z"/>
<path d="M9230 5075 c-7 -8 -10 -26 -8 -40 3 -16 1 -25 -7 -25 -10 0 -31 -72
-22 -74 1 -1 114 0 250 2 l248 3 18 43 c10 23 22 56 26 74 l7 32 -250 0 c-209
0 -252 -2 -262 -15z"/>
<path d="M1337 4933 c-3 -5 6 -42 19 -83 13 -41 24 -80 24 -86 0 -7 7 -15 16
-18 26 -10 542 -7 549 3 3 5 0 21 -6 35 l-12 26 -211 2 -211 3 209 2 208 3 -7
27 c-3 15 -13 42 -20 60 l-14 33 -270 0 c-148 0 -272 -3 -274 -7z"/>
<path d="M9170 4884 c-6 -14 -10 -34 -10 -45 0 -18 9 -19 246 -19 l245 0 15
35 c7 19 14 39 14 45 0 6 -85 10 -250 10 l-250 0 -10 -26z"/>
<path d="M3357 4788 c13 -50 -19 -48 729 -48 430 0 704 4 704 9 0 5 -4 21 -10
35 l-10 26 -709 0 -709 0 5 -22z"/>
<path d="M6910 4800 c0 -5 7 -27 16 -49 19 -48 29 -51 223 -52 80 0 155 -4
166 -9 13 -6 -44 -9 -155 -9 -96 0 -183 0 -192 0 -16 -1 -16 -4 -1 -38 8 -21
17 -40 20 -43 2 -3 174 -7 381 -10 l377 -5 -377 -3 c-208 -1 -378 -4 -378 -7
0 -2 5 -16 12 -30 9 -21 18 -25 57 -27 l46 -1 -42 -4 c-24 -2 -43 -7 -43 -11
0 -11 40 -124 51 -144 9 -17 52 -18 709 -18 554 0 700 3 700 13 0 6 -11 44
-24 82 l-24 70 -354 5 -353 5 348 3 c335 2 347 3 347 21 0 11 -7 26 -15 34 -8
8 -12 17 -9 20 3 3 -5 35 -17 71 l-23 66 -185 2 -186 2 170 3 c94 2 175 5 182
8 9 3 10 12 2 35 l-11 30 -709 0 c-456 0 -709 -3 -709 -10z"/>
<path d="M9145 4798 c-3 -7 -6 -22 -8 -33 -2 -11 -9 -32 -15 -46 -26 -63 -34
-112 -20 -120 14 -10 420 -12 454 -3 19 5 49 72 84 187 l9 27 -250 0 c-191 0
-251 -3 -254 -12z"/>
<path d="M1400 4713 c0 -12 33 -97 43 -110 6 -9 65 -13 206 -16 l196 -2 -197
-3 c-109 -1 -198 -4 -198 -6 0 -3 4 -16 10 -30 l10 -26 152 -1 153 -2 -115 -8
c-63 -5 -129 -11 -147 -14 -31 -5 -31 -7 -21 -37 l11 -30 56 7 c31 4 156 10
278 14 122 3 223 8 226 11 2 3 -14 49 -37 102 l-41 97 -83 1 c-46 0 -173 14
-284 30 -223 33 -218 33 -218 23z"/>
<path d="M4245 4689 c-77 -4 -174 -12 -215 -18 -41 -6 -198 -11 -347 -11 -150
0 -273 -3 -273 -7 0 -5 10 -36 22 -70 l22 -63 370 -2 371 -3 -367 -2 c-203 -2
-368 -5 -368 -7 0 -3 4 -16 10 -30 8 -23 16 -26 62 -28 l53 -2 -47 -3 c-27 -2
-48 -7 -48 -11 0 -4 7 -25 14 -47 l14 -40 164 -7 c267 -11 300 -25 62 -27
-110 0 -203 -3 -206 -6 -6 -6 14 -70 25 -81 4 -4 7 -16 7 -26 0 -10 5 -26 10
-36 6 -9 23 -51 39 -92 l28 -75 689 -3 c379 -1 694 0 700 2 10 4 -7 69 -58
211 -5 17 -24 69 -41 118 l-30 87 -321 2 -321 3 318 2 c174 2 317 7 317 12 0
5 -7 25 -15 45 l-15 36 -98 2 -97 2 96 5 97 6 -28 85 -28 85 -213 1 c-118 1
-277 -2 -354 -7z m248 -106 c-106 -2 -280 -2 -385 0 -106 1 -20 2 192 2 212 0
298 -1 193 -2z m5 -250 c-38 -2 -98 -2 -135 0 -38 2 -7 3 67 3 74 0 105 -1 68
-3z m-530 -100 c-15 -2 -42 -2 -60 0 -18 2 -6 4 27 4 33 0 48 -2 33 -4z"/>
<path d="M10806 4659 c-9 -22 -16 -42 -16 -44 0 -3 128 -5 284 -5 l284 0 12
36 c7 19 10 37 8 38 -1 2 -128 6 -280 9 l-277 5 -15 -39z"/>
<path d="M5576 4558 c-3 -13 -6 -26 -6 -30 0 -5 92 -8 203 -8 l204 0 11 25 c7
14 12 28 12 30 0 3 -94 5 -209 5 -208 0 -209 0 -215 -22z"/>
<path d="M9075 4565 c-3 -8 -7 -22 -10 -30 -4 -14 25 -15 242 -13 l247 3 7 28
7 27 -244 0 c-209 0 -245 -2 -249 -15z"/>
<path d="M10761 4550 l-10 -30 287 0 288 0 11 30 11 30 -288 0 -288 0 -11 -30z"/>
<path d="M5547 4465 l-16 -45 132 -2 132 -2 -134 -6 -133 -5 -28 -78 c-19 -55
-24 -80 -16 -83 6 -2 99 -3 206 -2 l194 3 42 120 c24 66 43 126 43 133 1 9
-46 12 -203 12 l-204 0 -15 -45z"/>
<path d="M9055 4498 c-21 -62 -45 -143 -45 -150 0 -4 107 -8 239 -8 l238 0 27
74 c14 41 26 79 26 85 0 17 -479 15 -485 -1z"/>
<path d="M10736 4485 c-9 -13 -16 -27 -16 -30 0 -4 -35 -84 -47 -107 -2 -5
127 -8 287 -8 l291 0 19 48 c11 26 24 55 30 64 5 10 10 27 10 38 0 20 -6 20
-279 20 l-279 0 -16 -25z"/>
<path d="M1970 4424 c-52 -7 -177 -13 -277 -13 l-182 -1 16 -37 c8 -21 23 -56
34 -79 l18 -41 290 -1 c160 0 291 2 291 6 0 16 -76 172 -85 175 -5 1 -53 -3
-105 -9z m-1 -88 c-2 -2 -74 -6 -159 -9 -85 -3 -139 -2 -120 2 35 8 287 14
279 7z"/>
<path d="M7096 4302 c-3 -4 1 -19 7 -33 l13 -24 699 0 c694 0 700 0 697 20 -8
46 14 45 -718 45 -381 0 -695 -4 -698 -8z"/>
<path d="M8995 4298 c-16 -48 -12 -53 50 -59 l60 -6 -67 -1 c-53 -2 -68 -5
-68 -17 0 -8 -4 -23 -9 -33 -10 -19 -51 -164 -51 -181 0 -8 71 -11 228 -11
l229 0 16 48 c8 26 31 92 51 147 20 55 36 106 36 113 0 9 -54 12 -235 12 -180
0 -237 -3 -240 -12z"/>
<path d="M10648 4293 c-25 -29 -40 -65 -31 -72 9 -8 543 5 580 14 20 5 48 57
36 69 -4 3 -133 6 -288 6 -256 0 -283 -2 -297 -17z"/>
<path d="M1592 4222 c1 -5 27 -59 57 -120 l55 -112 205 -1 c203 -1 205 -1 131
-14 -41 -8 -106 -14 -145 -15 -45 0 -77 -6 -89 -15 -11 -8 -30 -15 -43 -15
-28 0 -28 0 -2 -47 35 -62 34 -62 112 -57 40 3 170 8 289 12 119 4 220 10 223
14 4 4 -22 55 -58 115 -36 59 -82 142 -104 183 l-38 75 -298 3 c-164 1 -297
-2 -295 -6z"/>
<path d="M5455 4200 c-9 -16 -13 -30 -11 -30 3 0 -8 -39 -25 -87 -16 -48 -29
-88 -29 -90 0 -2 92 -3 204 -3 l203 0 27 78 c15 42 31 86 36 97 4 11 11 30 13
43 l5 22 -204 0 -203 0 -16 -30z"/>
<path d="M7126 4203 c4 -16 11 -35 15 -44 7 -13 89 -238 104 -286 3 -10 68
-13 280 -13 152 0 318 -5 368 -11 51 -5 198 -16 327 -23 l235 -13 -587 -2
c-553 -1 -588 -2 -588 -18 0 -10 16 -58 34 -108 l35 -90 343 -5 343 -5 -337
-3 c-186 -1 -338 -6 -338 -10 0 -12 56 -165 69 -191 l12 -21 847 0 c466 0 852
4 857 8 6 4 27 57 47 117 20 61 55 161 77 224 28 79 38 117 30 122 -6 3 -97
10 -203 15 l-191 9 207 3 208 2 15 37 c27 64 29 63 -209 63 -236 0 -238 0
-251 -62 -4 -18 -17 -64 -30 -103 -12 -38 -32 -104 -44 -145 -13 -41 -24 -81
-26 -87 -11 -33 -27 1 -89 184 -36 108 -72 200 -79 205 -6 4 -266 8 -577 9
-397 0 -593 5 -660 13 -84 12 -17 13 568 15 364 0 662 4 662 7 0 12 -51 169
-61 186 -5 10 -9 25 -9 33 0 13 -82 15 -705 15 l-705 0 6 -27z"/>
<path d="M10583 4168 c-14 -18 -93 -163 -93 -171 0 -9 229 -9 443 0 l165 6 39
81 c21 44 40 84 41 88 2 4 -129 8 -291 8 -224 0 -297 -3 -304 -12z"/>
<path d="M3667 3953 c-3 -5 4 -27 14 -50 l18 -43 148 -1 c81 0 351 -11 598
-23 l450 -24 -582 -1 c-363 -1 -584 -5 -588 -11 -3 -5 11 -55 31 -110 l38
-100 80 0 c112 0 128 -15 25 -23 -45 -4 -84 -9 -87 -11 -6 -7 48 -155 60 -162
4 -3 6 -9 3 -14 -3 -4 1 -22 8 -39 l14 -32 699 0 c648 1 708 0 824 -19 137
-21 132 -23 151 45 6 22 15 49 20 60 28 66 50 138 45 150 -4 12 -37 15 -188
15 -101 0 -188 -4 -194 -8 -6 -4 -13 -15 -17 -24 -3 -10 -11 -18 -17 -18 -6 0
-14 8 -17 18 -4 9 -11 21 -17 25 -6 4 -136 7 -288 6 -153 -2 -280 0 -283 2 -8
9 296 29 434 29 102 0 132 3 129 13 -3 6 -29 86 -59 177 -29 91 -58 168 -64
172 -13 10 -1383 10 -1388 1z m411 -280 c-3 -16 -15 -18 -88 -16 -47 2 -110 9
-140 17 -55 14 -55 14 88 15 132 1 143 0 140 -16z"/>
<path d="M5384 3952 c-9 -6 -124 -334 -124 -354 0 -5 89 -8 199 -8 l199 0 10
28 c29 74 72 206 72 218 0 11 -33 14 -167 16 l-168 2 174 6 174 5 13 39 c8 21
11 42 8 47 -6 11 -374 12 -390 1z"/>
<path d="M10464 3952 c-11 -8 -54 -76 -54 -86 0 -3 137 -6 304 -6 l304 0 25
42 c14 24 23 46 20 50 -6 10 -585 10 -599 0z"/>
<path d="M10573 3813 l-202 -3 -57 -83 c-89 -127 -188 -257 -233 -306 -22 -24
-38 -48 -35 -53 3 -4 151 -8 330 -8 297 0 325 1 339 18 75 91 95 118 95 125 0
4 26 49 58 100 67 106 122 202 122 211 0 3 -48 5 -107 4 -60 -2 -199 -4 -310
-5z"/>
<path d="M1834 3753 l34 -58 317 -3 317 -2 -17 27 c-10 16 -29 43 -42 61 l-24
32 -309 0 -309 0 33 -57z"/>
<path d="M1911 3628 c7 -13 36 -60 65 -105 53 -82 54 -83 96 -84 27 -1 34 -3
18 -6 -42 -8 -43 -19 -5 -72 l37 -51 181 -1 182 -2 -164 -13 c-90 -7 -165 -15
-168 -18 -3 -2 3 -16 14 -31 17 -25 21 -26 88 -21 39 3 180 13 315 22 135 10
248 20 252 24 5 3 -14 29 -40 58 l-48 52 -150 2 -149 1 138 10 c75 5 137 12
137 16 0 3 -27 40 -60 83 l-60 76 -77 7 c-107 9 -113 13 -20 14 l78 1 -18 30
-17 30 -319 0 -318 0 12 -22z"/>
<path d="M8288 3282 c-781 -2 -818 -3 -818 -20 0 -10 6 -26 13 -35 11 -15 49
-17 392 -20 l380 -2 -381 -3 -380 -2 36 -107 c37 -106 89 -243 97 -253 3 -3
212 -7 466 -10 l462 -5 -462 -3 -462 -2 11 -30 10 -30 646 2 645 3 73 215 c41
118 80 227 89 242 16 28 20 55 8 60 -5 2 -376 2 -825 0z"/>
<path d="M9775 3076 c-110 -111 -228 -224 -262 -251 -34 -28 -62 -53 -62 -57
-1 -5 172 -8 383 -8 l385 0 103 118 c123 140 172 199 262 315 l68 87 -339 -1
-338 0 -200 -203z"/>
<path d="M2615 3233 c-66 -7 -184 -19 -263 -26 l-143 -12 31 -42 32 -43 350 0
c207 0 348 4 346 9 -1 5 -29 37 -61 70 l-58 61 -57 -1 c-31 -1 -111 -8 -177
-16z"/>
<path d="M3946 3173 c16 -68 -18 -63 437 -65 l412 -3 -407 -2 c-262 -2 -408
-7 -408 -13 0 -6 18 -59 40 -119 22 -60 40 -113 40 -119 0 -22 31 -41 58 -36
17 3 64 -6 117 -22 l90 -28 520 -4 c485 -3 520 -2 532 14 31 43 28 44 -279 47
l-293 2 291 3 c219 1 294 5 301 15 10 11 123 335 123 350 0 4 -356 7 -790 7
l-790 0 6 -27z"/>
<path d="M2290 3094 c0 -6 48 -63 170 -205 l25 -29 195 -2 195 -1 -179 -8
c-98 -4 -180 -9 -182 -11 -2 -2 16 -26 39 -52 l42 -47 340 -34 c435 -43 540
-51 532 -38 -3 5 -23 21 -44 35 -35 24 -55 27 -288 48 -137 12 -263 26 -280
30 -18 5 45 9 165 10 107 1 214 5 237 8 l42 7 -159 148 -159 147 -346 0 c-190
0 -345 -3 -345 -6z"/>
<path d="M4885 2723 c-22 -2 -121 -13 -220 -25 -99 -11 -259 -22 -355 -24
-196 -4 -187 0 -154 -79 l14 -35 83 -1 c90 0 82 -11 -16 -23 -67 -9 -66 2 -17
-121 18 -44 41 -105 52 -135 11 -30 24 -65 29 -77 l9 -23 429 0 c289 0 432 3
436 10 4 6 31 82 60 168 l54 157 -332 5 c-183 3 -330 6 -327 8 3 1 55 9 115
17 69 9 195 15 338 15 152 0 227 3 227 11 0 5 9 30 20 55 11 24 23 58 27 74
l6 30 -219 -2 c-121 -1 -237 -3 -259 -5z"/>
<path d="M7670 2718 c0 -4 59 -168 100 -278 18 -47 35 -96 40 -110 5 -14 22
-63 39 -109 17 -46 31 -85 31 -86 0 -1 89 -5 198 -9 195 -7 435 -28 522 -45
30 -6 -78 -9 -322 -10 -203 -1 -368 -4 -368 -8 0 -23 32 -109 45 -123 14 -16
13 -18 -15 -29 -55 -20 -189 -62 -245 -76 -5 -1 216 -4 492 -6 376 -4 506 -8
515 -17 9 -9 -111 -12 -557 -12 l-570 0 -115 -25 c-63 -14 -142 -32 -175 -41
-33 -8 -98 -19 -145 -25 -47 -6 -116 -14 -155 -20 -125 -16 -467 -39 -590 -39
-180 0 -512 27 -730 59 -38 6 -95 11 -125 11 -34 0 -50 4 -42 9 10 6 2 10 -25
15 -64 11 -346 79 -375 90 -33 13 -35 30 -9 94 26 67 45 131 39 137 -3 3 -396
4 -873 3 l-869 -3 45 -29 c24 -16 55 -39 69 -51 14 -13 52 -38 85 -55 33 -18
72 -41 87 -51 14 -11 29 -19 31 -19 3 0 56 -29 117 -65 61 -36 120 -65 131
-65 10 0 19 -4 19 -10 0 -9 76 -47 282 -144 43 -20 80 -36 83 -36 3 0 27 -9
53 -21 26 -12 56 -25 67 -29 36 -16 295 -110 301 -110 3 0 20 -6 37 -14 37
-16 74 -26 212 -61 l99 -25 1291 0 c1143 0 1297 2 1345 16 30 8 80 21 110 29
107 25 431 134 523 175 50 23 115 51 142 63 28 12 52 25 53 29 2 4 10 8 18 8
20 0 333 160 458 235 61 36 114 65 118 65 4 0 8 4 8 10 0 6 -206 11 -582 13
l-583 2 605 3 605 2 50 35 c28 19 72 51 100 70 l50 35 -178 0 c-159 0 -199 4
-385 36 -114 20 -268 44 -342 54 l-135 18 594 1 593 1 51 38 c55 40 222 179
307 255 l52 47 -422 0 -423 0 -101 -68 c-133 -90 -226 -145 -233 -139 -3 3 11
51 30 106 l35 101 -52 0 c-48 1 -545 26 -611 32 -16 1 129 5 324 8 l353 5 28
78 27 77 -628 0 c-346 0 -629 -1 -629 -2z"/>
<path d="M9288 2642 l-97 -77 411 -3 412 -2 27 26 c16 15 26 31 23 36 -3 4 1
8 8 8 8 0 34 20 58 45 l44 45 -394 -1 -395 -1 -97 -76z"/>
<path d="M2720 2615 c48 -48 73 -66 100 -71 19 -3 51 -9 70 -14 34 -8 34 -8
-15 -9 l-50 -2 45 -41 c25 -23 69 -63 98 -91 30 -27 101 -85 158 -128 l105
-79 489 0 c270 0 490 2 490 4 0 2 -39 25 -87 51 -105 57 -241 139 -303 184
-25 17 -89 61 -143 96 l-98 65 -77 0 c-122 0 -280 17 -565 60 -147 22 -270 40
-274 40 -4 0 22 -29 57 -65z"/>
<path d="M5335 1229 l140 -29 955 3 955 3 105 26 105 26 -1200 0 -1200 0 140
-29z"/>
<path d="M5795 1161 c-13 -6 10 -11 70 -15 50 -3 124 -11 165 -16 96 -13 636
-13 732 0 40 5 114 12 163 16 60 4 83 9 70 15 -26 10 -1174 10 -1200 0z"/>
</g>
</svg>
