<svg xmlns="http://www.w3.org/2000/svg" width="247.5" viewBox="0 0 247.5 247.5" height="247.5" version="1.0"><path fill="#282C34" d="M 45.148438 12.929688 C 45.148438 10.667969 46.992188 8.824219 49.253906 8.824219 L 139.550781 8.824219 C 141.8125 8.824219 143.65625 10.667969 143.65625 12.929688 L 143.65625 25.242188 L 45.148438 25.242188 Z M 169.824219 84.980469 C 168.347656 83.585938 166.359375 82.707031 164.179688 82.707031 L 98.507812 82.707031 C 93.984375 82.707031 90.296875 86.394531 90.296875 90.914062 L 90.296875 115.542969 C 90.296875 120.0625 93.984375 123.75 98.507812 123.75 L 131.054688 123.75 L 117.007812 137.796875 C 115.664062 139.140625 114.71875 140.824219 114.234375 142.683594 L 106.957031 171.847656 C 106.300781 174.414062 107.003906 177.074219 108.863281 178.96875 C 110.308594 180.425781 112.214844 181.210938 114.203125 181.210938 C 114.8125 181.210938 115.4375 181.132812 116.046875 180.988281 L 145.226562 173.675781 C 147.136719 173.195312 148.851562 172.21875 150.132812 170.886719 L 180.597656 140.441406 L 180.597656 234.570312 C 180.597656 236.832031 178.753906 238.675781 176.492188 238.675781 L 86.195312 238.675781 C 83.933594 238.675781 82.089844 236.832031 82.089844 234.570312 L 82.089844 66.289062 L 180.597656 66.289062 L 180.597656 74.207031 Z M 218.851562 49.871094 C 220.277344 49.871094 221.707031 50.414062 222.78125 51.488281 L 236.425781 65.132812 C 238.589844 67.328125 238.605469 70.855469 236.441406 73.019531 L 232.511719 76.949219 L 210.996094 55.433594 L 214.925781 51.488281 C 216.015625 50.414062 217.425781 49.871094 218.851562 49.871094 Z M 145.949219 163.449219 L 138.125 155.625 L 206.570312 87.164062 L 214.425781 95.019531 Z M 120.875 149.980469 L 137.933594 167.039062 L 115.199219 172.730469 Z M 198.714844 67.699219 L 205.191406 61.238281 L 226.707031 82.753906 L 220.230469 89.214844 Z M 192.910156 73.503906 L 200.765625 81.359375 L 132.304688 149.804688 L 124.449219 141.949219 Z M 139.261719 115.542969 L 98.507812 115.542969 L 98.507812 90.914062 L 163.890625 90.914062 Z M 41.042969 34.847656 L 67.210938 58.078125 L 14.894531 58.078125 Z M 173.925781 58.078125 L 79.25 58.078125 C 78.851562 57.582031 78.449219 57.085938 77.953125 56.652344 L 51.851562 33.453125 L 146.191406 33.453125 Z M 8.207031 234.570312 L 8.207031 66.289062 L 73.878906 66.289062 L 73.878906 234.570312 C 73.878906 236.015625 74.183594 237.394531 74.632812 238.675781 L 12.3125 238.675781 C 10.054688 238.675781 8.207031 236.832031 8.207031 234.570312 Z M 12.3125 246.882812 L 176.492188 246.882812 C 183.289062 246.882812 188.804688 241.367188 188.804688 234.570312 L 188.804688 132.230469 L 242.246094 78.824219 C 247.597656 73.484375 247.597656 64.730469 242.246094 59.34375 L 228.585938 45.683594 C 223.230469 40.328125 214.492188 40.328125 209.121094 45.683594 L 188.804688 66 L 188.804688 65.886719 C 188.804688 62.328125 187.300781 58.976562 184.667969 56.652344 L 151.867188 27.503906 L 151.867188 12.929688 C 151.867188 6.132812 146.351562 0.617188 139.550781 0.617188 L 49.253906 0.617188 C 42.457031 0.617188 36.941406 6.132812 36.941406 12.929688 L 36.941406 27.503906 L 4.136719 56.667969 C 1.507812 59.007812 0 62.359375 0 65.871094 L 0 234.570312 C 0 241.367188 5.515625 246.882812 12.3125 246.882812"/></svg>