<svg xmlns="http://www.w3.org/2000/svg" width="247.5" viewBox="0 0 247.5 247.5" height="247.5" version="1.0"><defs><clipPath id="a"><path d="M 0 61 L 221 61 L 221 247 L 0 247 Z M 0 61"/></clipPath><clipPath id="b"><path d="M 216 0 L 247 0 L 247 31 L 216 31 Z M 216 0"/></clipPath><clipPath id="c"><path d="M 106 0 L 247 0 L 247 107 L 106 107 Z M 106 0"/></clipPath></defs><path fill="#282C34" d="M 70.714844 185.625 L 26.519531 185.625 L 26.519531 220.980469 L 70.714844 220.980469 L 70.714844 185.625"/><g clip-path="url(#a)"><path fill="#282C34" d="M 17.679688 181.207031 C 17.679688 178.769531 19.664062 176.785156 22.097656 176.785156 L 75.132812 176.785156 C 77.566406 176.785156 79.554688 178.769531 79.554688 181.207031 L 79.554688 225.402344 C 79.554688 227.835938 77.566406 229.820312 75.132812 229.820312 L 22.097656 229.820312 C 19.664062 229.820312 17.679688 227.835938 17.679688 225.402344 Z M 17.679688 128.167969 C 17.679688 125.734375 19.664062 123.75 22.097656 123.75 L 75.132812 123.75 C 77.566406 123.75 79.554688 125.734375 79.554688 128.167969 L 79.554688 163.527344 C 79.554688 165.960938 77.566406 167.945312 75.132812 167.945312 L 22.097656 167.945312 C 19.664062 167.945312 17.679688 165.960938 17.679688 163.527344 Z M 22.097656 97.230469 L 75.132812 97.230469 C 77.566406 97.230469 79.554688 99.21875 79.554688 101.652344 C 79.554688 104.085938 77.566406 106.070312 75.132812 106.070312 L 22.097656 106.070312 C 19.664062 106.070312 17.679688 104.085938 17.679688 101.652344 C 17.679688 99.21875 19.664062 97.230469 22.097656 97.230469 Z M 22.097656 79.554688 L 75.132812 79.554688 C 77.566406 79.554688 79.554688 81.539062 79.554688 83.972656 C 79.554688 86.40625 77.566406 88.394531 75.132812 88.394531 L 22.097656 88.394531 C 19.664062 88.394531 17.679688 86.40625 17.679688 83.972656 C 17.679688 81.539062 19.664062 79.554688 22.097656 79.554688 Z M 92.8125 216.5625 L 101.652344 216.5625 C 104.085938 216.5625 106.070312 218.546875 106.070312 220.980469 C 106.070312 223.417969 104.085938 225.402344 101.652344 225.402344 L 92.8125 225.402344 C 90.378906 225.402344 88.394531 223.417969 88.394531 220.980469 C 88.394531 218.546875 90.378906 216.5625 92.8125 216.5625 Z M 92.8125 198.882812 L 101.652344 198.882812 C 104.085938 198.882812 106.070312 200.871094 106.070312 203.304688 C 106.070312 205.738281 104.085938 207.722656 101.652344 207.722656 L 92.8125 207.722656 C 90.378906 207.722656 88.394531 205.738281 88.394531 203.304688 C 88.394531 200.871094 90.378906 198.882812 92.8125 198.882812 Z M 92.8125 181.207031 L 101.652344 181.207031 C 104.085938 181.207031 106.070312 183.191406 106.070312 185.625 C 106.070312 188.058594 104.085938 190.042969 101.652344 190.042969 L 92.8125 190.042969 C 90.378906 190.042969 88.394531 188.058594 88.394531 185.625 C 88.394531 183.191406 90.378906 181.207031 92.8125 181.207031 Z M 92.8125 159.105469 L 101.652344 159.105469 C 104.085938 159.105469 106.070312 161.09375 106.070312 163.527344 C 106.070312 165.960938 104.085938 167.945312 101.652344 167.945312 L 92.8125 167.945312 C 90.378906 167.945312 88.394531 165.960938 88.394531 163.527344 C 88.394531 161.09375 90.378906 159.105469 92.8125 159.105469 Z M 92.8125 141.429688 L 101.652344 141.429688 C 104.085938 141.429688 106.070312 143.414062 106.070312 145.847656 C 106.070312 148.28125 104.085938 150.269531 101.652344 150.269531 L 92.8125 150.269531 C 90.378906 150.269531 88.394531 148.28125 88.394531 145.847656 C 88.394531 143.414062 90.378906 141.429688 92.8125 141.429688 Z M 92.8125 123.75 L 101.652344 123.75 C 104.085938 123.75 106.070312 125.734375 106.070312 128.167969 C 106.070312 130.605469 104.085938 132.589844 101.652344 132.589844 L 92.8125 132.589844 C 90.378906 132.589844 88.394531 130.605469 88.394531 128.167969 C 88.394531 125.734375 90.378906 123.75 92.8125 123.75 Z M 119.332031 216.5625 L 190.042969 216.5625 C 192.480469 216.5625 194.464844 218.546875 194.464844 220.980469 C 194.464844 223.417969 192.480469 225.402344 190.042969 225.402344 L 119.332031 225.402344 C 116.894531 225.402344 114.910156 223.417969 114.910156 220.980469 C 114.910156 218.546875 116.894531 216.5625 119.332031 216.5625 Z M 119.332031 198.882812 L 176.785156 198.882812 C 179.21875 198.882812 181.207031 200.871094 181.207031 203.304688 C 181.207031 205.738281 179.21875 207.722656 176.785156 207.722656 L 119.332031 207.722656 C 116.894531 207.722656 114.910156 205.738281 114.910156 203.304688 C 114.910156 200.871094 116.894531 198.882812 119.332031 198.882812 Z M 119.332031 181.207031 L 163.527344 181.207031 C 165.960938 181.207031 167.945312 183.191406 167.945312 185.625 C 167.945312 188.058594 165.960938 190.042969 163.527344 190.042969 L 119.332031 190.042969 C 116.894531 190.042969 114.910156 188.058594 114.910156 185.625 C 114.910156 183.191406 116.894531 181.207031 119.332031 181.207031 Z M 119.332031 159.105469 L 163.527344 159.105469 C 165.960938 159.105469 167.945312 161.09375 167.945312 163.527344 C 167.945312 165.960938 165.960938 167.945312 163.527344 167.945312 L 119.332031 167.945312 C 116.894531 167.945312 114.910156 165.960938 114.910156 163.527344 C 114.910156 161.09375 116.894531 159.105469 119.332031 159.105469 Z M 119.332031 141.429688 L 163.527344 141.429688 C 165.960938 141.429688 167.945312 143.414062 167.945312 145.847656 C 167.945312 148.28125 165.960938 150.269531 163.527344 150.269531 L 119.332031 150.269531 C 116.894531 150.269531 114.910156 148.28125 114.910156 145.847656 C 114.910156 143.414062 116.894531 141.429688 119.332031 141.429688 Z M 119.332031 123.75 L 190.042969 123.75 C 192.480469 123.75 194.464844 125.734375 194.464844 128.167969 C 194.464844 130.605469 192.480469 132.589844 190.042969 132.589844 L 119.332031 132.589844 C 116.894531 132.589844 114.910156 130.605469 114.910156 128.167969 C 114.910156 125.734375 116.894531 123.75 119.332031 123.75 Z M 4.417969 247.5 L 216.5625 247.5 C 218.996094 247.5 220.980469 245.515625 220.980469 243.082031 L 220.980469 209.535156 L 202.992188 191.546875 L 193.617188 200.921875 C 192.425781 202.113281 190.753906 202.507812 189.164062 202.027344 C 187.574219 201.542969 186.417969 200.214844 186.160156 198.574219 L 176.734375 145.449219 C 176.527344 144.035156 176.957031 142.585938 177.976562 141.566406 C 178.996094 140.546875 180.464844 140.066406 181.863281 140.324219 L 220.980469 147.210938 L 220.980469 114.910156 L 101.652344 114.910156 C 99.21875 114.910156 97.230469 112.925781 97.230469 110.492188 L 97.230469 61.875 L 0 61.875 L 0 243.082031 C 0 245.515625 1.984375 247.5 4.417969 247.5"/></g><path fill="#282C34" d="M 140.460938 53.035156 L 137.148438 66.292969 L 145.710938 66.292969 L 142.394531 53.035156 L 140.460938 53.035156"/><path fill="#282C34" d="M 13.257812 35.355469 L 17.679688 35.355469 C 20.113281 35.355469 22.097656 37.34375 22.097656 39.777344 C 22.097656 42.210938 20.113281 44.195312 17.679688 44.195312 L 13.257812 44.195312 C 10.824219 44.195312 8.839844 42.210938 8.839844 39.777344 C 8.839844 37.34375 10.824219 35.355469 13.257812 35.355469 Z M 35.355469 35.355469 L 39.777344 35.355469 C 42.210938 35.355469 44.195312 37.34375 44.195312 39.777344 C 44.195312 42.210938 42.210938 44.195312 39.777344 44.195312 L 35.355469 44.195312 C 32.921875 44.195312 30.9375 42.210938 30.9375 39.777344 C 30.9375 37.34375 32.921875 35.355469 35.355469 35.355469 Z M 57.457031 35.355469 L 61.875 35.355469 C 64.308594 35.355469 66.292969 37.34375 66.292969 39.777344 C 66.292969 42.210938 64.308594 44.195312 61.875 44.195312 L 57.457031 44.195312 C 55.019531 44.195312 53.035156 42.210938 53.035156 39.777344 C 53.035156 37.34375 55.019531 35.355469 57.457031 35.355469 Z M 0 53.035156 L 97.230469 53.035156 L 97.230469 26.519531 L 4.417969 26.519531 C 1.984375 26.519531 0 28.503906 0 30.9375 L 0 53.035156"/><path fill="#282C34" d="M 176.785156 53.035156 L 172.367188 53.035156 L 172.367188 79.554688 L 176.785156 79.554688 C 181.652344 79.554688 185.625 75.582031 185.625 70.714844 L 185.625 61.875 C 185.625 57.007812 181.652344 53.035156 176.785156 53.035156"/><path fill="#282C34" d="M 70.714844 132.589844 L 26.519531 132.589844 L 26.519531 159.105469 L 70.714844 159.105469 L 70.714844 132.589844"/><path fill="#282C34" d="M 234.242188 210.332031 L 246.757812 197.832031 L 218.601562 169.671875 C 217.804688 168.878906 217.304688 167.722656 217.304688 166.582031 C 217.304688 165.375 217.804688 164.269531 218.601562 163.441406 L 225.089844 156.949219 L 186.558594 150.128906 L 193.359375 188.679688 L 199.851562 182.171875 C 200.695312 181.34375 201.800781 180.894531 202.992188 180.894531 C 204.148438 180.894531 205.289062 181.34375 206.136719 182.171875 L 228.542969 204.582031 L 234.242188 210.332031"/><g clip-path="url(#b)"><path fill="#282C34" d="M 241.785156 18.972656 C 243.511719 20.699219 243.511719 23.496094 241.785156 25.222656 C 240.921875 26.085938 239.800781 26.519531 238.660156 26.519531 C 237.519531 26.519531 236.398438 26.085938 235.535156 25.222656 L 232.03125 21.71875 L 228.527344 25.222656 C 227.664062 26.085938 226.542969 26.519531 225.402344 26.519531 C 224.261719 26.519531 223.140625 26.085938 222.277344 25.222656 C 220.550781 23.496094 220.550781 20.699219 222.277344 18.972656 L 225.78125 15.46875 L 222.277344 11.964844 C 220.550781 10.238281 220.550781 7.441406 222.277344 5.714844 C 224.003906 3.988281 226.800781 3.988281 228.527344 5.714844 L 232.03125 9.21875 L 235.535156 5.714844 C 237.261719 3.988281 240.058594 3.988281 241.785156 5.714844 C 243.511719 7.441406 243.511719 10.238281 241.785156 11.964844 L 238.28125 15.46875 Z M 247.5 0 L 216.5625 0 L 216.5625 30.9375 L 247.5 30.9375 L 247.5 0"/></g><g clip-path="url(#c)"><path fill="#282C34" d="M 225.402344 44.195312 C 227.835938 44.195312 229.820312 46.183594 229.820312 48.617188 C 229.820312 51.050781 227.835938 53.035156 225.402344 53.035156 L 207.722656 53.035156 L 207.722656 61.875 L 220.980469 61.875 C 225.851562 61.875 229.820312 65.847656 229.820312 70.714844 L 229.820312 79.554688 C 229.820312 84.421875 225.851562 88.394531 220.980469 88.394531 L 203.304688 88.394531 C 200.871094 88.394531 198.882812 86.40625 198.882812 83.972656 C 198.882812 81.539062 200.871094 79.554688 203.304688 79.554688 L 220.980469 79.554688 L 220.980469 70.714844 L 207.722656 70.714844 C 202.855469 70.714844 198.882812 66.742188 198.882812 61.875 L 198.882812 53.035156 C 198.882812 48.167969 202.855469 44.195312 207.722656 44.195312 Z M 194.464844 70.714844 C 194.464844 80.46875 186.539062 88.394531 176.785156 88.394531 L 167.945312 88.394531 C 165.511719 88.394531 163.527344 86.40625 163.527344 83.972656 L 163.527344 48.617188 C 163.527344 46.183594 165.511719 44.195312 167.945312 44.195312 L 176.785156 44.195312 C 186.539062 44.195312 194.464844 52.121094 194.464844 61.875 Z M 155.757812 88.253906 C 155.394531 88.359375 155.03125 88.394531 154.6875 88.394531 C 152.703125 88.394531 150.90625 87.046875 150.40625 85.042969 L 147.917969 75.132812 L 134.9375 75.132812 L 132.449219 85.042969 C 131.863281 87.410156 129.464844 88.859375 127.097656 88.253906 C 124.734375 87.667969 123.285156 85.269531 123.886719 82.902344 L 132.726562 47.546875 C 133.210938 45.578125 134.972656 44.195312 137.007812 44.195312 L 145.847656 44.195312 C 147.886719 44.195312 149.644531 45.578125 150.128906 47.546875 L 158.96875 82.902344 C 159.574219 85.269531 158.125 87.667969 155.757812 88.253906 Z M 106.070312 0 L 106.070312 106.070312 L 247.5 106.070312 L 247.5 39.777344 L 212.144531 39.777344 C 209.707031 39.777344 207.722656 37.792969 207.722656 35.355469 L 207.722656 0 L 106.070312 0"/></g></svg>