<svg width="155" height="57" viewBox="0 0 155 57" fill="none" xmlns="http://www.w3.org/2000/svg">
<path d="M17.8335 56.2801C13.7853 57.1405 10.2571 57.0617 7.24904 56.0435C3.50224 54.8334 1.23408 52.3712 0.444572 48.6568C-0.318326 45.0677 0.408205 41.8163 2.62416 38.9025C4.80726 36.0394 7.67252 34.2308 11.2199 33.4768C13.1814 33.0599 14.1977 33.0183 14.2686 33.3522C14.2864 33.4357 13.5649 33.6327 12.1042 33.9431C8.8072 34.6439 6.14044 36.2577 4.10392 38.7843C1.90933 41.3881 1.18461 44.4429 1.92977 47.9486C2.64831 51.3291 4.42191 53.7219 7.25056 55.1272C9.98687 56.5085 13.0244 56.8443 16.3631 56.1346C19.4515 55.4781 22.6723 54.0084 26.0255 51.7253C31.7117 47.8995 33.9915 43.3365 32.8649 38.0362C32.5455 36.5338 31.8892 35.1902 30.8958 34.0055C29.8936 32.7791 28.5513 31.7994 26.8688 31.0666C25.371 30.3817 23.8745 29.8055 22.3793 29.3382C20.917 28.8202 19.4205 28.2441 17.8899 27.6098C16.2669 26.9516 14.972 26.0927 14.0053 25.0332C13.0385 23.9737 12.4177 22.7971 12.1427 21.5033C11.7523 19.667 12.0861 17.8513 13.144 16.0561C11.9186 16.4474 10.983 17.2788 10.3372 18.5501C9.75091 19.8961 9.59083 21.1951 9.85695 22.4472C10.1497 23.8244 10.763 25.068 11.6969 26.1781C12.6308 27.2882 13.8972 28.2186 15.4962 28.9692C16.9017 29.6301 18.3235 30.2657 19.7619 30.876C21.233 31.4357 22.6834 31.9998 24.1128 32.5684C27.2451 34.1708 29.135 36.4953 29.7826 39.5419C30.4036 42.4633 29.4866 45.5372 27.0317 48.7634C25.8789 50.317 24.6133 51.5457 23.2351 52.4493C21.8657 53.3947 20.4507 54.0226 18.99 54.3331C18.7813 54.3774 18.6637 54.337 18.6371 54.2118C18.5838 53.9614 18.7033 53.8051 18.9954 53.7431C19.6872 53.5088 20.291 53.2714 20.8069 53.0309C21.3229 52.7903 21.7762 52.5631 22.1669 52.3492C24.2254 50.952 25.9106 49.1325 27.2226 46.8908C28.6482 44.3632 29.1259 41.9934 28.6558 39.7815C28.3453 38.3208 27.7187 37.0145 26.7759 35.8627C25.8749 34.702 24.6502 33.7627 23.1018 33.045C21.7381 32.3752 20.3459 31.7769 18.9254 31.2501C17.5048 30.7233 16.0918 30.1294 14.6863 29.4685C13.0962 28.7596 11.8297 27.8293 10.887 26.6774C9.97711 25.475 9.36692 24.1434 9.05644 22.6827C8.72822 21.1386 8.96159 19.6713 9.75657 18.281C10.1749 17.5814 10.6869 17.0145 11.2926 16.5805C11.8894 16.1047 12.5842 15.7825 13.3772 15.6139L13.4398 15.6006C15.7997 12.1329 19.442 9.8756 24.3666 8.82883C28.7905 7.88852 32.0335 8.26787 34.0958 9.96688C34.7297 10.4864 35.1221 11.101 35.2729 11.8105C35.5656 13.1877 34.9021 14.3756 33.2823 15.3742C32.1367 16.1411 30.7501 16.6976 29.1225 17.0435C28.3295 17.2121 27.486 17.3478 26.5918 17.4506C25.6888 17.5117 24.7307 17.519 23.7176 17.4727C22.5464 17.5035 21.5289 17.4363 20.6649 17.2709C19.7921 17.0639 19.0446 16.8302 18.4222 16.5699C18.321 16.5042 18.2659 16.4505 18.2571 16.4087C18.2304 16.2835 18.2797 16.2076 18.4049 16.181C18.4884 16.1633 18.5554 16.1708 18.6061 16.2037C21.2625 17.2093 24.6566 17.2731 28.7883 16.3948C29.4978 16.244 30.1314 16.0439 30.689 15.7945C31.2467 15.5452 31.7582 15.2838 32.2235 15.0104C33.4677 14.0916 33.9789 13.1106 33.7571 12.0672C33.4378 10.5648 32.1132 9.66859 29.7833 9.37865C28.0315 9.14034 26.2791 9.20747 24.5263 9.58005C19.3512 10.68 16.1467 13.1496 14.9126 16.9888C14.5501 18.1563 14.4886 19.3035 14.7281 20.4303C15.2692 22.9761 17.1628 24.9073 20.4088 26.2238C21.8799 26.7835 23.3511 27.3432 24.8223 27.9029C26.3352 28.4537 27.8273 29.009 29.2984 29.5687C32.6331 31.3026 34.6598 33.8598 35.3783 37.2402C36.3541 41.831 34.7648 46.051 30.6103 49.9002C27.0588 53.0978 22.7999 55.2244 17.8335 56.2801ZM46.0705 45.4363C43.1074 46.0661 41.2178 44.4613 40.4016 40.6217C40.2774 40.0374 40.1652 39.407 40.065 38.7304C39.9977 38.0031 39.9632 37.2253 39.9616 36.3969C39.7681 36.3072 39.5657 36.1757 39.3544 36.0025C39.1342 35.7876 38.9052 35.5309 38.6673 35.2325C38.8431 35.2388 39.0277 35.2868 39.2213 35.3765C39.4477 35.4156 39.7159 35.4459 40.0257 35.4672C40.0413 33.2829 40.8542 30.951 42.4645 28.4713C44.1974 25.7475 46.0446 24.1771 48.0061 23.7602C48.4652 23.6626 48.708 23.6764 48.7346 23.8016C48.7524 23.8851 48.5046 24.1559 47.9913 24.6139C46.6245 25.7768 45.4597 27.3767 44.4968 29.4134C43.4504 31.4678 42.8005 33.438 42.547 35.3239C42.5976 35.3568 42.6229 35.3732 42.6229 35.3732C42.6229 35.3732 42.6482 35.3896 42.6989 35.4225C44.7021 34.9967 46.5848 33.5932 48.3469 31.2122C50.109 28.8311 50.7772 26.639 50.3514 24.6357C50.2272 24.0514 49.9405 23.5235 49.4913 23.0519C49.0927 22.6132 48.5804 22.4604 47.9544 22.5935C47.1614 22.762 46.289 23.2746 45.3369 24.1313C44.4355 25.0208 43.9222 25.4788 43.797 25.5055C43.7135 25.5232 43.6673 25.5112 43.6585 25.4695C43.552 24.9687 44.1671 24.2709 45.5036 23.3761C46.6491 22.6092 47.5767 22.1503 48.2862 21.9995C49.2878 21.7866 50.1384 21.8893 50.838 22.3077C51.6211 22.7083 52.1146 23.3885 52.3186 24.3484C52.7888 26.5603 51.8058 29.0157 49.3697 31.7145C47.1725 34.1008 44.8858 35.6556 42.5095 36.3787C42.3886 37.4513 42.4257 38.4467 42.6208 39.3649C43.3571 42.8288 44.9773 44.2947 47.4813 43.7624C49.4011 43.3543 51.2269 42.0938 52.9588 39.9809C54.4189 38.2311 55.5248 36.2513 56.2764 34.0414C56.5278 33.3773 56.7787 33.0186 57.0291 32.9654C57.0709 32.9565 57.1006 32.9938 57.1184 33.0773C57.1538 33.2442 57.0667 33.6553 56.8571 34.3105C55.998 36.6305 54.5817 38.8944 52.6083 41.1023C50.4617 43.5215 48.2824 44.9661 46.0705 45.4363ZM60.9475 41.8815C60.6554 41.9436 60.2532 41.8982 59.7409 41.7454C59.2108 41.5091 58.9236 41.2866 58.8793 41.078C58.9513 40.801 58.9979 40.5075 59.0193 40.1976C59.0824 39.8789 59.1664 39.5557 59.2712 39.2281C59.6853 37.4825 60.0369 35.7502 60.3258 34.0312C60.6147 32.3123 60.7993 30.6155 60.8795 28.9409C60.9775 27.3497 60.8092 25.5317 60.3745 23.4867C60.3798 23.9218 60.2415 24.6054 59.9599 25.5377C59.7111 26.4194 59.3606 27.5407 58.9084 28.9018C58.489 30.2123 58.0923 31.3217 57.7183 32.23C57.3772 33.0877 57.0885 33.7815 56.8522 34.3116C56.861 34.3533 56.8237 34.383 56.7403 34.4008C56.5316 34.4451 56.4095 34.3838 56.374 34.2169C56.3563 34.1334 56.3639 34.0664 56.3967 34.0158C56.5913 33.4946 56.7814 32.9526 56.9671 32.3897C57.1945 31.8179 57.4339 31.1999 57.6854 30.5358C58.4219 28.46 58.9687 26.6208 59.326 25.0181C59.6833 23.4155 59.8882 22.0197 59.9409 20.8308C59.9606 19.6925 60.2626 19.0612 60.8469 18.937C61.5147 18.7951 62.026 19.5588 62.3808 21.2282C63.0195 24.2331 62.8447 28.1306 61.8563 32.9207C63.5068 29.6038 64.6726 27.3931 65.3539 26.2886C67.1916 23.2372 68.7782 21.5696 70.1137 21.2857C71.4492 21.0018 72.3033 21.7363 72.6758 23.4891C72.9331 24.6994 72.8254 25.8346 72.3528 26.8947C71.8083 28.2318 71.2021 28.9713 70.5344 29.1133C70.4092 29.1399 70.3288 29.0697 70.2933 28.9028C70.2933 28.9028 70.412 28.3323 70.6493 27.1914C70.8866 26.0505 70.9254 25.1044 70.7657 24.3532C70.5262 23.2263 70.0517 22.7383 69.3422 22.8891C68.3824 23.0932 67.0253 24.712 65.271 27.7457C63.8783 30.2227 62.9198 32.2803 62.3956 33.9184C62.3804 34.0525 62.2991 34.5932 62.1515 35.5406C62.0039 36.488 61.7781 37.8882 61.4741 39.7413C61.4438 40.0094 61.4016 40.3237 61.3473 40.6842C61.326 40.9941 61.2882 41.3293 61.2339 41.6898C61.1682 41.791 61.0727 41.8549 60.9475 41.8815ZM81.49 37.7768C81.2396 37.83 80.912 37.7252 80.5072 37.4623C80.4477 37.3877 80.3958 37.246 80.3514 37.0374C80.2272 36.4531 80.2457 35.206 80.4068 33.2961C80.6267 30.0215 80.2932 26.2974 79.4061 22.124C78.6787 18.7018 77.5846 17.1459 76.1239 17.4564C75.331 17.625 74.4611 18.3551 73.5143 19.6469C72.5764 20.9803 72.1074 21.6471 72.1074 21.6471C71.9822 21.6737 71.9019 21.6035 71.8664 21.4366C71.8575 21.3948 71.8682 21.2399 71.8985 20.9718C72.2041 19.9472 72.948 18.8294 74.13 17.6185C75.2944 16.3241 76.3356 15.5794 77.2538 15.3842C79.0066 15.0116 80.2423 16.5156 80.9608 19.8961C81.502 22.4419 81.6328 25.3148 81.3534 28.5148C82.4304 24.142 84.0072 20.2736 86.0839 16.9097C88.8178 12.5336 91.9376 9.97304 95.4433 9.22789C97.5717 8.77547 98.8577 9.59262 99.3013 11.6793C99.4432 12.3471 99.4307 12.6987 99.2638 12.7342C99.1803 12.7519 99.0569 12.5819 98.8936 12.224C98.5466 11.2073 98.1619 10.5257 97.7393 10.1793C97.3584 9.82407 96.6672 9.75289 95.6656 9.9658C92.8694 10.5601 90.4183 12.3679 88.3124 15.3891C86.5681 17.8536 85.2804 20.7227 84.4496 23.9963C83.8586 26.3466 83.6962 28.1477 83.9624 29.3997L84.0023 29.5875C84.1087 30.0883 83.9246 31.4797 83.45 33.7615C82.9274 36.2281 82.4366 37.5102 81.9775 37.6077C81.8523 37.6344 81.7733 37.673 81.7404 37.7236L81.49 37.7768ZM95.7855 11.5761C94.9508 11.7535 94.4403 11.404 94.254 10.5275C94.1564 10.0685 94.3004 9.51444 94.6859 8.86544C94.907 8.46947 95.0998 8.14497 95.2641 7.89194C95.4702 7.63005 95.6687 7.43519 95.8596 7.30736C97.2112 6.27853 98.0331 5.73306 98.3252 5.67097C98.4504 5.64435 98.5219 5.67278 98.5397 5.75625C98.5663 5.88145 98.2149 6.58861 97.4857 7.87774C97.4528 7.92834 97.4093 8.13389 97.3551 8.49438C97.2919 8.81313 97.16 9.321 96.9592 10.018C96.761 10.9325 96.3698 11.4519 95.7855 11.5761ZM96.3007 32.4695C94.1723 32.9219 92.8818 32.0839 92.4294 29.9554C92.0923 28.3695 92.0839 26.2776 92.404 23.6796C92.2992 24.0072 92.1735 24.3393 92.0269 24.6758C91.9221 25.0034 91.7964 25.3354 91.6498 25.6719C91.3024 26.7054 91.0244 27.2443 90.8157 27.2887C90.7322 27.3064 90.6772 27.2527 90.6506 27.1275C90.5796 26.7936 90.6383 26.454 90.8266 26.1086C91.5355 24.5185 92.2201 22.301 92.8804 19.4563C92.9346 19.0958 93.0128 18.6429 93.1151 18.0978C93.259 17.5437 93.4314 16.9182 93.6322 16.2213C93.761 15.8013 94.2428 15.5026 95.0775 15.3252C95.787 15.1744 96.1861 15.3076 96.2748 15.725C96.3635 16.1423 96.3087 16.8083 96.1106 17.7228C95.8289 18.6551 95.5553 19.2148 95.2898 19.4021C94.0422 24.2038 93.6357 27.6271 94.0704 29.6721C94.3631 31.0493 94.9686 31.6404 95.8867 31.4452C97.3891 31.1258 98.807 29.6903 100.14 27.1387C101.557 24.5693 102.245 23.2891 102.203 23.298C102.286 23.2802 102.341 23.334 102.368 23.4592C102.377 23.5009 102.366 23.6558 102.336 23.924C102.102 24.6716 101.769 25.4622 101.335 26.2959C100.935 27.0789 100.459 27.9215 99.9095 28.8235C98.4636 31.0501 97.2606 32.2655 96.3007 32.4695ZM114.035 16.53C113.493 16.6453 113.155 16.3899 113.022 15.7639C112.969 15.5135 112.974 14.9235 113.038 13.9938C113.144 13.0553 113.135 12.2939 113.011 11.7097C112.611 9.83161 111.661 9.05227 110.158 9.37162C109.407 9.5313 108.509 10.0275 107.465 10.8601C106.471 11.7257 105.932 12.1673 105.849 12.185C105.682 12.2205 105.585 12.1757 105.559 12.0505C105.434 11.4662 106.133 10.7506 107.654 9.90387C108.817 9.2204 109.837 8.78552 110.714 8.59923C112.967 8.1202 114.383 9.23706 114.959 11.9498C115.119 12.701 115.146 13.5459 115.04 14.4844C114.913 15.7328 114.578 16.4146 114.035 16.53ZM107.455 32.9775C104.575 33.5896 102.79 32.268 102.098 29.0127C101.406 25.7574 101.76 22.1925 103.161 18.3178C104.799 13.9132 107.12 11.3915 110.125 10.7528C110.584 10.6552 110.831 10.6899 110.866 10.8568C110.893 10.982 110.542 11.3837 109.814 12.062C108.035 13.7487 106.623 16.0335 105.579 18.9163C104.444 21.9928 104.108 24.6161 104.569 26.7863C105.287 30.1668 106.92 31.5864 109.465 31.0453C111.051 30.7082 112.671 29.7096 114.325 28.0495C115.044 27.3296 115.696 26.602 116.282 25.867C116.9 25.0813 117.426 24.2716 117.859 23.4379C118.014 23.1431 118.198 22.7769 118.411 22.3392C118.623 21.9015 118.838 21.3759 119.057 20.7624C119.3 20.0565 119.525 19.6814 119.734 19.6371C119.734 19.6371 119.784 19.6699 119.886 19.7357C119.912 19.8609 119.8 20.2555 119.548 20.9196C119.07 22.1555 118.44 23.4016 117.66 24.6579C116.872 25.8724 115.907 27.0807 114.767 28.2827C112.271 30.9069 109.834 32.4718 107.455 32.9775ZM127.257 28.1796C124.294 28.8095 122.404 27.2046 121.588 23.365C121.464 22.7808 121.351 22.1503 121.251 21.4737C121.184 20.7465 121.149 19.9686 121.148 19.1402C120.954 19.0505 120.752 18.919 120.541 18.7458C120.32 18.5309 120.091 18.2743 119.854 17.9759C120.029 17.9821 120.214 18.0301 120.408 18.1198C120.634 18.1589 120.902 18.1892 121.212 18.2106C121.228 16.0263 122.04 13.6943 123.651 11.2146C125.384 8.49083 127.231 6.92046 129.192 6.50352C129.651 6.40594 129.894 6.41976 129.921 6.54496C129.939 6.62843 129.691 6.8992 129.178 7.35726C127.811 8.52017 126.646 10.12 125.683 12.1567C124.637 14.2111 123.987 16.1813 123.733 18.0672C123.784 18.1001 123.809 18.1165 123.809 18.1165C123.809 18.1165 123.834 18.133 123.885 18.1658C125.888 17.74 127.771 16.3366 129.533 13.9555C131.295 11.5744 131.963 9.38229 131.538 7.37905C131.413 6.79477 131.127 6.26684 130.678 5.79526C130.279 5.35654 129.767 5.20372 129.141 5.33678C128.348 5.50533 127.475 6.01793 126.523 6.87459C125.622 7.76411 125.108 8.22218 124.983 8.24879C124.9 8.26653 124.854 8.25453 124.845 8.2128C124.738 7.71199 125.353 7.0142 126.69 6.11944C127.835 5.3525 128.763 4.89363 129.472 4.74282C130.474 4.52992 131.325 4.63265 132.024 5.051C132.807 5.45161 133.301 6.13186 133.505 7.09175C133.975 9.30367 132.992 11.759 130.556 14.4578C128.359 16.8441 126.072 18.3989 123.696 19.1221C123.575 20.1947 123.612 21.19 123.807 22.1082C124.543 25.5721 126.164 27.038 128.668 26.5057C130.587 26.0977 132.413 24.8372 134.145 22.7243C135.605 20.9745 136.711 18.9946 137.463 16.7847C137.714 16.1206 137.965 15.7619 138.215 15.7087C138.257 15.6998 138.287 15.7371 138.305 15.8206C138.34 15.9875 138.253 16.3986 138.043 17.0539C137.184 19.3738 135.768 21.6378 133.795 23.8456C131.648 26.2648 129.469 27.7095 127.257 28.1796ZM146.628 23.6042C144.666 24.0211 142.72 23.5843 140.788 22.2938C138.889 20.9526 137.731 19.3013 137.314 17.3398C137.039 16.046 137.235 15.3282 137.903 15.1862C138.32 15.0975 138.804 15.3218 139.355 15.8591C139.986 12.6716 141.059 8.99758 142.573 4.83706C143.555 2.27292 145.027 0.782392 146.988 0.365459C147.405 0.27675 147.916 0.320805 148.521 0.497623C149.176 0.707305 149.544 0.99995 149.624 1.37556C149.686 1.6677 149.446 1.87143 148.903 1.98675C148.861 1.99562 148.799 2.00893 148.715 2.02667C148.632 2.04441 148.523 2.04572 148.389 2.0306L147.888 2.13705C146.928 2.34108 146.172 2.78534 145.62 3.46982C145.034 4.2049 144.835 5.01066 145.021 5.88708C145.092 6.22095 145.23 6.56239 145.435 6.91138C145.863 7.69284 146.291 8.4743 146.719 9.25576C147.146 10.0372 147.574 10.8187 148.002 11.6001C148.507 12.5397 148.915 13.4343 149.227 14.2841C149.571 15.0834 149.819 15.8377 149.97 16.5472C151.061 16.1407 151.932 15.5194 152.583 14.6831C152.995 14.1593 153.486 13.1826 154.054 11.7532C154.144 11.5596 154.251 11.4496 154.376 11.423C154.502 11.3963 154.582 11.4665 154.618 11.6334C154.653 11.8004 154.642 11.9553 154.585 12.0983C153.672 14.7787 152.216 16.5494 150.218 17.4103C150.404 18.8976 150.223 20.201 149.676 21.3206C149.104 22.5325 148.088 23.2937 146.628 23.6042ZM147.576 17.9066C147.582 17.7307 147.572 17.5802 147.545 17.455C147.519 17.3298 147.488 17.1838 147.452 17.0168C147.337 16.4743 147.077 15.7661 146.673 14.8923C146.303 13.9679 145.804 12.8526 145.177 11.5463C143.992 9.05011 143.39 7.34606 143.371 6.43415C142.525 7.79162 141.39 11.1735 139.966 16.5798C140.847 16.8286 141.595 17.0623 142.209 17.2808C142.855 17.4488 143.363 17.5807 143.732 17.6767C145.108 17.9949 146.39 18.0715 147.576 17.9066ZM144.874 21.8178C146.543 21.4629 147.476 20.414 147.673 18.6711C144.334 19.3808 141.642 19.2333 139.596 18.2286C139.884 19.1708 140.593 20.0451 141.724 20.8515C142.864 21.6997 143.914 22.0218 144.874 21.8178Z" fill="#61DAFB"/>
</svg>
