<svg width="105" height="68" viewBox="0 0 105 68" fill="none" xmlns="http://www.w3.org/2000/svg">
<path d="M17.8986 66.9523C13.8503 67.8128 10.3222 67.734 7.31408 66.7158C3.56727 65.5057 1.29911 63.0435 0.509605 59.3291C-0.253293 55.74 0.473238 52.4885 2.6892 49.5748C4.87229 46.7117 7.73755 44.9031 11.285 44.1491C13.2465 43.7321 14.2627 43.6906 14.3337 44.0245C14.3514 44.1079 13.6299 44.3049 12.1692 44.6154C8.87224 45.3162 6.20547 46.9299 4.16895 49.4565C1.97436 52.0604 1.24965 55.1152 1.9948 58.6208C2.71335 62.0013 4.48694 64.3942 7.31559 65.7995C10.0519 67.1807 13.0894 67.5165 16.4282 66.8069C19.5165 66.1504 22.7373 64.6807 26.0906 62.3976C31.7767 58.5718 34.0565 54.0087 32.9299 48.7085C32.6106 47.206 31.9542 45.8625 30.9609 44.6778C29.9586 43.4513 28.6163 42.4717 26.9338 41.7388C25.436 41.0539 23.9395 40.4778 22.4444 40.0105C20.982 39.4925 19.4856 38.9164 17.9549 38.2821C16.3319 37.6238 15.037 36.7649 14.0703 35.7054C13.1036 34.646 12.4827 33.4693 12.2077 32.1756C11.8174 30.3393 12.1512 28.5235 13.209 26.7283C11.9836 27.1197 11.048 27.951 10.4022 29.2224C9.81595 30.5684 9.65586 31.8674 9.92199 33.1194C10.2147 34.4966 10.828 35.7403 11.7619 36.8504C12.6958 37.9605 13.9622 38.8909 15.5612 39.6415C16.9667 40.3024 18.3886 40.938 19.8269 41.5483C21.2981 42.108 22.7484 42.6721 24.1778 43.2406C27.3101 44.8431 29.2 47.1676 29.8476 50.2142C30.4686 53.1356 29.5516 56.2094 27.0968 59.4357C25.9439 60.9893 24.6784 62.2179 23.3001 63.1216C21.9308 64.0669 20.5157 64.6949 19.055 65.0053C18.8464 65.0497 18.7287 65.0093 18.7021 64.8841C18.6489 64.6337 18.7683 64.4774 19.0605 64.4153C19.7522 64.181 20.356 63.9436 20.872 63.7031C21.3879 63.4626 21.8412 63.2354 22.232 63.0215C24.2905 61.6243 25.9757 59.8048 27.2876 57.5631C28.7132 55.0354 29.191 52.6656 28.7208 50.4537C28.4103 48.993 27.7837 47.6868 26.841 46.5349C25.9399 45.3742 24.7152 44.435 23.1668 43.7172C21.8031 43.0475 20.411 42.4492 18.9904 41.9224C17.5698 41.3955 16.1568 40.8017 14.7513 40.1408C13.1612 39.4319 11.8948 38.5015 10.952 37.3497C10.0421 36.1473 9.43196 34.8157 9.12148 33.355C8.79325 31.8108 9.02663 30.3436 9.8216 28.9532C10.24 28.2536 10.752 27.6868 11.3576 27.2527C11.9544 26.7769 12.6493 26.4547 13.4422 26.2862L13.5048 26.2729C15.8647 22.8051 19.507 20.5479 24.4317 19.5011C28.8555 18.5608 32.0986 18.9401 34.1609 20.6391C34.7947 21.1587 35.1871 21.7732 35.3379 22.4827C35.6306 23.8599 34.9671 25.0479 33.3473 26.0465C32.2018 26.8134 30.8152 27.3698 29.1875 27.7158C28.3946 27.8844 27.551 28.02 26.6568 28.1229C25.7538 28.1839 24.7957 28.1913 23.7826 28.1449C22.6114 28.1758 21.5939 28.1085 20.73 27.9432C19.8572 27.7361 19.1096 27.5025 18.4872 27.2422C18.386 27.1764 18.331 27.1227 18.3221 27.081C18.2955 26.9558 18.3448 26.8799 18.47 26.8533C18.5534 26.8355 18.6205 26.8431 18.6711 26.8759C21.3276 27.8816 24.7216 27.9453 28.8533 27.0671C29.5628 26.9163 30.1964 26.7162 30.7541 26.4668C31.3117 26.2174 31.8232 25.956 32.2886 25.6826C33.5327 24.7639 34.0439 23.7828 33.8222 22.7395C33.5028 21.237 32.1782 20.3408 29.8483 20.0509C28.0965 19.8126 26.3442 19.8797 24.5913 20.2523C19.4163 21.3523 16.2117 23.8219 14.9776 27.661C14.6151 28.8286 14.5536 29.9758 14.7931 31.1026C15.3342 33.6484 17.2278 35.5795 20.4738 36.8961C21.945 37.4558 23.4162 38.0155 24.8873 38.5752C26.4002 39.126 27.8923 39.6812 29.3635 40.2409C32.6982 41.9748 34.7248 44.532 35.4433 47.9125C36.4191 52.5033 34.8298 56.7233 30.6753 60.5725C27.1239 63.7701 22.8649 65.8967 17.8986 66.9523ZM56.8507 55.7285C54.8892 56.1454 52.3751 55.502 49.3086 53.7984C46.9834 52.5042 44.8136 50.9153 42.7993 49.0316C42.5238 49.788 42.2649 50.5192 42.0223 51.225C41.7798 51.9309 41.5208 52.662 41.2454 53.4185C40.5809 55.2173 39.8694 56.5899 39.1109 57.5363C38.981 58.5671 38.4362 59.1846 37.4763 59.3886C37.0172 59.4862 36.7522 59.368 36.6812 59.0342C36.4328 57.8656 36.8581 53.9149 37.9569 47.1819L36.7941 47.56C36.5437 47.6132 36.4096 47.5981 36.3918 47.5146C36.2677 46.9303 36.8271 46.4842 38.0703 46.1764C38.4009 44.4485 38.7467 42.5866 39.1076 40.5906C39.4596 38.5529 39.8565 36.4184 40.2983 34.1872C38.6003 35.6386 37.3339 36.453 36.4992 36.6304C36.3323 36.6659 36.2355 36.621 36.2089 36.4958C36.1202 36.0785 36.3414 35.6825 36.8724 35.3079C36.9382 35.2067 37.0501 35.1175 37.2081 35.0403C37.3991 34.9125 37.6064 34.7593 37.8302 34.5809C38.9163 33.7394 39.8639 32.8618 40.673 31.9483C40.9583 30.6227 41.3231 28.953 41.7675 26.9393C42.203 24.8839 42.718 22.4843 43.3126 19.7408C43.4477 19.145 43.6023 18.436 43.7765 17.6138C43.9507 16.7916 44.1564 15.8101 44.3938 14.6692C44.6488 13.6117 45.5275 12.9233 47.03 12.6039C47.8229 12.4354 48.2682 12.5806 48.3658 13.0397C48.4013 13.2067 48.3332 13.81 48.1616 14.8497C47.9144 16.5598 47.4941 18.4812 46.9005 20.6139C46.3487 22.7377 45.6192 25.0519 44.7122 27.5566C44.5656 27.8931 44.3741 28.3263 44.1379 28.8564C43.9016 29.3864 43.6621 30.0044 43.4196 30.7102C43.2579 31.1808 43.0811 31.7854 42.8891 32.5242C42.7389 33.254 42.523 34.0851 42.2413 35.0173C41.6327 37.2841 40.8088 40.7961 39.7699 45.5534C40.436 44.583 40.8943 44.0712 41.1447 44.018C41.4786 43.947 41.8195 44.1145 42.1675 44.5203C42.2421 44.4609 42.4166 44.3583 42.691 44.2128C42.9983 44.0166 43.3801 43.761 43.8366 43.4458C43.9326 43.0765 44.057 42.6356 44.2098 42.1233C44.3955 41.5604 44.6052 40.9052 44.8388 40.1576C45.1533 39.1747 45.514 38.2039 45.9209 37.245C46.3695 36.2772 46.8643 35.3215 47.4052 34.3777C48.8966 31.7489 50.2682 30.3014 51.5203 30.0353C52.8558 29.7514 53.8207 31.0075 54.415 33.8037C55.1513 37.2677 51.9079 40.6833 44.6849 44.0507C44.5409 44.6047 44.2491 45.3865 43.8094 46.396C45.591 48.4164 47.604 50.1913 49.8484 51.7207C52.8101 53.752 55.2509 54.5636 57.1706 54.1556C58.0053 53.9781 58.6527 53.5352 59.1128 52.8267C59.6564 52.1005 59.949 51.733 59.9907 51.7241C60.1577 51.6886 60.2589 51.7543 60.2944 51.9213C60.3121 52.0047 60.3059 52.1806 60.2756 52.4487C59.62 54.2892 58.4783 55.3825 56.8507 55.7285ZM45.0221 42.8667C49.7979 39.8887 51.8798 36.9598 51.2677 34.0801C51.0194 32.9116 50.6239 32.385 50.0813 32.5003C49.1632 32.6954 47.7989 35.101 45.9883 39.717C45.8835 40.0446 45.7382 40.4899 45.5525 41.0528C45.3997 41.5651 45.2229 42.1697 45.0221 42.8667ZM39.0952 56.231C40.225 54.1588 41.2649 51.5605 42.2147 48.4361C41.9856 48.1794 41.7224 47.8646 41.4251 47.4916C41.1277 47.1186 40.7708 46.6711 40.3545 46.1489L39.6792 46.3578C39.4836 47.4899 39.3413 48.8724 39.2521 50.5053C39.163 52.1381 39.1107 54.0467 39.0952 56.231ZM61.4319 29.5642C60.5972 29.7416 60.0868 29.3921 59.9005 28.5157C59.8029 28.0566 59.9468 27.5026 60.3323 26.8536C60.5535 26.4576 60.7463 26.1331 60.9106 25.8801C61.1166 25.6182 61.3151 25.4233 61.506 25.2955C62.8577 24.2667 63.6796 23.7212 63.9717 23.6591C64.0969 23.6325 64.1684 23.6609 64.1861 23.7444C64.2127 23.8696 63.8614 24.5768 63.1322 25.8659C63.0993 25.9165 63.0558 26.122 63.0015 26.4825C62.9384 26.8013 62.8065 27.3092 62.6056 28.0061C62.4075 28.9207 62.0162 29.44 61.4319 29.5642ZM61.9472 50.4577C59.8187 50.9101 58.5283 50.0721 58.0759 47.9436C57.7388 46.3577 57.7303 44.2657 58.0505 41.6677C57.9457 41.9954 57.82 42.3274 57.6734 42.6639C57.5685 42.9915 57.4428 43.3236 57.2963 43.6601C56.9489 44.6936 56.6708 45.2325 56.4622 45.2768C56.3787 45.2946 56.3237 45.2409 56.2971 45.1156C56.2261 44.7818 56.2848 44.4422 56.4731 44.0968C57.1819 42.5067 57.8665 40.2892 58.5268 37.4444C58.5811 37.0839 58.6593 36.6311 58.7615 36.0859C58.9055 35.5319 59.0779 34.9064 59.2787 34.2094C59.4075 33.7894 59.8893 33.4908 60.724 33.3133C61.4334 33.1625 61.8325 33.2958 61.9212 33.7131C62.0099 34.1305 61.9552 34.7964 61.757 35.7109C61.4754 36.6432 61.2018 37.203 60.9362 37.3903C59.6886 42.1919 59.2822 45.6153 59.7168 47.6602C60.0096 49.0375 60.615 49.6285 61.5332 49.4333C63.0356 49.114 64.4535 47.6785 65.7868 45.1269C67.2035 42.5575 67.891 41.2772 67.8493 41.2861C67.9328 41.2684 67.9878 41.3221 68.0144 41.4473C68.0233 41.489 68.0126 41.644 67.9824 41.9121C67.7487 42.6597 67.4151 43.4504 66.9816 44.284C66.581 45.0671 66.1058 45.9096 65.556 46.8117C64.11 49.0383 62.9071 50.2536 61.9472 50.4577ZM73.981 48.9467C71.8943 49.3902 70.6247 48.5478 70.1723 46.4193C69.6844 44.1239 69.8926 39.8704 70.7969 33.6586C70.0551 35.2993 69.4756 36.1641 69.0582 36.2528C68.933 36.2794 68.8571 36.2301 68.8305 36.1049C68.8216 36.0632 69.2089 35.2175 69.9924 33.5679C70.3842 32.7431 70.6862 32.1118 70.8985 31.6741C71.1436 31.1858 71.2738 30.8746 71.2889 30.7405C71.3734 30.1119 71.5058 29.2986 71.6863 28.3006C71.8667 27.3026 72.0832 26.1661 72.3356 24.8911C72.7685 22.6181 73.2431 20.3362 73.7594 18.0455C74.3086 15.7041 74.8787 13.3583 75.4697 11.0081C75.6527 10.2277 75.8882 9.28339 76.1761 8.17532C76.5058 7.05837 76.8878 5.77762 77.3223 4.33305C77.5471 3.54373 78.3273 3.00713 79.6628 2.72326C80.414 2.56359 80.8295 2.67155 80.9094 3.04716C80.936 3.17236 80.9373 3.28113 80.9133 3.37348C80.5169 5.20252 79.9223 7.9461 79.1296 11.6042C79.0336 11.9736 78.9345 12.4308 78.8323 12.976C78.7301 13.5211 78.583 14.1631 78.391 14.9018C78.1344 15.1308 77.8253 15.5237 77.4638 16.0803C77.4638 16.0803 77.3274 16.5673 77.0546 17.5413C76.7818 18.5153 76.3891 19.951 75.8764 21.8484C72.4225 34.5344 71.0681 42.6303 71.8132 46.1359C72.106 47.5132 72.7114 48.1042 73.6296 47.9091C74.6729 47.6873 75.7799 46.8413 76.9505 45.3711C78.1539 43.8504 78.7139 43.0988 78.6305 43.1166C78.7974 43.0811 78.8986 43.1468 78.9341 43.3138C78.9518 43.3972 78.9039 43.5819 78.7901 43.8678C77.5038 46.8457 75.9008 48.5386 73.981 48.9467ZM84.1904 46.7766C82.1037 47.2201 80.8341 46.3777 80.3817 44.2492C79.8938 41.9538 80.102 37.7003 81.0063 31.4885C80.2645 33.1293 79.685 33.994 79.2676 34.0827C79.1424 34.1093 79.0665 34.06 79.0399 33.9348C79.031 33.8931 79.4183 33.0474 80.2018 31.3978C80.5936 30.573 80.8956 29.9417 81.1079 29.504C81.3531 29.0157 81.4832 28.7045 81.4983 28.5705C81.5828 27.9418 81.7153 27.1285 81.8957 26.1305C82.0762 25.1325 82.2926 23.996 82.545 22.721C82.9779 20.448 83.4525 18.1661 83.9689 15.8754C84.5181 13.534 85.0881 11.1882 85.6791 8.83803C85.8621 8.05758 86.0976 7.11331 86.3855 6.00524C86.7152 4.88829 87.0973 3.60754 87.5317 2.16297C87.7565 1.37365 88.5367 0.837054 89.8722 0.553185C90.6234 0.393509 91.0389 0.501475 91.1188 0.877084C91.1454 1.00229 91.1467 1.11106 91.1227 1.2034C90.7263 3.03245 90.1318 5.77602 89.339 9.43411C89.243 9.80347 89.1439 10.2607 89.0417 10.8059C88.9395 11.3511 88.7924 11.993 88.6005 12.7317C88.3438 12.9608 88.0347 13.3536 87.6732 13.9103C87.6732 13.9103 87.5368 14.3973 87.2641 15.3713C86.9913 16.3453 86.5985 17.781 86.0858 19.6784C82.6319 32.3643 81.2775 40.4602 82.0227 43.9659C82.3154 45.3431 82.9209 45.9341 83.839 45.739C84.8824 45.5172 85.9893 44.6712 87.1599 43.2011C88.3634 41.6803 88.9233 40.9288 88.8399 40.9465C89.0068 40.911 89.108 40.9768 89.1435 41.1437C89.1613 41.2272 89.1133 41.4118 88.9996 41.6977C87.7132 44.6756 86.1102 46.3685 84.1904 46.7766ZM96.5628 44.9319C94.6012 45.3489 92.6546 44.9121 90.7227 43.6215C88.8237 42.2804 87.6657 40.629 87.2488 38.6675C86.9738 37.3738 87.1702 36.6559 87.8379 36.514C88.2552 36.4253 88.7391 36.6496 89.2895 37.1869C89.9206 33.9993 90.9935 30.3253 92.5083 26.1648C93.4899 23.6007 94.9615 22.1101 96.923 21.6932C97.3404 21.6045 97.8514 21.6485 98.456 21.8254C99.1113 22.035 99.4788 22.3277 99.5586 22.7033C99.6207 22.9954 99.3805 23.1992 98.838 23.3145C98.7962 23.3234 98.7336 23.3367 98.6502 23.3544C98.5667 23.3721 98.4579 23.3735 98.3238 23.3583L97.823 23.4648C96.8631 23.6688 96.107 24.1131 95.5546 24.7976C94.9693 25.5326 94.7698 26.3384 94.9561 27.2148C95.027 27.5487 95.165 27.8901 95.3701 28.2391C95.7979 29.0206 96.2257 29.802 96.6535 30.5835C97.0814 31.365 97.5092 32.1464 97.937 32.9279C98.442 33.8674 98.8503 34.7621 99.1618 35.6119C99.5062 36.4111 99.7537 37.1654 99.9045 37.8749C100.996 37.4685 101.867 36.8471 102.518 36.0108C102.93 35.487 103.421 34.5104 103.989 33.0809C104.079 32.8874 104.186 32.7773 104.311 32.7507C104.437 32.7241 104.517 32.7942 104.552 32.9612C104.588 33.1281 104.577 33.2831 104.52 33.426C103.607 36.1065 102.151 37.8771 100.153 38.738C100.339 40.2253 100.158 41.5288 99.6106 42.6483C99.0394 43.8602 98.0235 44.6214 96.5628 44.9319ZM97.5109 39.2343C97.5171 39.0585 97.5069 38.908 97.4803 38.7828C97.4537 38.6576 97.4227 38.5115 97.3872 38.3446C97.2719 37.802 97.0123 37.0938 96.6085 36.22C96.2375 35.2956 95.7387 34.1803 95.1121 32.874C93.9272 30.3778 93.3251 28.6738 93.3057 27.7619C92.4602 29.1194 91.3252 32.5012 89.9007 37.9075C90.7824 38.1563 91.53 38.39 92.1435 38.6086C92.7899 38.7765 93.2977 38.9085 93.6671 39.0044C95.0433 39.3226 96.3246 39.3992 97.5109 39.2343ZM94.809 43.1455C96.4784 42.7907 97.4114 41.7418 97.6079 39.9988C94.2692 40.7085 91.577 40.561 89.5315 39.5563C89.819 40.4985 90.5282 41.3728 91.6593 42.1793C92.7992 43.0275 93.8491 43.3495 94.809 43.1455Z" fill="#61DAFB"/>
</svg>
