<svg width="512" height="512" viewBox="0 0 512 512" fill="none" xmlns="http://www.w3.org/2000/svg">
<path d="M302.085 199.126L246.051 183.074C240.793 181.574 235.23 182.984 231.469 186.774L178.269 240.385C174.5 244.183 173.094 249.783 174.59 255.088L190.511 311.555C192 316.86 196.165 321.058 201.429 322.557L257.463 338.586C262.72 340.093 268.284 338.692 272.053 334.902L325.26 281.283C329.021 277.492 330.42 271.885 328.924 266.588L312.996 210.114C311.492 204.822 307.334 200.632 302.085 199.126Z" fill="#BDA05A"/>
<path d="M261.905 98.1739C248.534 98.9428 231.536 104.067 231.536 104.067C228.822 104.587 226.488 106.23 225.074 108.588C223.66 110.947 223.287 113.825 224.065 116.531L237.294 163.443C238.789 168.74 242.94 172.931 248.197 174.437L304.239 190.489C309.496 191.996 315.052 190.595 318.813 186.797L362.59 142.681C364.758 140.489 365.769 137.384 365.32 134.249C364.886 131.121 363.039 128.333 360.316 126.676C360.316 126.676 348.628 116.804 333.986 110.639C312.898 101.784 288.055 96.6583 261.905 98.1739Z" fill="#151517"/>
<path d="M115.415 225.645L157.27 237.619C162.527 239.127 168.076 237.725 171.844 233.927L225.059 180.309C228.813 176.518 230.211 170.911 228.715 165.614L226.614 158.168L216.317 121.664C215.464 118.635 213.288 116.118 210.431 114.837C207.567 113.548 204.321 113.639 201.622 115.086C201.622 115.086 190.412 119.562 179.719 126.766C168.434 134.393 157.531 143.474 147.099 153.978C136.914 164.25 128.15 175.116 120.836 186.496C113.515 197.89 108.766 211.07 108.766 211.07C107.435 213.776 107.413 217.001 108.692 219.835C109.986 222.653 112.454 224.794 115.415 225.645Z" fill="#BDA05A"/>
<path d="M181.94 313.732L166.02 257.257C164.538 251.952 160.373 247.762 155.108 246.255L151.997 245.366L111.144 233.67C108.422 232.894 105.536 233.278 103.18 234.732C100.832 236.187 99.2245 238.582 98.7315 241.356C98.7315 241.356 94.9775 255.222 94.2445 267.038C92.5395 294.529 91.3655 326.406 99.4865 347.236C105.693 363.122 114.6 373.929 114.6 373.929C116.185 376.747 118.982 378.692 122.13 379.189C125.27 379.671 128.412 378.662 130.61 376.446L178.268 328.427C182.029 324.63 183.443 319.031 181.94 313.732Z" fill="#151517"/>
<path d="M385.271 151.815C383.626 149.08 380.859 147.217 377.748 146.766C374.644 146.329 371.564 147.346 369.395 149.524L325.611 193.64C321.849 197.438 320.451 203.038 321.939 208.342L337.875 264.809C339.363 270.099 343.529 274.29 348.785 275.797L395.329 289.127C398.029 289.903 400.878 289.527 403.219 288.111C405.559 286.686 407.183 284.328 407.698 281.607C407.698 281.607 412.783 264.462 413.554 250.996C415.057 224.65 409.972 199.601 401.178 178.348C395.06 163.601 385.271 151.815 385.271 151.815Z" fill="#BDA05A"/>
<path d="M390.252 296.934L354.021 286.558L346.632 284.432C341.375 282.925 335.819 284.342 332.057 288.125L278.843 341.751C275.082 345.534 273.683 351.148 275.179 356.439L287.061 398.618C287.906 401.602 290.03 404.082 292.834 405.385C295.632 406.681 298.832 406.65 301.524 405.317C301.524 405.317 314.603 400.524 325.91 393.162C337.202 385.791 347.985 376.951 358.185 366.68C368.61 356.167 377.621 345.188 385.181 333.808C392.338 323.039 396.78 311.735 396.78 311.735C398.193 309.014 398.298 305.759 397.019 302.865C395.748 299.973 393.25 297.787 390.252 296.934Z" fill="#151517"/>
<path d="M267.483 361.745L266.608 358.617C265.112 353.312 260.948 349.115 255.69 347.614L199.641 331.578C194.392 330.071 188.828 331.48 185.066 335.279L137.415 383.305C135.217 385.52 134.207 388.678 134.693 391.851C135.194 395.016 137.116 397.835 139.913 399.433C139.913 399.433 150.637 408.416 166.401 414.663C187.07 422.854 218.703 421.671 245.983 419.952C257.701 419.207 271.461 415.424 271.461 415.424C274.213 414.927 276.591 413.313 278.042 410.947C279.485 408.567 279.867 405.673 279.089 402.914L267.483 361.745Z" fill="#BDA05A"/>
<path d="M400.145 159.049C400.145 159.049 424.315 150.925 431.351 145.854C438.411 140.775 452.507 114.391 452.507 106.275C452.507 98.1588 456.538 90.0425 439.413 72.7861C422.296 55.5357 414.235 59.5898 406.188 59.5898C398.119 59.5898 371.945 73.8029 366.905 80.9014C361.865 88.0079 353.81 112.365 353.81 112.365C353.81 112.365 373.949 124.543 381.001 131.649C388.053 138.747 400.145 159.049 400.145 159.049Z" fill="#BDA05A"/>
<path d="M157.457 40.1234L224.82 59.484C224.82 59.484 232.126 78.7912 233.659 92.2202C269.569 79.7324 300.282 89.0318 300.282 89.0318L291.129 46.5064C284.286 14.7195 253.319 -5.42414 221.642 1.29039L158.519 14.6822C152.649 15.9338 148.357 21.0349 148.109 27.0642C147.855 33.0854 151.714 38.4808 157.457 40.1234Z" fill="#BDA05A"/>
<path d="M465.848 222.585L423.649 213.361C423.649 213.361 432.884 244.302 420.492 280.498C433.811 282.036 452.97 289.399 452.97 289.399L472.181 357.29C473.819 363.062 479.166 366.966 485.148 366.71C491.123 366.454 496.194 362.129 497.427 356.22L510.716 292.609C517.388 260.687 497.391 229.473 465.848 222.585Z" fill="#BDA05A"/>
<path d="M44.6936 255.088C29.2966 252.495 14.9686 264.297 12.7326 270.402L0.962604 302.436C-1.0274 307.848 0.117604 313.914 3.9386 318.21C7.7526 322.505 13.6226 324.321 19.1706 322.919L83.1766 306.8C76.7606 287.402 83.1766 260.25 83.1766 260.25L44.6936 255.088Z" fill="#BDA05A"/>
<path d="M249.811 428.174C249.811 428.174 222.867 434.64 203.626 428.174L187.615 492.682C186.231 498.273 188.034 504.182 192.296 508.025C196.559 511.876 202.579 513.037 207.956 511.032L239.738 499.163C245.788 496.902 257.507 482.479 254.934 466.954L249.811 428.174Z" fill="#BDA05A"/>
</svg>
