<svg width="131" height="74" viewBox="0 0 131 74" fill="none" xmlns="http://www.w3.org/2000/svg">
<path d="M26.2863 68.8419C26.1611 68.8685 26.0896 68.84 26.0719 68.7566C26.0009 68.4227 26.0609 68.1918 26.2519 68.064C26.4428 67.9362 26.6874 67.7533 26.9858 67.5154C27.2931 67.3193 27.6035 67.0352 27.917 66.6632C29.0333 65.5535 30.1609 63.9835 31.2996 61.953C32.4472 59.9643 33.6566 57.548 34.9278 54.7042C35.873 52.5841 36.7675 50.431 37.6115 48.2451C38.4555 46.0592 39.2444 43.8196 39.9783 41.5262C39.7174 40.7093 39.4729 39.867 39.2449 38.9995C39.008 38.0902 38.7964 37.1973 38.6101 36.3209C37.8916 32.9404 37.5482 29.7856 37.5798 26.8563C37.6881 22.6458 38.6197 19.7433 40.3745 18.149C40.879 17.6492 41.3607 17.3505 41.8198 17.2529C43.6561 16.8626 44.8182 17.8151 45.3061 20.1105C46.0158 23.4493 45.0873 29.0337 42.5205 36.8638C42.7902 37.7225 43.1891 38.8808 43.7171 40.3389C44.2363 41.7553 44.877 43.5384 45.6393 45.6882C45.9242 46.4128 46.1553 47.1924 46.3328 48.0271C47.2465 52.3257 47.0956 56.1309 45.8803 59.4426C47.2267 57.9787 48.7031 54.4588 50.3096 48.883C51.0889 46.1874 51.8308 43.5215 52.5355 40.8854C53.273 38.1987 54.0149 35.5329 54.7613 32.8879C55.7982 29.3524 56.8435 26.164 57.8972 23.3229C58.9926 20.4729 60.0501 17.958 61.0699 15.7784C62.4992 12.8574 64.0336 10.3284 65.6731 8.19152C67.3126 6.05461 69.0365 4.31418 70.8445 2.97022C71.7397 2.25651 72.6673 1.79764 73.6271 1.59361C75.213 1.25651 76.4969 1.55067 77.4788 2.47609C78.5441 3.38376 79.2453 4.63055 79.5824 6.21645C79.68 6.67553 79.7442 7.49066 79.7751 8.66184C79.7996 10.0088 79.6912 10.7298 79.4496 10.8248C79.399 10.7919 79.3693 10.7546 79.3604 10.7129C79.3072 10.4625 79.3051 9.93947 79.3541 9.1439C79.3666 8.79228 79.3627 8.46597 79.3423 8.16496C79.3219 7.86395 79.294 7.62997 79.2585 7.46304C78.6642 4.66684 76.9272 3.57478 74.0475 4.18688C72.7955 4.453 71.6055 5.01127 70.4777 5.86168C69.0843 6.89938 67.7771 8.13689 66.5559 9.5742C65.0061 11.5176 63.4748 13.9586 61.9621 16.8973C60.4493 19.8361 59.0146 23.3471 57.6579 27.4304C56.6095 30.7066 55.6029 33.974 54.6379 37.2325C53.673 40.491 52.6872 43.7539 51.6805 47.0213C48.9599 55.9746 46.7231 60.6375 44.9703 61.0101C44.8868 61.0278 44.8274 60.9532 44.7919 60.7863C44.712 60.4107 44.8302 60.1457 45.1463 59.9912C45.4546 59.1842 45.418 57.8833 45.0365 56.0888C44.8414 55.1706 44.5615 54.1614 44.1967 53.0612C43.832 51.961 43.399 50.7445 42.8975 49.4116C42.1645 47.6045 41.5947 46.1553 41.1883 45.064C40.7818 43.9726 40.5178 43.2436 40.3962 42.8768C38.9623 46.8021 36.8521 51.5472 34.0656 57.1121C30.4236 64.6037 27.8305 68.5136 26.2863 68.8419ZM21.071 73.549C20.9876 73.5668 20.9237 73.4713 20.8793 73.2626C20.8083 72.9288 20.8023 72.0795 20.8612 70.7147C20.9706 69.3829 21.157 67.4894 21.4204 65.0343C21.7353 62.0012 21.9827 59.266 22.1625 56.8287C22.3841 54.3825 22.5217 52.2595 22.5754 50.4597C22.8536 44.381 22.5936 39.4636 21.7952 35.7075C21.3782 33.746 20.888 31.9528 20.3245 30.3278C19.7939 28.6521 19.2108 27.1403 18.5753 25.7923C17.0118 25.2086 15.3328 25.1075 13.5382 25.489C9.69862 26.3051 6.64012 28.7436 4.36266 32.8045C2.18379 36.7136 1.51573 40.6506 2.35846 44.6153C2.83749 46.869 3.62923 48.3364 4.73367 49.0177C6.18348 49.8873 7.6596 50.1624 9.16204 49.843C10.8731 49.4793 12.5511 48.4465 14.1959 46.7447C14.9064 45.983 15.5245 45.1973 16.0503 44.3877C16.609 43.5274 17.0753 42.6431 17.4493 41.7348C17.5391 41.5413 17.6257 41.4356 17.7091 41.4179C17.7926 41.4001 17.8521 41.4747 17.8876 41.6417C17.9053 41.7251 17.8902 41.8592 17.8422 42.0439C17.1625 43.9768 15.9093 45.8789 14.0825 47.7503C12.1242 49.8241 10.2269 51.0561 8.39055 51.4465C7.09679 51.7215 5.899 51.6271 4.79717 51.1634C4.22539 50.936 3.70735 50.6535 3.24303 50.316C2.76984 49.9367 2.37125 49.498 2.04726 48.9998C1.441 47.9946 1.00038 46.8451 0.725382 45.5513C0.228611 43.2142 0.241523 40.8124 0.764118 38.3458C1.50265 35.0482 3.24491 32.0607 5.99091 29.3832C8.72805 26.6641 11.7869 24.9452 15.1673 24.2267C16.002 24.0493 16.8083 23.9433 17.5861 23.9088C15.7345 20.9437 13.6375 19.4919 11.2951 19.5536C11.0687 19.5145 10.9422 19.4324 10.9156 19.3072C10.8269 18.8898 11.0747 18.619 11.659 18.4948C14.0795 17.9803 16.386 19.8019 18.5784 23.9596C24.5407 24.3062 28.3868 28.5486 30.1166 36.6868C31.1102 41.3611 31.0807 46.5581 30.0283 52.2779C29.5349 55.0872 28.245 60.2032 26.1587 67.6258C26.1436 67.7599 26.0317 67.8491 25.823 67.8935C25.4891 67.9644 25.2956 67.8747 25.2424 67.6243C25.2069 67.4574 25.2541 66.8585 25.3839 65.8276C25.5138 64.7967 25.701 63.3175 25.9455 61.3899C26.2266 59.0183 26.4641 56.8522 26.6581 54.8917C26.852 52.9312 27.0069 51.1971 27.1226 49.6895C27.2518 47.2193 27.2585 44.9932 27.1426 43.0114C27.0267 41.0295 26.8046 39.2665 26.4764 37.7223C25.2522 31.963 23.0056 28.1657 19.7366 26.3306C20.8052 28.8952 21.6987 31.8677 22.4173 35.2482C23.0648 38.2948 23.529 41.4022 23.8099 44.5703C24.1324 47.7296 24.2552 50.975 24.1782 54.3065C24.1304 57.9808 23.87 61.373 23.397 64.4833C22.9329 67.6354 22.2397 70.5308 21.3175 73.1695C21.2367 73.4048 21.1545 73.5313 21.071 73.549ZM41.8936 34.8379C42.8141 31.3707 43.4061 28.4096 43.6694 25.9545C43.9656 23.4488 43.9629 21.4865 43.6613 20.0676C43.2887 18.3147 42.6642 17.5314 41.7878 17.7177C39.3254 18.2411 38.8306 21.9668 40.3031 28.8946C40.4983 29.8128 40.7232 30.7683 40.9778 31.761C41.2742 32.7449 41.5794 33.7705 41.8936 34.8379ZM65.5823 51.5908C63.9547 51.9367 62.9191 51.0664 62.4756 48.9796C61.9344 46.4339 62.3399 43.6214 63.6919 40.5424C62.6782 39.0567 61.9762 37.3957 61.5859 35.5594C61.2044 33.7648 61.2265 32.1243 61.6521 30.638C62.4705 27.716 63.9022 26.0377 65.9471 25.603C68.5347 25.053 70.5073 26.9456 71.8649 31.2807C73.9694 30.9206 75.2434 31.784 75.6869 33.8707C76.0506 35.5818 75.9612 36.495 75.4187 36.6103C75.2517 36.6458 75.1417 36.5383 75.0884 36.2879C75.0707 36.2045 75.0529 36.121 75.0352 36.0375C75.0592 35.9452 75.0788 35.832 75.0939 35.6979C75.0584 35.531 75.0318 35.4058 75.014 35.3223C75.0292 35.1882 75.0323 35.1003 75.0234 35.0586C74.8815 34.3908 74.5575 33.8927 74.0514 33.564C73.4948 33.2025 72.9243 33.0839 72.34 33.2081C72.9215 38.4061 72.5197 42.5699 71.1348 45.6996L73.0755 45.2871C72.6039 45.7363 72.1594 46.0053 71.7421 46.094C71.6169 46.1206 71.5081 46.1219 71.4158 46.0979C71.2817 46.0828 71.1521 46.0885 71.0269 46.1151C71.1938 46.0797 70.6098 46.9235 69.2749 48.6467C67.94 50.3699 66.7092 51.3513 65.5823 51.5908ZM64.2342 39.7074C66.0526 35.7441 68.2711 33.0479 70.8899 31.6188C69.2923 28.2071 67.7632 26.6565 66.3025 26.967C64.967 27.2508 64.0153 28.8271 63.4473 31.6959C63.2491 32.6104 63.1686 33.5654 63.2057 34.5608C63.2339 35.5144 63.3544 36.492 63.5673 37.4937C63.7359 38.2866 63.9582 39.0245 64.2342 39.7074ZM69.065 45.8124C69.8715 44.6813 70.5126 42.6694 70.9882 39.7767C71.4878 36.7916 71.6001 34.6521 71.3251 33.3584C70.4336 33.6787 69.1756 34.8403 67.5512 36.8432C65.9596 38.7954 65.0319 40.2794 64.7679 41.2951C66.3186 44.2806 67.7509 45.7864 69.065 45.8124ZM65.3709 49.6728C66.5395 49.4244 67.7096 48.2597 68.8812 46.1786C67.4685 46.3044 65.9912 44.8954 64.4495 41.9517C63.5602 44.5398 63.253 46.4807 63.528 47.7745C63.8385 49.2352 64.4528 49.868 65.3709 49.6728ZM82.209 48.4492C81.9169 48.5113 81.5146 48.466 81.0023 48.3131C80.4723 48.0769 80.1851 47.8544 80.1407 47.6457C80.2127 47.3687 80.2594 47.0752 80.2808 46.7654C80.3439 46.4466 80.4278 46.1234 80.5327 45.7958C80.9468 44.0502 81.2983 42.3179 81.5873 40.599C81.8762 38.88 82.0608 37.1832 82.141 35.5086C82.239 33.9175 82.0707 32.0994 81.636 30.0544C81.6412 30.4895 81.503 31.1732 81.2214 32.1054C80.9726 32.9871 80.622 34.1085 80.1698 35.4696C79.7505 36.7801 79.3538 37.8895 78.9798 38.7977C78.6386 39.6554 78.3499 40.3493 78.1136 40.8793C78.1225 40.921 78.0852 40.9508 78.0017 40.9685C77.7931 41.0129 77.671 40.9516 77.6355 40.7846C77.6178 40.7012 77.6253 40.6341 77.6582 40.5835C77.8527 40.0624 78.0429 39.5203 78.2286 38.9574C78.456 38.3856 78.6954 37.7677 78.9468 37.1036C79.6833 35.0277 80.2302 33.1885 80.5875 31.5859C80.9447 29.9832 81.1497 28.5875 81.2023 27.3985C81.2221 26.2602 81.5241 25.629 82.1084 25.5048C82.7761 25.3628 83.2874 26.1266 83.6423 27.7959C84.281 30.8008 84.1061 34.6983 83.1178 39.4885C84.7682 36.1715 85.9341 33.9608 86.6154 32.8564C88.4531 29.8049 90.0397 28.1373 91.3752 27.8534C92.7107 27.5695 93.5647 28.304 93.9373 30.0569C94.1946 31.2672 94.0869 32.4024 93.6143 33.4625C93.0697 34.7996 92.4636 35.5391 91.7958 35.681C91.6706 35.7076 91.5903 35.6375 91.5548 35.4705C91.5548 35.4705 91.6735 34.9001 91.9108 33.7591C92.1481 32.6182 92.1869 31.6721 92.0272 30.9209C91.7877 29.7941 91.3132 29.3061 90.6037 29.4569C89.6438 29.6609 88.2867 31.2797 86.5325 34.3134C85.1397 36.7905 84.1812 38.8481 83.657 40.4862C83.6419 40.6202 83.5606 41.161 83.413 42.1084C83.2654 43.0557 83.0396 44.456 82.7355 46.309C82.7053 46.5772 82.663 46.8915 82.6088 47.252C82.5874 47.5618 82.5496 47.897 82.4954 48.2575C82.4297 48.3587 82.3342 48.4226 82.209 48.4492ZM113.994 43.9832C112.033 44.4001 109.518 43.7567 106.452 42.0531C104.127 40.7589 101.957 39.17 99.9426 37.2863C99.6672 38.0427 99.4082 38.7739 99.1657 39.4797C98.9231 40.1856 98.6642 40.9168 98.3888 41.6732C97.7242 43.472 97.0127 44.8446 96.2542 45.791C96.1244 46.8218 95.5795 47.4393 94.6196 47.6433C94.1606 47.7409 93.8955 47.6227 93.8246 47.2889C93.5762 46.1203 94.0014 42.1696 95.1002 35.4366L93.9374 35.8147C93.687 35.8679 93.5529 35.8528 93.5352 35.7693C93.411 35.185 93.9705 34.739 95.2137 34.4311C95.5443 32.7033 95.8901 30.8413 96.251 28.8454C96.603 26.8076 96.9999 24.6731 97.4416 22.4419C95.7436 23.8933 94.4773 24.7077 93.6426 24.8851C93.4757 24.9206 93.3789 24.8758 93.3523 24.7506C93.2636 24.3332 93.4847 23.9372 94.0158 23.5626C94.0815 23.4614 94.1934 23.3722 94.3515 23.295C94.5424 23.1672 94.7498 23.0141 94.9736 22.8356C96.0597 21.9941 97.0073 21.1166 97.8163 20.203C98.1016 18.8774 98.4665 17.2078 98.9108 15.194C99.3463 13.1386 99.8614 10.7391 100.456 7.99548C100.591 7.39971 100.746 6.69073 100.92 5.86855C101.094 5.04636 101.3 4.0648 101.537 2.92387C101.792 1.8664 102.671 1.17799 104.173 0.858636C104.966 0.690088 105.412 0.835353 105.509 1.29443C105.545 1.46137 105.477 2.0647 105.305 3.10443C105.058 4.81452 104.637 6.73591 104.044 8.86859C103.492 10.9924 102.763 13.3066 101.856 15.8113C101.709 16.1478 101.518 16.5811 101.281 17.1111C101.045 17.6411 100.805 18.2591 100.563 18.9649C100.401 19.4355 100.224 20.0402 100.032 20.7789C99.8823 21.5087 99.6664 22.3398 99.3847 23.272C98.776 25.5388 97.9522 29.0508 96.9133 33.8081C97.5794 32.8377 98.0377 32.3259 98.2881 32.2727C98.622 32.2018 98.9629 32.3692 99.3109 32.775C99.3855 32.7156 99.56 32.6131 99.8344 32.4675C100.142 32.2713 100.523 32.0157 100.98 31.7005C101.076 31.3312 101.2 30.8904 101.353 30.3781C101.539 29.8151 101.749 29.1599 101.982 28.4123C102.297 27.4294 102.657 26.4586 103.064 25.4997C103.513 24.5319 104.008 23.5762 104.549 22.6324C106.04 20.0036 107.412 18.5561 108.664 18.29C109.999 18.0061 110.964 19.2623 111.558 22.0585C112.295 25.5224 109.051 28.9381 101.828 32.3054C101.684 32.8594 101.392 33.6412 100.953 34.6507C102.734 36.6711 104.747 38.446 106.992 39.9754C109.953 42.0067 112.394 42.8183 114.314 42.4103C115.149 42.2329 115.796 41.7899 116.256 41.0814C116.8 40.3552 117.092 39.9877 117.134 39.9788C117.301 39.9433 117.402 40.0091 117.438 40.176C117.455 40.2595 117.449 40.4353 117.419 40.7034C116.763 42.544 115.622 43.6372 113.994 43.9832ZM102.165 31.1214C106.941 28.1434 109.023 25.2145 108.411 22.3349C108.163 21.1663 107.767 20.6397 107.225 20.755C106.307 20.9502 104.942 23.3557 103.132 27.9717C103.027 28.2993 102.882 28.7446 102.696 29.3075C102.543 29.8198 102.366 30.4244 102.165 31.1214ZM96.2385 44.4857C97.3684 42.4135 98.4082 39.8152 99.358 36.6908C99.129 36.4342 98.8658 36.1193 98.5684 35.7463C98.271 35.3734 97.9142 34.9258 97.4978 34.4036L96.8225 34.6126C96.627 35.7446 96.4846 37.1271 96.3955 38.76C96.3064 40.3929 96.2541 42.3014 96.2385 44.4857ZM122.405 39.8398C120.444 40.2567 118.497 39.8199 116.565 38.5294C114.666 37.1882 113.508 35.5369 113.091 33.5754C112.816 32.2816 113.013 31.5638 113.681 31.4219C114.098 31.3331 114.582 31.5574 115.132 32.0947C115.763 28.9072 116.836 25.2332 118.351 21.0727C119.333 18.5085 120.804 17.018 122.766 16.6011C123.183 16.5124 123.694 16.5564 124.299 16.7332C124.954 16.9429 125.321 17.2356 125.401 17.6112C125.463 17.9033 125.223 18.1071 124.681 18.2224C124.639 18.2312 124.576 18.2446 124.493 18.2623C124.409 18.28 124.301 18.2813 124.166 18.2662L123.666 18.3727C122.706 18.5767 121.95 19.021 121.397 19.7054C120.812 20.4405 120.612 21.2463 120.799 22.1227C120.87 22.4566 121.008 22.798 121.213 23.147C121.641 23.9285 122.068 24.7099 122.496 25.4914C122.924 26.2728 123.352 27.0543 123.78 27.8358C124.285 28.7753 124.693 29.67 125.004 30.5198C125.349 31.319 125.596 32.0733 125.747 32.7828C126.839 32.3763 127.71 31.755 128.361 30.9187C128.773 30.3949 129.263 29.4183 129.832 27.9888C129.921 27.7953 130.029 27.6852 130.154 27.6586C130.279 27.632 130.36 27.7021 130.395 27.8691C130.431 28.036 130.42 28.1909 130.363 28.3339C129.45 31.0143 127.994 32.785 125.996 33.6459C126.181 35.1332 126 36.4367 125.453 37.5562C124.882 38.7681 123.866 39.5293 122.405 39.8398ZM123.354 34.1422C123.36 33.9664 123.35 33.8159 123.323 33.6907C123.296 33.5655 123.265 33.4194 123.23 33.2525C123.114 32.7099 122.855 32.0017 122.451 31.1279C122.08 30.2035 121.581 29.0882 120.955 27.7819C119.77 25.2857 119.168 23.5817 119.148 22.6698C118.303 24.0272 117.168 27.4091 115.743 32.8154C116.625 33.0642 117.373 33.2979 117.986 33.5164C118.632 33.6844 119.14 33.8164 119.51 33.9123C120.886 34.2305 122.167 34.3071 123.354 34.1422ZM120.652 38.0534C122.321 37.6986 123.254 36.6497 123.451 34.9067C120.112 35.6164 117.42 35.4689 115.374 34.4642C115.662 35.4064 116.371 36.2807 117.502 37.0871C118.642 37.9353 119.692 38.2574 120.652 38.0534Z" fill="#61DAFB"/>
</svg>
